SplineFontDB: 3.0
FontName: Chathura-Bold
FullName: Chathura Bold
FamilyName: Chathura
Weight: Bold
Copyright: Copyright (c) 2015 by Aditya Fonts. All rights reserved.
Version: 1.00 2015
ItalicAngle: 0
UnderlinePosition: -613
UnderlineWidth: 20
Ascent: 800
Descent: 200
InvalidEm: 0
sfntRevision: 0x00010000
LayerCount: 2
Layer: 0 1 "Back" 1
Layer: 1 1 "Fore" 0
XUID: [1021 73 2087734359 6994908]
FSType: 0
OS2Version: 3
OS2_WeightWidthSlopeOnly: 0
OS2_UseTypoMetrics: 1
CreationTime: 1374624000
ModificationTime: 1440418208
PfmFamily: 17
TTFWeight: 500
TTFWidth: 5
LineGap: 0
VLineGap: 0
Panose: 2 0 6 0 0 0 0 0 0 0
OS2TypoAscent: 895
OS2TypoAOffset: 0
OS2TypoDescent: -310
OS2TypoDOffset: 0
OS2TypoLinegap: 448
OS2WinAscent: 895
OS2WinAOffset: 0
OS2WinDescent: 653
OS2WinDOffset: 0
HheadAscent: 895
HheadAOffset: 0
HheadDescent: -653
HheadDOffset: 0
OS2SubXSize: 700
OS2SubYSize: 650
OS2SubXOff: 0
OS2SubYOff: 200
OS2SupXSize: 700
OS2SupYSize: 650
OS2SupXOff: 0
OS2SupYOff: 500
OS2StrikeYSize: 50
OS2StrikeYPos: 250
OS2CapHeight: 0
OS2XHeight: 0
OS2Vendor: 'AAD '
OS2CodePages: 00000003.00000000
OS2UnicodeRanges: 80200003.00000000.00000000.00000000
Lookup: 4 0 0 "'akhn' Akhand in Telugu lookup 0" { "'akhn' Akhand in Telugu lookup 0 subtable"  } ['akhn' ('telu' <'dflt' > ) ]
Lookup: 4 0 0 "'blwf' Below Base Forms in Telugu lookup 1" { "'blwf' Below Base Forms in Telugu lookup 1 subtable"  } ['blwf' ('telu' <'dflt' > ) ]
Lookup: 4 0 0 "'blwf' Below Base Forms in Telugu lookup 2" { "'blwf' Below Base Forms in Telugu lookup 2 subtable"  } ['blwf' ('telu' <'dflt' > ) ]
Lookup: 4 0 0 "'blwf' Below Base Forms in Telugu lookup 3" { "'blwf' Below Base Forms in Telugu lookup 3 subtable"  } ['blwf' ('telu' <'dflt' > ) ]
Lookup: 4 0 0 "'abvs' Above Base Substitutions in Telugu lookup 4" { "'abvs' Above Base Substitutions in Telugu lookup 4 subtable"  } ['abvs' ('telu' <'dflt' > ) ]

StartChar: .notdef
Encoding: 65536 -1 0
Width: 800
GlyphClass: 2
Flags: W
LayerCount: 2
Back
Fore
SplineSet
700 700 m 1,0,-1
 700 0 l 1,1,-1
 100 0 l 1,2,-1
 100 700 l 1,3,-1
 700 700 l 1,0,-1
650 650 m 1,4,-1
 150 650 l 1,5,-1
 150 50 l 1,6,-1
 650 50 l 1,7,-1
 650 650 l 1,4,-1
EndSplineSet
EndChar

StartChar: exclam
Encoding: 33 33 4
Width: 160
GlyphClass: 2
Flags: W
LayerCount: 2
Back
Fore
SplineSet
89 156 m 0,0,1
 88 145 88 145 85.5 142 c 128,-1,2
 83 139 83 139 79 139 c 2,3,-1
 60 138 l 2,4,5
 55 137 55 137 54.5 142 c 128,-1,6
 54 147 54 147 53 156 c 0,7,8
 52 177 52 177 51.5 226 c 128,-1,9
 51 275 51 275 51 361 c 2,10,-1
 51 415 l 2,11,12
 51 420 51 420 52 427 c 128,-1,13
 53 434 53 434 58 434 c 2,14,-1
 84 434 l 2,15,16
 89 434 89 434 90 427 c 128,-1,17
 91 420 91 420 91 415 c 2,18,-1
 91 361 l 1,19,-1
 91 258 l 2,20,21
 91 216 91 216 90.5 190 c 128,-1,22
 90 164 90 164 89 156 c 0,0,1
83 0 m 2,23,-1
 58 0 l 2,24,25
 54 0 54 0 52.5 6.5 c 128,-1,26
 51 13 51 13 51 18 c 2,27,-1
 51 86 l 2,28,29
 51 91 51 91 52 98 c 128,-1,30
 53 105 53 105 58 105 c 2,31,-1
 83 105 l 2,32,33
 88 105 88 105 89 98 c 128,-1,34
 90 91 90 91 90 86 c 2,35,-1
 90 18 l 2,36,37
 90 13 90 13 89 6.5 c 128,-1,38
 88 0 88 0 83 0 c 2,23,-1
EndSplineSet
EndChar

StartChar: quotedbl
Encoding: 34 34 5
Width: 218
GlyphClass: 2
Flags: W
LayerCount: 2
Back
Fore
SplineSet
159 335 m 2,0,1
 159 318 159 318 143 318 c 2,2,-1
 141 318 l 2,3,4
 126 318 126 318 126 335 c 2,5,-1
 123 436 l 2,6,7
 123 454 123 454 139 454 c 2,8,-1
 148 454 l 2,9,10
 155 454 155 454 158.5 449 c 128,-1,11
 162 444 162 444 162 436 c 2,12,-1
 159 335 l 2,0,1
83 335 m 2,13,14
 83 329 83 329 79.5 323.5 c 128,-1,15
 76 318 76 318 68 318 c 2,16,-1
 66 318 l 2,17,18
 57 318 57 318 54 323 c 128,-1,19
 51 328 51 328 51 335 c 2,20,-1
 46 436 l 2,21,22
 45 444 45 444 50 449 c 128,-1,23
 55 454 55 454 62 454 c 2,24,-1
 71 454 l 2,25,26
 87 454 87 454 87 436 c 2,27,-1
 83 335 l 2,13,14
EndSplineSet
EndChar

StartChar: numbersign
Encoding: 35 35 6
Width: 458
GlyphClass: 2
Flags: W
LayerCount: 2
Back
Fore
SplineSet
395 279 m 2,0,-1
 343 279 l 1,1,-1
 307 154 l 1,2,-1
 352 154 l 2,3,4
 359 154 359 154 364.5 149.5 c 128,-1,5
 370 145 370 145 370 137 c 2,6,-1
 370 128 l 2,7,8
 370 119 370 119 364.5 114.5 c 128,-1,9
 359 110 359 110 352 110 c 2,10,-1
 295 110 l 1,11,-1
 269 17 l 2,12,13
 267 12 267 12 262.5 6 c 128,-1,14
 258 0 258 0 249 0 c 2,15,-1
 243 0 l 2,16,17
 228 0 228 0 226.5 11 c 128,-1,18
 225 22 225 22 227 27 c 2,19,-1
 250 110 l 1,20,-1
 148 110 l 1,21,-1
 122 16 l 2,22,23
 119 11 119 11 114.5 5.5 c 128,-1,24
 110 0 110 0 103 0 c 2,25,-1
 95 0 l 2,26,27
 83 0 83 0 80 8.5 c 128,-1,28
 77 17 77 17 80 27 c 2,29,-1
 103 110 l 1,30,-1
 63 110 l 2,31,32
 55 110 55 110 49.5 114.5 c 128,-1,33
 44 119 44 119 44 128 c 2,34,-1
 44 137 l 2,35,36
 44 145 44 145 49.5 149.5 c 128,-1,37
 55 154 55 154 63 154 c 2,38,-1
 115 154 l 1,39,-1
 151 279 l 1,40,-1
 106 279 l 2,41,42
 99 279 99 279 93.5 283.5 c 128,-1,43
 88 288 88 288 88 297 c 2,44,-1
 88 306 l 2,45,46
 88 315 88 315 93.5 319.5 c 128,-1,47
 99 324 99 324 106 324 c 2,48,-1
 163 324 l 1,49,-1
 189 418 l 2,50,51
 191 423 191 423 196.5 428.5 c 128,-1,52
 202 434 202 434 210 434 c 2,53,-1
 215 434 l 2,54,55
 229 434 229 434 231 423 c 128,-1,56
 233 412 233 412 231 408 c 2,57,-1
 208 324 l 1,58,-1
 310 324 l 1,59,-1
 336 418 l 2,60,61
 338 423 338 423 343 428.5 c 128,-1,62
 348 434 348 434 356 434 c 2,63,-1
 361 434 l 2,64,65
 372 434 372 434 375 428 c 128,-1,66
 378 422 378 422 378 414 c 2,67,-1
 378 407 l 1,68,-1
 355 324 l 1,69,-1
 395 324 l 2,70,71
 403 324 403 324 408.5 319.5 c 128,-1,72
 414 315 414 315 414 306 c 2,73,-1
 414 297 l 2,74,75
 414 288 414 288 408.5 283.5 c 128,-1,76
 403 279 403 279 395 279 c 2,0,-1
196 279 m 1,77,-1
 161 154 l 1,78,-1
 262 154 l 1,79,-1
 297 279 l 1,80,-1
 196 279 l 1,77,-1
EndSplineSet
EndChar

StartChar: dollar
Encoding: 36 36 7
Width: 335
GlyphClass: 2
Flags: W
LayerCount: 2
Back
Fore
SplineSet
197 -3 m 1,0,-1
 197 -47 l 2,1,2
 197 -55 197 -55 193 -61 c 128,-1,3
 189 -67 189 -67 180 -67 c 2,4,-1
 172 -67 l 2,5,6
 163 -67 163 -67 159 -61 c 128,-1,7
 155 -55 155 -55 155 -47 c 2,8,-1
 155 -3 l 1,9,-1
 145 -3 l 2,10,11
 103 -3 103 -3 78.5 23.5 c 128,-1,12
 54 50 54 50 54 98 c 2,13,-1
 54 120 l 2,14,15
 54 128 54 128 58 133.5 c 128,-1,16
 62 139 62 139 71 139 c 2,17,-1
 80 139 l 2,18,19
 89 139 89 139 93 133.5 c 128,-1,20
 97 128 97 128 97 120 c 2,21,-1
 97 98 l 2,22,23
 97 69 97 69 108 56 c 128,-1,24
 119 43 119 43 145 43 c 2,25,-1
 192 43 l 2,26,27
 240 43 240 43 240 98 c 2,28,-1
 240 144 l 2,29,30
 240 176 240 176 229 187 c 128,-1,31
 218 198 218 198 190 198 c 2,32,-1
 148 198 l 2,33,34
 104 198 104 198 79 219 c 128,-1,35
 54 240 54 240 54 293 c 2,36,-1
 54 338 l 2,37,38
 54 386 54 386 78.5 412 c 128,-1,39
 103 438 103 438 145 438 c 2,40,-1
 155 438 l 1,41,-1
 155 482 l 2,42,43
 155 490 155 490 159 495.5 c 128,-1,44
 163 501 163 501 172 501 c 2,45,-1
 180 501 l 2,46,47
 189 501 189 501 193 495.5 c 128,-1,48
 197 490 197 490 197 482 c 2,49,-1
 197 438 l 1,50,51
 236 435 236 435 258.5 408.5 c 128,-1,52
 281 382 281 382 281 338 c 2,53,-1
 281 318 l 2,54,55
 281 310 281 310 277 304 c 128,-1,56
 273 298 273 298 265 298 c 2,57,-1
 256 298 l 2,58,59
 248 298 248 298 244 304 c 128,-1,60
 240 310 240 310 240 318 c 2,61,-1
 240 338 l 2,62,63
 240 393 240 393 192 393 c 2,64,-1
 145 393 l 2,65,66
 97 393 97 393 97 338 c 2,67,-1
 97 293 l 2,68,69
 97 263 97 263 108 252.5 c 128,-1,70
 119 242 119 242 145 242 c 2,71,-1
 192 242 l 2,72,73
 281 242 281 242 281 145 c 2,74,-1
 281 98 l 2,75,76
 281 53 281 53 258 26 c 128,-1,77
 235 -1 235 -1 197 -3 c 1,0,-1
EndSplineSet
EndChar

StartChar: percent
Encoding: 37 37 8
Width: 479
GlyphClass: 2
Flags: W
LayerCount: 2
Back
Fore
SplineSet
357 0 m 2,0,-1
 347 0 l 2,1,2
 261 0 261 0 261 91 c 2,3,-1
 261 122 l 2,4,5
 261 213 261 213 347 213 c 2,6,-1
 357 213 l 2,7,8
 442 213 442 213 442 122 c 2,9,-1
 442 91 l 2,10,11
 442 0 442 0 357 0 c 2,0,-1
397 121 m 2,12,13
 397 150 397 150 389 159 c 128,-1,14
 381 168 381 168 357 168 c 2,15,-1
 347 168 l 2,16,17
 323 168 323 168 314.5 159 c 128,-1,18
 306 150 306 150 306 121 c 2,19,-1
 306 92 l 2,20,21
 306 63 306 63 314.5 53.5 c 128,-1,22
 323 44 323 44 347 44 c 2,23,-1
 357 44 l 2,24,25
 381 44 381 44 389 53.5 c 128,-1,26
 397 63 397 63 397 92 c 2,27,-1
 397 121 l 2,12,13
176 14 m 2,28,29
 174 12 174 12 172 9.5 c 128,-1,30
 170 7 170 7 168 5 c 0,31,32
 163 0 163 0 155 0 c 2,33,-1
 149 0 l 2,34,35
 134 0 134 0 133 10 c 128,-1,36
 132 20 132 20 134 27 c 2,37,-1
 305 420 l 2,38,39
 306 424 306 424 311 429 c 256,40,41
 316 434 316 434 325 434 c 2,42,-1
 330 434 l 2,43,44
 345 434 345 434 346.5 424.5 c 128,-1,45
 348 415 348 415 344 406 c 2,46,-1
 176 14 l 2,28,29
133 224 m 2,47,-1
 123 224 l 2,48,49
 37 224 37 224 37 316 c 2,50,-1
 37 347 l 2,51,52
 37 437 37 437 123 437 c 2,53,-1
 133 437 l 2,54,55
 218 437 218 437 218 347 c 2,56,-1
 218 316 l 2,57,58
 218 224 218 224 133 224 c 2,47,-1
173 346 m 2,59,60
 173 375 173 375 165 384 c 128,-1,61
 157 393 157 393 133 393 c 2,62,-1
 123 393 l 2,63,64
 99 393 99 393 90.5 384 c 128,-1,65
 82 375 82 375 82 346 c 2,66,-1
 82 316 l 2,67,68
 82 287 82 287 91 278.5 c 128,-1,69
 100 270 100 270 123 270 c 2,70,-1
 133 270 l 2,71,72
 157 270 157 270 165 278.5 c 128,-1,73
 173 287 173 287 173 316 c 2,74,-1
 173 346 l 2,59,60
EndSplineSet
EndChar

StartChar: ampersand
Encoding: 38 38 9
Width: 379
GlyphClass: 2
Flags: W
LayerCount: 2
Back
Fore
SplineSet
275 -1 m 1,0,-1
 259 18 l 1,1,2
 241 0 241 0 219 0 c 2,3,-1
 69 0 l 2,4,5
 46 0 46 0 26.5 20 c 128,-1,6
 7 40 7 40 7 72 c 2,7,-1
 7 188 l 2,8,9
 7 216 7 216 18 231 c 128,-1,10
 29 246 29 246 60 266 c 1,11,12
 40 270 40 270 31 282.5 c 128,-1,13
 22 295 22 295 22 303 c 2,14,-1
 22 366 l 2,15,16
 22 389 22 389 34.5 403.5 c 128,-1,17
 47 418 47 418 81 418 c 2,18,-1
 165 418 l 2,19,20
 191 418 191 418 202.5 409.5 c 128,-1,21
 214 401 214 401 215 372 c 2,22,-1
 217 287 l 2,23,24
 218 266 218 266 196 250 c 128,-1,25
 174 234 174 234 143 234 c 1,26,27
 160 214 160 214 182.5 188 c 128,-1,28
 205 162 205 162 234 125 c 1,29,-1
 234 173 l 1,30,-1
 280 173 l 1,31,-1
 280 72 l 1,32,-1
 280 69 l 1,33,34
 299 46 299 46 313 28 c 128,-1,35
 327 10 327 10 336 -1 c 1,36,-1
 275 -1 l 1,0,-1
169 355 m 2,37,38
 169 365 169 365 166.5 369.5 c 128,-1,39
 164 374 164 374 153 374 c 2,40,-1
 85 374 l 2,41,42
 76 374 76 374 72 368 c 128,-1,43
 68 362 68 362 68 353 c 2,44,-1
 68 302 l 2,45,46
 68 289 68 289 74 285.5 c 128,-1,47
 80 282 80 282 89 282 c 2,48,-1
 153 282 l 2,49,50
 164 282 164 282 166.5 289.5 c 128,-1,51
 169 297 169 297 169 304 c 2,52,-1
 169 355 l 2,37,38
81 231 m 1,53,54
 53 224 53 224 53 181 c 2,55,-1
 53 72 l 2,56,57
 53 68 53 68 57 56.5 c 128,-1,58
 61 45 61 45 81 45 c 2,59,-1
 207 45 l 2,60,61
 220 45 220 45 229 55 c 1,62,63
 192 101 192 101 155.5 144 c 128,-1,64
 119 187 119 187 81 231 c 1,53,54
EndSplineSet
EndChar

StartChar: quotesingle
Encoding: 39 39 10
Width: 125
GlyphClass: 2
Flags: W
LayerCount: 2
Back
Fore
SplineSet
79 335 m 2,0,1
 79 318 79 318 63 318 c 2,2,-1
 61 318 l 2,3,4
 45 318 45 318 45 335 c 2,5,-1
 43 436 l 2,6,7
 43 454 43 454 58 454 c 2,8,-1
 68 454 l 2,9,10
 74 454 74 454 78 449 c 128,-1,11
 82 444 82 444 82 436 c 2,12,-1
 79 335 l 2,0,1
EndSplineSet
EndChar

StartChar: parenleft
Encoding: 40 40 11
Width: 187
GlyphClass: 2
Flags: W
LayerCount: 2
Back
Fore
SplineSet
121 -69 m 2,0,-1
 119 -69 l 2,1,2
 85 -69 85 -69 64.5 -42 c 128,-1,3
 44 -15 44 -15 44 31 c 2,4,-1
 44 333 l 2,5,6
 44 379 44 379 64.5 406.5 c 128,-1,7
 85 434 85 434 119 434 c 2,8,-1
 121 434 l 2,9,10
 127 434 127 434 131.5 428.5 c 128,-1,11
 136 423 136 423 136 415 c 2,12,-1
 136 408 l 2,13,14
 136 399 136 399 131.5 394 c 128,-1,15
 127 389 127 389 121 389 c 2,16,-1
 119 389 l 2,17,18
 80 389 80 389 80 332 c 2,19,-1
 80 32 l 2,20,21
 80 -24 80 -24 119 -24 c 2,22,-1
 121 -24 l 2,23,24
 127 -24 127 -24 131.5 -29.5 c 128,-1,25
 136 -35 136 -35 136 -44 c 2,26,-1
 136 -51 l 2,27,28
 136 -59 136 -59 131.5 -64 c 128,-1,29
 127 -69 127 -69 121 -69 c 2,0,-1
EndSplineSet
EndChar

StartChar: parenright
Encoding: 41 41 12
Width: 187
GlyphClass: 2
Flags: W
LayerCount: 2
Back
Fore
SplineSet
61 -69 m 2,0,-1
 59 -69 l 2,1,2
 53 -69 53 -69 48.5 -64 c 128,-1,3
 44 -59 44 -59 44 -51 c 2,4,-1
 44 -44 l 2,5,6
 44 -35 44 -35 48.5 -29.5 c 128,-1,7
 53 -24 53 -24 59 -24 c 2,8,-1
 61 -24 l 2,9,10
 100 -24 100 -24 100 32 c 2,11,-1
 100 332 l 2,12,13
 100 389 100 389 61 389 c 2,14,-1
 59 389 l 2,15,16
 53 389 53 389 48.5 394 c 128,-1,17
 44 399 44 399 44 408 c 2,18,-1
 44 415 l 2,19,20
 44 423 44 423 48.5 428.5 c 128,-1,21
 53 434 53 434 59 434 c 2,22,-1
 61 434 l 2,23,24
 95 434 95 434 115.5 406.5 c 128,-1,25
 136 379 136 379 136 333 c 2,26,-1
 136 31 l 2,27,28
 136 -15 136 -15 115.5 -42 c 128,-1,29
 95 -69 95 -69 61 -69 c 2,0,-1
EndSplineSet
EndChar

StartChar: asterisk
Encoding: 42 42 13
Width: 275
GlyphClass: 2
Flags: W
LayerCount: 2
Back
Fore
SplineSet
208 347 m 0,0,1
 200 343 200 343 191 340.5 c 128,-1,2
 182 338 182 338 168 334 c 1,3,4
 176 326 176 326 180 320.5 c 128,-1,5
 184 315 184 315 188 309 c 2,6,-1
 195 300 l 2,7,8
 200 292 200 292 197 286.5 c 128,-1,9
 194 281 194 281 191 277 c 2,10,-1
 183 273 l 2,11,12
 171 263 171 263 161 276 c 0,13,14
 154 285 154 285 149 293.5 c 128,-1,15
 144 302 144 302 139 313 c 1,16,17
 131 302 131 302 125.5 292.5 c 128,-1,18
 120 283 120 283 114 275 c 0,19,20
 109 269 109 269 104 268.5 c 128,-1,21
 99 268 99 268 94 270 c 0,22,23
 92 272 92 272 89.5 273.5 c 128,-1,24
 87 275 87 275 85 277 c 0,25,26
 77 282 77 282 77.5 290 c 128,-1,27
 78 298 78 298 80 301 c 0,28,29
 84 306 84 306 86.5 309.5 c 128,-1,30
 89 313 89 313 92 317 c 256,31,32
 95 321 95 321 98 324.5 c 128,-1,33
 101 328 101 328 108 335 c 1,34,-1
 66 348 l 2,35,36
 58 350 58 350 56 357 c 128,-1,37
 54 364 54 364 56 369 c 2,38,-1
 59 378 l 2,39,40
 62 386 62 386 68 388 c 128,-1,41
 74 390 74 390 79 389 c 0,42,43
 84 387 84 387 88.5 385.5 c 128,-1,44
 93 384 93 384 98 382 c 256,45,46
 103 380 103 380 107.5 378.5 c 128,-1,47
 112 377 112 377 120 372 c 1,48,49
 118 384 118 384 117.5 391.5 c 128,-1,50
 117 399 117 399 117 407 c 2,51,-1
 117 416 l 2,52,53
 117 422 117 422 121.5 428 c 128,-1,54
 126 434 126 434 134 434 c 2,55,-1
 142 434 l 2,56,57
 150 434 150 434 154.5 428 c 128,-1,58
 159 422 159 422 159 416 c 2,59,-1
 159 407 l 2,60,61
 159 399 159 399 158.5 391.5 c 128,-1,62
 158 384 158 384 158 373 c 1,63,64
 169 378 169 378 178 381.5 c 128,-1,65
 187 385 187 385 197 388 c 0,66,67
 210 392 210 392 216 381 c 0,68,69
 216 380 216 380 218 376 c 2,70,-1
 219 370 l 1,71,72
 226 359 226 359 218.5 353.5 c 128,-1,73
 211 348 211 348 208 347 c 0,0,1
EndSplineSet
EndChar

StartChar: plus
Encoding: 43 43 14
Width: 365
GlyphClass: 2
Flags: W
LayerCount: 2
Back
Fore
SplineSet
306 195 m 2,0,-1
 204 195 l 1,1,-1
 204 88 l 2,2,3
 204 83 204 83 200 76 c 0,4,5
 195 71 195 71 186 71 c 2,6,-1
 179 71 l 2,7,8
 172 71 172 71 170 72 c 128,-1,9
 168 73 168 73 167 75 c 2,10,-1
 162 89 l 1,11,-1
 162 195 l 1,12,-1
 58 195 l 2,13,14
 54 195 54 195 46 200 c 0,15,16
 41 203 41 203 41 213 c 2,17,-1
 41 220 l 2,18,19
 41 228 41 228 46 233 c 0,20,21
 54 238 54 238 58 238 c 2,22,-1
 162 238 l 1,23,-1
 162 343 l 2,24,25
 162 347 162 347 163 350 c 128,-1,26
 164 353 164 353 166 357 c 0,27,28
 169 362 169 362 179 362 c 2,29,-1
 186 362 l 2,30,31
 195 362 195 362 200 357 c 0,32,33
 204 347 204 347 204 343 c 2,34,-1
 204 238 l 1,35,-1
 306 238 l 2,36,37
 324 238 324 238 324 220 c 2,38,-1
 324 213 l 2,39,40
 324 195 324 195 306 195 c 2,0,-1
EndSplineSet
EndChar

StartChar: comma
Encoding: 44 44 15
Width: 126
GlyphClass: 2
Flags: W
LayerCount: 2
Back
Fore
SplineSet
77 9 m 0,0,1
 75 -6 75 -6 74 -17.5 c 128,-1,2
 73 -29 73 -29 72 -37 c 2,3,-1
 71 -49 l 2,4,5
 71 -51 71 -51 70.5 -52 c 128,-1,6
 70 -53 70 -53 70 -55 c 0,7,8
 70 -61 70 -61 66 -66 c 0,9,10
 60 -69 60 -69 58 -69 c 0,11,12
 56 -68 56 -68 53.5 -68 c 128,-1,13
 51 -68 51 -68 49 -66 c 0,14,15
 45 -62 45 -62 45 -52 c 2,16,-1
 43 74 l 2,17,18
 43 79 43 79 44 85.5 c 128,-1,19
 45 92 45 92 50 92 c 2,20,-1
 70 92 l 2,21,22
 72 92 72 92 75 87 c 2,23,-1
 78 73 l 2,24,25
 81 40 81 40 77 9 c 0,0,1
EndSplineSet
EndChar

StartChar: hyphen
Encoding: 45 45 16
Width: 231
GlyphClass: 2
Flags: W
LayerCount: 2
Back
Fore
SplineSet
195 141 m 256,0,1
 190 138 190 138 183 138 c 2,2,-1
 48 138 l 2,3,4
 41 138 41 138 35 141 c 0,5,6
 31 143 31 143 31 146 c 2,7,-1
 31 171 l 2,8,9
 31 174 31 174 34 174 c 0,10,11
 41 178 41 178 48 178 c 2,12,-1
 183 178 l 2,13,14
 191 178 191 178 196 174 c 0,15,16
 198 173 198 173 199 172 c 0,17,18
 199 171 199 171 200 171 c 2,19,-1
 200 146 l 2,20,21
 200 144 200 144 195 141 c 256,0,1
EndSplineSet
EndChar

StartChar: period
Encoding: 46 46 17
Width: 126
GlyphClass: 2
Flags: W
LayerCount: 2
Back
Fore
SplineSet
64 0 m 2,0,-1
 44 0 l 2,1,2
 36 0 36 0 36 16 c 2,3,-1
 36 77 l 2,4,5
 36 93 36 93 44 93 c 2,6,-1
 64 93 l 2,7,8
 72 93 72 93 72 77 c 2,9,-1
 72 16 l 2,10,11
 72 0 72 0 64 0 c 2,0,-1
EndSplineSet
EndChar

StartChar: slash
Encoding: 47 47 18
Width: 248
GlyphClass: 2
Flags: W
LayerCount: 2
Back
Fore
SplineSet
201 408 m 2,0,-1
 74 -13 l 2,1,2
 74 -15 74 -15 68 -22 c 0,3,4
 65 -27 65 -27 56 -27 c 2,5,-1
 49 -27 l 2,6,7
 39 -27 39 -27 34 -20 c 0,8,9
 30 -13 30 -13 34 -1 c 2,10,-1
 162 418 l 1,11,-1
 167 430 l 2,12,13
 171 434 171 434 179 434 c 2,14,-1
 187 434 l 2,15,16
 196 434 196 434 199 428.5 c 128,-1,17
 202 423 202 423 202 416 c 0,18,19
 202 410 202 410 201 408 c 2,0,-1
EndSplineSet
EndChar

StartChar: zero
Encoding: 48 48 19
Width: 308
GlyphClass: 2
Flags: W
LayerCount: 2
Back
Fore
SplineSet
179 0 m 2,0,-1
 125 0 l 2,1,2
 87 0 87 0 63.5 25.5 c 128,-1,3
 40 51 40 51 40 93 c 2,4,-1
 40 312 l 2,5,6
 40 354 40 354 63.5 379 c 128,-1,7
 87 404 87 404 125 404 c 2,8,-1
 179 404 l 2,9,10
 219 404 219 404 241.5 379 c 128,-1,11
 264 354 264 354 264 312 c 2,12,-1
 264 93 l 2,13,14
 264 51 264 51 241.5 25.5 c 128,-1,15
 219 0 219 0 179 0 c 2,0,-1
225 311 m 2,16,17
 225 363 225 363 179 363 c 2,18,-1
 125 363 l 2,19,20
 80 363 80 363 80 311 c 2,21,-1
 80 94 l 2,22,23
 80 41 80 41 125 41 c 2,24,-1
 179 41 l 2,25,26
 225 41 225 41 225 94 c 2,27,-1
 225 311 l 2,16,17
EndSplineSet
EndChar

StartChar: one
Encoding: 49 49 20
Width: 184
GlyphClass: 2
Flags: W
LayerCount: 2
Back
Fore
SplineSet
122 0 m 2,0,-1
 115 0 l 2,1,2
 107 0 107 0 104 5.5 c 128,-1,3
 101 11 101 11 101 17 c 2,4,-1
 101 352 l 1,5,-1
 53 317 l 2,6,7
 49 316 49 316 45 314.5 c 128,-1,8
 41 313 41 313 37 313 c 0,9,10
 34 313 34 313 31.5 316 c 128,-1,11
 29 319 29 319 29 330 c 2,12,-1
 29 334 l 2,13,14
 29 348 29 348 39 356 c 2,15,-1
 103 400 l 2,16,17
 110 404 110 404 116 404 c 2,18,-1
 122 404 l 2,19,20
 128 404 128 404 131.5 398.5 c 128,-1,21
 135 393 135 393 135 387 c 2,22,-1
 135 17 l 2,23,24
 135 11 135 11 131.5 5.5 c 128,-1,25
 128 0 128 0 122 0 c 2,0,-1
EndSplineSet
EndChar

StartChar: two
Encoding: 50 50 21
Width: 285
GlyphClass: 2
Flags: W
LayerCount: 2
Back
Fore
SplineSet
234 0 m 2,0,-1
 54 0 l 2,1,2
 38 0 38 0 38 17 c 2,3,-1
 38 67 l 2,4,5
 38 94 38 94 47.5 114 c 128,-1,6
 57 134 57 134 75 149 c 2,7,-1
 184 237 l 2,8,9
 209 255 209 255 209 289 c 2,10,-1
 209 313 l 2,11,12
 209 363 209 363 164 363 c 2,13,-1
 118 363 l 2,14,15
 74 363 74 363 74 313 c 2,16,-1
 74 286 l 2,17,18
 74 278 74 278 70 272.5 c 128,-1,19
 66 267 66 267 58 267 c 2,20,-1
 50 267 l 2,21,22
 42 267 42 267 38.5 272.5 c 128,-1,23
 35 278 35 278 35 286 c 2,24,-1
 35 313 l 2,25,26
 35 357 35 357 58 380.5 c 128,-1,27
 81 404 81 404 118 404 c 2,28,-1
 164 404 l 2,29,30
 202 404 202 404 224.5 380.5 c 128,-1,31
 247 357 247 357 247 313 c 2,32,-1
 247 288 l 2,33,34
 247 235 247 235 209 204 c 2,35,-1
 99 115 l 2,36,37
 76 97 76 97 76 69 c 2,38,-1
 76 41 l 1,39,-1
 234 41 l 2,40,41
 249 41 249 41 249 24 c 2,42,-1
 249 17 l 2,43,44
 249 0 249 0 234 0 c 2,0,-1
EndSplineSet
EndChar

StartChar: three
Encoding: 51 51 22
Width: 297
GlyphClass: 2
Flags: W
LayerCount: 2
Back
Fore
SplineSet
171 0 m 2,0,-1
 124 0 l 2,1,2
 86 0 86 0 63 23.5 c 128,-1,3
 40 47 40 47 40 91 c 2,4,-1
 40 120 l 2,5,6
 40 126 40 126 43.5 132 c 128,-1,7
 47 138 47 138 55 138 c 2,8,-1
 64 138 l 2,9,10
 72 138 72 138 75.5 132 c 128,-1,11
 79 126 79 126 79 120 c 2,12,-1
 79 91 l 2,13,14
 79 41 79 41 124 41 c 2,15,-1
 171 41 l 2,16,17
 215 41 215 41 215 91 c 2,18,-1
 215 133 l 2,19,20
 215 183 215 183 171 183 c 2,21,-1
 137 183 l 2,22,23
 121 183 121 183 121 200 c 2,24,-1
 121 207 l 2,25,26
 121 223 121 223 137 223 c 2,27,-1
 171 223 l 2,28,29
 215 223 215 223 215 274 c 2,30,-1
 215 313 l 2,31,32
 215 363 215 363 171 363 c 2,33,-1
 124 363 l 2,34,35
 79 363 79 363 79 313 c 2,36,-1
 79 291 l 2,37,38
 79 283 79 283 75.5 278 c 128,-1,39
 72 273 72 273 64 273 c 2,40,-1
 55 273 l 2,41,42
 47 273 47 273 43.5 278 c 128,-1,43
 40 283 40 283 40 291 c 2,44,-1
 40 313 l 2,45,46
 40 357 40 357 63 380.5 c 128,-1,47
 86 404 86 404 124 404 c 2,48,-1
 171 404 l 2,49,50
 209 404 209 404 231.5 380.5 c 128,-1,51
 254 357 254 357 254 313 c 2,52,-1
 254 274 l 2,53,54
 254 229 254 229 225 204 c 1,55,56
 254 179 254 179 254 134 c 2,57,-1
 254 91 l 2,58,59
 254 47 254 47 231.5 23.5 c 128,-1,60
 209 0 209 0 171 0 c 2,0,-1
EndSplineSet
EndChar

StartChar: four
Encoding: 52 52 23
Width: 313
GlyphClass: 2
Flags: W
LayerCount: 2
Back
Fore
SplineSet
271 80 m 2,0,-1
 240 80 l 1,1,-1
 240 17 l 2,2,3
 240 10 240 10 236.5 5 c 128,-1,4
 233 0 233 0 225 0 c 2,5,-1
 217 0 l 2,6,7
 208 0 208 0 204.5 5 c 128,-1,8
 201 10 201 10 201 17 c 2,9,-1
 201 80 l 1,10,-1
 45 80 l 2,11,12
 38 80 38 80 33 83.5 c 128,-1,13
 28 87 28 87 28 97 c 2,14,-1
 28 104 l 2,15,16
 28 106 28 106 30 112 c 2,17,-1
 32 116 l 2,18,19
 33 117 33 117 33 118 c 128,-1,20
 33 119 33 119 34 120 c 2,21,-1
 188 392 l 2,22,23
 195 404 195 404 209 404 c 2,24,-1
 225 404 l 2,25,26
 233 404 233 404 236.5 399 c 128,-1,27
 240 394 240 394 240 387 c 2,28,-1
 240 120 l 1,29,-1
 271 120 l 2,30,31
 278 120 278 120 283 116 c 128,-1,32
 288 112 288 112 288 104 c 2,33,-1
 288 97 l 2,34,35
 288 87 288 87 283 83.5 c 128,-1,36
 278 80 278 80 271 80 c 2,0,-1
201 336 m 1,37,-1
 79 120 l 1,38,-1
 201 120 l 1,39,-1
 201 336 l 1,37,-1
EndSplineSet
EndChar

StartChar: five
Encoding: 53 53 24
Width: 284
GlyphClass: 2
Flags: W
LayerCount: 2
Back
Fore
SplineSet
164 0 m 2,0,-1
 122 0 l 2,1,2
 83 0 83 0 60.5 25.5 c 128,-1,3
 38 51 38 51 38 93 c 2,4,-1
 38 116 l 2,5,6
 38 124 38 124 41.5 129 c 128,-1,7
 45 134 45 134 53 134 c 2,8,-1
 61 134 l 2,9,10
 69 134 69 134 73 129 c 128,-1,11
 77 124 77 124 77 116 c 2,12,-1
 77 94 l 2,13,14
 77 41 77 41 122 41 c 2,15,-1
 164 41 l 2,16,17
 209 41 209 41 209 94 c 2,18,-1
 209 168 l 2,19,20
 209 195 209 195 198 207 c 128,-1,21
 187 219 187 219 164 219 c 2,22,-1
 112 219 l 2,23,24
 99 219 99 219 93.5 216 c 128,-1,25
 88 213 88 213 85 208 c 0,26,27
 80 202 80 202 77 195 c 0,28,29
 72 188 72 188 63 188 c 2,30,-1
 53 188 l 2,31,32
 45 188 45 188 41.5 193.5 c 128,-1,33
 38 199 38 199 38 205 c 2,34,-1
 38 387 l 2,35,36
 38 393 38 393 41.5 398.5 c 128,-1,37
 45 404 45 404 53 404 c 2,38,-1
 226 404 l 2,39,40
 242 404 242 404 242 387 c 2,41,-1
 242 381 l 2,42,43
 242 363 242 363 226 363 c 2,44,-1
 77 363 l 1,45,-1
 77 251 l 1,46,47
 86 256 86 256 94 258 c 128,-1,48
 102 260 102 260 112 260 c 2,49,-1
 164 260 l 2,50,51
 202 260 202 260 225 236.5 c 128,-1,52
 248 213 248 213 248 168 c 2,53,-1
 248 93 l 2,54,55
 248 51 248 51 225 25.5 c 128,-1,56
 202 0 202 0 164 0 c 2,0,-1
EndSplineSet
EndChar

StartChar: six
Encoding: 54 54 25
Width: 291
GlyphClass: 2
Flags: W
LayerCount: 2
Back
Fore
SplineSet
169 0 m 2,0,-1
 120 0 l 2,1,2
 82 0 82 0 59 25.5 c 128,-1,3
 36 51 36 51 36 93 c 2,4,-1
 36 312 l 2,5,6
 36 354 36 354 59 379 c 128,-1,7
 82 404 82 404 120 404 c 2,8,-1
 221 404 l 2,9,10
 228 404 228 404 233 400 c 128,-1,11
 238 396 238 396 238 387 c 2,12,-1
 238 381 l 2,13,14
 238 373 238 373 233 368 c 128,-1,15
 228 363 228 363 221 363 c 2,16,-1
 120 363 l 2,17,18
 75 363 75 363 75 311 c 2,19,-1
 75 248 l 1,20,-1
 169 248 l 2,21,22
 209 248 209 248 231.5 222.5 c 128,-1,23
 254 197 254 197 254 155 c 2,24,-1
 254 93 l 2,25,26
 254 51 254 51 231.5 25.5 c 128,-1,27
 209 0 209 0 169 0 c 2,0,-1
215 154 m 2,28,29
 215 206 215 206 169 206 c 2,30,-1
 75 206 l 1,31,-1
 75 94 l 2,32,33
 75 41 75 41 120 41 c 2,34,-1
 169 41 l 2,35,36
 215 41 215 41 215 94 c 2,37,-1
 215 154 l 2,28,29
EndSplineSet
EndChar

StartChar: seven
Encoding: 55 55 26
Width: 223
GlyphClass: 2
Flags: W
LayerCount: 2
Back
Fore
SplineSet
209 369 m 2,0,-1
 91 15 l 2,1,2
 88 6 88 6 83 3 c 128,-1,3
 78 0 78 0 73 0 c 2,4,-1
 67 0 l 2,5,6
 57 0 57 0 54.5 5 c 128,-1,7
 52 10 52 10 53 18 c 2,8,-1
 53 25 l 1,9,-1
 167 363 l 1,10,-1
 27 363 l 2,11,12
 11 363 11 363 11 381 c 2,13,-1
 11 387 l 2,14,15
 11 404 11 404 27 404 c 2,16,-1
 195 404 l 2,17,18
 202 404 202 404 207 400 c 128,-1,19
 212 396 212 396 212 387 c 2,20,-1
 212 382 l 2,21,22
 212 373 212 373 209 369 c 2,0,-1
EndSplineSet
EndChar

StartChar: eight
Encoding: 56 56 27
Width: 297
GlyphClass: 2
Flags: W
LayerCount: 2
Back
Fore
SplineSet
176 0 m 2,0,-1
 118 0 l 2,1,2
 80 0 80 0 56.5 23 c 128,-1,3
 33 46 33 46 33 91 c 2,4,-1
 33 134 l 2,5,6
 33 176 33 176 62 204 c 1,7,8
 33 230 33 230 33 274 c 2,9,-1
 33 313 l 2,10,11
 33 358 33 358 56.5 381 c 128,-1,12
 80 404 80 404 118 404 c 2,13,-1
 176 404 l 2,14,15
 214 404 214 404 237 380.5 c 128,-1,16
 260 357 260 357 260 313 c 2,17,-1
 260 274 l 2,18,19
 260 229 260 229 232 204 c 1,20,21
 260 176 260 176 260 134 c 2,22,-1
 260 91 l 2,23,24
 260 47 260 47 237 23.5 c 128,-1,25
 214 0 214 0 176 0 c 2,0,-1
221 313 m 2,26,27
 221 363 221 363 176 363 c 2,28,-1
 118 363 l 2,29,30
 73 363 73 363 73 313 c 2,31,-1
 73 274 l 2,32,33
 73 223 73 223 118 223 c 2,34,-1
 176 223 l 2,35,36
 221 223 221 223 221 274 c 2,37,-1
 221 313 l 2,26,27
221 133 m 2,38,39
 221 183 221 183 176 183 c 2,40,-1
 118 183 l 2,41,42
 73 183 73 183 73 133 c 2,43,-1
 73 91 l 2,44,45
 73 41 73 41 118 41 c 2,46,-1
 176 41 l 2,47,48
 221 41 221 41 221 91 c 2,49,-1
 221 133 l 2,38,39
EndSplineSet
EndChar

StartChar: nine
Encoding: 57 57 28
Width: 284
GlyphClass: 2
Flags: W
LayerCount: 2
Back
Fore
SplineSet
167 0 m 2,0,-1
 66 0 l 2,1,2
 61 0 61 0 55.5 4 c 128,-1,3
 50 8 50 8 50 17 c 2,4,-1
 50 24 l 2,5,6
 50 32 50 32 55.5 36.5 c 128,-1,7
 61 41 61 41 66 41 c 2,8,-1
 167 41 l 2,9,10
 212 41 212 41 212 94 c 2,11,-1
 212 156 l 1,12,-1
 117 156 l 2,13,14
 79 156 79 156 56 181.5 c 128,-1,15
 33 207 33 207 33 249 c 2,16,-1
 33 312 l 2,17,18
 33 354 33 354 56 379 c 128,-1,19
 79 404 79 404 117 404 c 2,20,-1
 167 404 l 2,21,22
 205 404 205 404 228.5 379 c 128,-1,23
 252 354 252 354 252 312 c 2,24,-1
 252 93 l 2,25,26
 252 51 252 51 228.5 25.5 c 128,-1,27
 205 0 205 0 167 0 c 2,0,-1
212 311 m 2,28,29
 212 363 212 363 167 363 c 2,30,-1
 117 363 l 2,31,32
 72 363 72 363 72 311 c 2,33,-1
 72 250 l 2,34,35
 72 198 72 198 117 198 c 2,36,-1
 212 198 l 1,37,-1
 212 311 l 2,28,29
EndSplineSet
EndChar

StartChar: colon
Encoding: 58 58 29
Width: 110
GlyphClass: 2
Flags: W
LayerCount: 2
Back
Fore
SplineSet
68 257 m 0,0,1
 67 254 67 254 65 252 c 2,2,-1
 64 251 l 1,3,-1
 44 251 l 1,4,-1
 43 252 l 2,5,6
 42 253 42 253 41 254 c 128,-1,7
 40 255 40 255 39 257 c 0,8,9
 36 261 36 261 36 270 c 2,10,-1
 36 325 l 2,11,12
 36 334 36 334 40 339 c 0,13,14
 41 344 41 344 44 344 c 2,15,-1
 64 344 l 2,16,17
 67 344 67 344 68 339 c 0,18,19
 72 334 72 334 72 325 c 2,20,-1
 72 270 l 2,21,22
 72 261 72 261 68 257 c 0,0,1
69 6 m 0,23,24
 68 0 68 0 64 0 c 2,25,-1
 44 0 l 2,26,27
 43 0 43 0 42 1 c 2,28,29
 42 1 42 1 38 7 c 0,30,31
 36 9 36 9 36 18 c 2,32,-1
 36 78 l 2,33,34
 36 84 36 84 39 92 c 0,35,36
 40 97 40 97 44 97 c 2,37,-1
 64 97 l 1,38,-1
 65 96 l 1,39,-1
 70 91 l 2,40,41
 72 89 72 89 72 78 c 2,42,-1
 72 18 l 2,43,44
 72 12 72 12 69 6 c 0,23,24
EndSplineSet
EndChar

StartChar: semicolon
Encoding: 59 59 30
Width: 109
GlyphClass: 2
Flags: W
LayerCount: 2
Back
Fore
SplineSet
68 257 m 0,0,1
 67 254 67 254 65 252 c 2,2,-1
 64 251 l 1,3,-1
 44 251 l 1,4,-1
 43 252 l 2,5,6
 40 255 40 255 39 258 c 0,7,8
 36 261 36 261 36 271 c 2,9,-1
 36 325 l 2,10,11
 36 334 36 334 40 339 c 0,12,13
 41 344 41 344 44 344 c 2,14,-1
 64 344 l 2,15,16
 67 344 67 344 68 339 c 0,17,18
 72 334 72 334 72 325 c 2,19,-1
 72 271 l 2,20,21
 72 262 72 262 68 257 c 0,0,1
71 7 m 0,22,23
 69 -8 69 -8 68 -19 c 128,-1,24
 67 -30 67 -30 66 -38 c 2,25,-1
 65 -50 l 2,26,27
 65 -52 65 -52 64.5 -53 c 128,-1,28
 64 -54 64 -54 64 -55 c 0,29,30
 64 -61 64 -61 60 -66 c 0,31,32
 54 -69 54 -69 52 -69 c 0,33,34
 50 -68 50 -68 47.5 -68 c 128,-1,35
 45 -68 45 -68 43 -66 c 0,36,37
 39 -62 39 -62 39 -53 c 2,38,-1
 37 70 l 2,39,40
 37 75 37 75 38 81 c 128,-1,41
 39 87 39 87 44 87 c 2,42,-1
 64 87 l 2,43,44
 66 87 66 87 69 82 c 2,45,-1
 72 69 l 1,46,47
 75 36 75 36 71 7 c 0,22,23
EndSplineSet
EndChar

StartChar: less
Encoding: 60 60 31
Width: 353
GlyphClass: 2
Flags: W
LayerCount: 2
Back
Fore
SplineSet
315 52 m 0,0,1
 312.400390625 48.533203125 312.400390625 48.533203125 299 53 c 2,2,-1
 34 144 l 2,3,4
 29 145 29 145 24 151 c 0,5,6
 20 155 20 155 20 163 c 2,7,-1
 20 174 l 2,8,9
 20 180 20 180 24 186 c 0,10,11
 29 191 29 191 34 193 c 2,12,-1
 300 296 l 2,13,14
 308 300 308 300 316 295 c 0,15,16
 323 291 323 291 323 280 c 2,17,-1
 323 272 l 2,18,19
 323 258 323 258 312 253 c 2,20,-1
 82 169 l 1,21,-1
 312 94 l 2,22,23
 314 93 314 93 316.5234375 90.83984375 c 0,24,25
 317 89 317 89 319 87 c 0,26,27
 323 83 323 83 323 76 c 2,28,-1
 323 67 l 2,29,30
 323 59 323 59 315 52 c 0,0,1
EndSplineSet
EndChar

StartChar: equal
Encoding: 61 61 32
Width: 383
GlyphClass: 2
Flags: W
LayerCount: 2
Back
Fore
SplineSet
328 208 m 0,0,1
 324 204 324 204 316 204 c 2,2,-1
 58 204 l 2,3,4
 54 204 54 204 46 209 c 0,5,6
 41 212 41 212 41 221 c 2,7,-1
 41 228 l 2,8,9
 41 235 41 235 43 237.5 c 128,-1,10
 45 240 45 240 54 243 c 0,11,12
 56.1376953125 243.65625 56.1376953125 243.65625 58 244 c 2,13,-1
 316 244 l 2,14,15
 324 244 324 244 329 240 c 0,16,17
 334 237 334 237 334 228 c 2,18,-1
 334 221 l 2,19,20
 334 214 334 214 328 208 c 0,0,1
328 82 m 0,21,22
 324 78 324 78 316 78 c 2,23,-1
 58 78 l 2,24,25
 52 78 52 78 46 82 c 0,26,27
 41 87 41 87 41 95 c 2,28,-1
 41 102 l 2,29,30
 41 109 41 109 45 113 c 0,31,32
 50 118 50 118 58 118 c 1,33,-1
 316 118 l 2,34,35
 321 118 321 118 329 113 c 0,36,37
 334 110 334 110 334 102 c 2,38,-1
 334 95 l 2,39,40
 334 88 334 88 328 82 c 0,21,22
EndSplineSet
EndChar

StartChar: greater
Encoding: 62 62 33
Width: 398
GlyphClass: 2
Flags: W
LayerCount: 2
Back
Fore
SplineSet
339 149 m 0,0,1
 333 143 333 143 329 142 c 2,2,-1
 64 51 l 2,3,4
 51 47 51 47 48 50 c 0,5,6
 40 53 40 53 40 65 c 2,7,-1
 40 74 l 2,8,9
 40 81 40 81 44 85 c 0,10,11
 46 87 46 87 47.5 89 c 128,-1,12
 49 91 49 91 51 92 c 2,13,-1
 281 167 l 1,14,-1
 51 251 l 2,15,16
 40 256 40 256 40 270 c 2,17,-1
 40 278 l 2,18,19
 40 289 40 289 47 293 c 0,20,21
 55 298 55 298 63 294 c 2,22,-1
 329 191 l 2,23,24
 333 189 333 189 339 184 c 0,25,26
 343 178 343 178 343 172 c 2,27,-1
 343 161 l 2,28,29
 343 153 343 153 339 149 c 0,0,1
EndSplineSet
EndChar

StartChar: question
Encoding: 63 63 34
Width: 297
GlyphClass: 2
Flags: W
LayerCount: 2
Back
Fore
SplineSet
215 243 m 2,0,-1
 192 222 l 2,1,2
 183 213 183 213 180 209 c 0,3,4
 173 198 173 198 172.5 191.5 c 128,-1,5
 172 185 172 185 172 172 c 2,6,-1
 172 147 l 2,7,8
 172 141 172 141 168 134.5 c 128,-1,9
 164 128 164 128 155 128 c 2,10,-1
 148 128 l 2,11,12
 138 128 138 128 134 134.5 c 128,-1,13
 130 141 130 141 130 147 c 2,14,-1
 130 169 l 2,15,16
 130 198 130 198 138 217 c 0,17,18
 146 233 146 233 160 247 c 128,-1,19
 174 261 174 261 187 273 c 0,20,21
 198 284 198 284 202 293.5 c 128,-1,22
 206 303 206 303 206 314 c 2,23,-1
 206 335 l 2,24,25
 206 389 206 389 158 389 c 2,26,-1
 131 389 l 2,27,28
 84 389 84 389 84 335 c 2,29,-1
 84 306 l 2,30,31
 84 298 84 298 80 292 c 128,-1,32
 76 286 76 286 68 286 c 2,33,-1
 59 286 l 2,34,35
 51 286 51 286 47 292 c 128,-1,36
 43 298 43 298 43 306 c 2,37,-1
 43 336 l 2,38,39
 43 381 43 381 67 407 c 128,-1,40
 91 433 91 433 131 433 c 2,41,-1
 158 433 l 2,42,43
 199 433 199 433 223 407 c 128,-1,44
 247 381 247 381 247 336 c 2,45,-1
 247 313 l 2,46,47
 247 271 247 271 215 243 c 2,0,-1
157 0 m 2,48,-1
 145 0 l 2,49,50
 136 0 136 0 132 6 c 128,-1,51
 128 12 128 12 128 18 c 2,52,-1
 128 77 l 2,53,54
 128 85 128 85 132 91.5 c 128,-1,55
 136 98 136 98 145 98 c 2,56,-1
 157 98 l 2,57,58
 165 98 165 98 169 91.5 c 128,-1,59
 173 85 173 85 173 77 c 2,60,-1
 173 18 l 2,61,62
 173 12 173 12 169 6 c 128,-1,63
 165 0 165 0 157 0 c 2,48,-1
EndSplineSet
EndChar

StartChar: at
Encoding: 64 64 35
Width: 479
GlyphClass: 2
Flags: W
LayerCount: 2
Back
Fore
SplineSet
333 51 m 2,0,-1
 319 51 l 2,1,2
 310 51 310 51 303.5 54.5 c 128,-1,3
 297 58 297 58 291 69 c 1,4,5
 267 52 267 52 233 52 c 0,6,7
 188 52 188 52 162.5 77.5 c 128,-1,8
 137 103 137 103 137 151 c 2,9,-1
 137 217 l 2,10,11
 137 264 137 264 162.5 290 c 128,-1,12
 188 316 188 316 233 316 c 2,13,-1
 315 316 l 2,14,15
 324 316 324 316 328.5 310.5 c 128,-1,16
 333 305 333 305 333 297 c 2,17,-1
 333 94 l 1,18,19
 360 96 360 96 372 110 c 128,-1,20
 384 124 384 124 384 150 c 2,21,-1
 384 306 l 2,22,23
 384 362 384 362 333 362 c 2,24,-1
 214 362 l 2,25,26
 165 362 165 362 129 325 c 0,27,28
 93 289 93 289 93 233 c 2,29,-1
 93 135 l 2,30,31
 93 78 93 78 129 42 c 0,32,33
 164 6 164 6 214 6 c 2,34,-1
 328 6 l 2,35,36
 345 6 345 6 345 -14 c 2,37,-1
 345 -21 l 2,38,39
 345 -40 345 -40 328 -40 c 2,40,-1
 215 -40 l 2,41,42
 147 -40 147 -40 99 7 c 0,43,44
 48 54 48 54 48 136 c 2,45,-1
 48 232 l 2,46,47
 48 313 48 313 99 360 c 0,48,49
 147 407 147 407 215 407 c 2,50,-1
 333 407 l 2,51,52
 378 407 378 407 403.5 379.5 c 128,-1,53
 429 352 429 352 429 307 c 2,54,-1
 429 149 l 2,55,56
 429 104 429 104 403.5 77.5 c 128,-1,57
 378 51 378 51 333 51 c 2,0,-1
296 259 m 2,58,59
 296 280 296 280 275 279 c 2,60,-1
 238 276 l 2,61,62
 210 274 210 274 192.5 261 c 128,-1,63
 175 248 175 248 175 216 c 2,64,-1
 175 151 l 2,65,66
 175 88 175 88 233 88 c 2,67,-1
 234 88 l 2,68,69
 296 88 296 88 296 148 c 2,70,-1
 296 259 l 2,58,59
EndSplineSet
EndChar

StartChar: A
Encoding: 65 65 36
Width: 320
GlyphClass: 2
Flags: W
LayerCount: 2
Back
Fore
SplineSet
284 0 m 2,0,-1
 275 0 l 2,1,2
 267 0 267 0 263 5.5 c 128,-1,3
 259 11 259 11 257 17 c 2,4,-1
 228 106 l 1,5,-1
 90 106 l 1,6,-1
 59 15 l 2,7,8
 57 9 57 9 52.5 4.5 c 128,-1,9
 48 0 48 0 41 0 c 2,10,-1
 34 0 l 2,11,12
 24 0 24 0 20 8 c 128,-1,13
 16 16 16 16 18 23 c 2,14,-1
 134 388 l 2,15,16
 136 390 136 390 137 393 c 128,-1,17
 138 396 138 396 140 398 c 0,18,19
 144 404 144 404 152 404 c 2,20,-1
 165 404 l 2,21,22
 179 404 179 404 184 389 c 2,23,-1
 300 23 l 2,24,25
 302 16 302 16 298 8 c 128,-1,26
 294 0 294 0 284 0 c 2,0,-1
158 330 m 1,27,28
 145 282 145 282 130 233 c 128,-1,29
 115 184 115 184 106 153 c 1,30,-1
 212 153 l 1,31,-1
 158 330 l 1,27,28
EndSplineSet
EndChar

StartChar: B
Encoding: 66 66 37
Width: 316
GlyphClass: 2
Flags: W
LayerCount: 2
Back
Fore
SplineSet
189 0 m 2,0,-1
 61 0 l 2,1,2
 52 0 52 0 47.5 5 c 128,-1,3
 43 10 43 10 43 18 c 2,4,-1
 43 385 l 2,5,6
 43 393 43 393 47 398.5 c 128,-1,7
 51 404 51 404 61 404 c 2,8,-1
 185 404 l 2,9,10
 226 404 226 404 248.5 380.5 c 128,-1,11
 271 357 271 357 271 312 c 2,12,-1
 271 274 l 2,13,14
 271 231 271 231 243 206 c 1,15,16
 275 176 275 176 275 135 c 2,17,-1
 275 92 l 2,18,19
 275 47 275 47 251 23.5 c 128,-1,20
 227 0 227 0 189 0 c 2,0,-1
229 312 m 2,21,22
 229 360 229 360 185 360 c 2,23,-1
 86 360 l 1,24,-1
 86 226 l 1,25,-1
 185 226 l 2,26,27
 205 226 205 226 217 237.5 c 128,-1,28
 229 249 229 249 229 275 c 2,29,-1
 229 312 l 2,21,22
231 135 m 2,30,31
 231 158 231 158 221 170.5 c 128,-1,32
 211 183 211 183 185 183 c 2,33,-1
 86 183 l 1,34,-1
 86 44 l 1,35,-1
 189 44 l 2,36,37
 231 44 231 44 231 92 c 2,38,-1
 231 135 l 2,30,31
EndSplineSet
EndChar

StartChar: C
Encoding: 67 67 38
Width: 317
GlyphClass: 2
Flags: W
LayerCount: 2
Back
Fore
SplineSet
195 0 m 2,0,-1
 124 0 l 2,1,2
 83 0 83 0 60.5 24.5 c 128,-1,3
 38 49 38 49 38 94 c 2,4,-1
 38 310 l 2,5,6
 38 352 38 352 61 378 c 128,-1,7
 84 404 84 404 124 404 c 2,8,-1
 195 404 l 2,9,10
 235 404 235 404 257.5 378 c 128,-1,11
 280 352 280 352 280 310 c 2,12,-1
 280 283 l 2,13,14
 280 276 280 276 276.5 269 c 128,-1,15
 273 262 273 262 263 262 c 2,16,-1
 256 262 l 2,17,18
 246 262 246 262 242 268.5 c 128,-1,19
 238 275 238 275 238 283 c 2,20,-1
 238 310 l 2,21,22
 238 360 238 360 195 360 c 2,23,-1
 124 360 l 2,24,25
 81 360 81 360 81 310 c 2,26,-1
 81 95 l 2,27,28
 81 44 81 44 124 44 c 2,29,-1
 195 44 l 2,30,31
 238 44 238 44 238 95 c 2,32,-1
 238 122 l 2,33,34
 238 141 238 141 256 141 c 2,35,-1
 263 141 l 2,36,37
 272 141 272 141 276 134.5 c 128,-1,38
 280 128 280 128 280 122 c 2,39,-1
 280 94 l 2,40,41
 280 49 280 49 258 24.5 c 128,-1,42
 236 0 236 0 195 0 c 2,0,-1
EndSplineSet
EndChar

StartChar: D
Encoding: 68 68 39
Width: 330
GlyphClass: 2
Flags: W
LayerCount: 2
Back
Fore
SplineSet
197 0 m 2,0,-1
 63 0 l 2,1,2
 55 0 55 0 50.5 5 c 128,-1,3
 46 10 46 10 46 18 c 2,4,-1
 46 385 l 2,5,6
 46 404 46 404 63 404 c 2,7,-1
 197 404 l 2,8,9
 237 404 237 404 259.5 378 c 128,-1,10
 282 352 282 352 282 310 c 2,11,-1
 282 94 l 2,12,13
 282 49 282 49 260 24.5 c 128,-1,14
 238 0 238 0 197 0 c 2,0,-1
240 310 m 2,15,16
 240 360 240 360 197 360 c 2,17,-1
 89 360 l 1,18,-1
 89 44 l 1,19,-1
 197 44 l 2,20,21
 240 44 240 44 240 95 c 2,22,-1
 240 310 l 2,15,16
EndSplineSet
EndChar

StartChar: E
Encoding: 69 69 40
Width: 278
GlyphClass: 2
Flags: W
LayerCount: 2
Back
Fore
SplineSet
222 0 m 2,0,-1
 62 0 l 2,1,2
 54 0 54 0 49.5 5 c 128,-1,3
 45 10 45 10 45 18 c 2,4,-1
 45 385 l 2,5,6
 45 393 45 393 49 398.5 c 128,-1,7
 53 404 53 404 62 404 c 2,8,-1
 222 404 l 2,9,10
 230 404 230 404 234.5 399 c 128,-1,11
 239 394 239 394 239 386 c 2,12,-1
 239 378 l 2,13,14
 239 369 239 369 233 364.5 c 128,-1,15
 227 360 227 360 222 360 c 2,16,-1
 86 360 l 1,17,-1
 86 228 l 1,18,-1
 209 228 l 2,19,20
 214 228 214 228 220 223.5 c 128,-1,21
 226 219 226 219 226 209 c 2,22,-1
 226 202 l 2,23,24
 226 194 226 194 221.5 189 c 128,-1,25
 217 184 217 184 209 184 c 2,26,-1
 86 184 l 1,27,-1
 86 44 l 1,28,-1
 222 44 l 2,29,30
 230 44 230 44 234.5 39 c 128,-1,31
 239 34 239 34 239 26 c 2,32,-1
 239 18 l 2,33,34
 239 9 239 9 233 4.5 c 128,-1,35
 227 0 227 0 222 0 c 2,0,-1
EndSplineSet
EndChar

StartChar: F
Encoding: 70 70 41
Width: 266
GlyphClass: 2
Flags: W
LayerCount: 2
Back
Fore
SplineSet
219 360 m 2,0,-1
 83 360 l 1,1,-1
 83 222 l 1,2,-1
 205 222 l 2,3,4
 210 222 210 222 216 217.5 c 128,-1,5
 222 213 222 213 222 205 c 2,6,-1
 222 198 l 2,7,8
 222 187 222 187 216 183 c 128,-1,9
 210 179 210 179 205 179 c 2,10,-1
 83 179 l 1,11,-1
 83 18 l 2,12,13
 83 12 83 12 79 6 c 128,-1,14
 75 0 75 0 66 0 c 2,15,-1
 59 0 l 2,16,17
 50 0 50 0 45.5 5 c 128,-1,18
 41 10 41 10 41 18 c 2,19,-1
 41 385 l 2,20,21
 41 392 41 392 45.5 398 c 128,-1,22
 50 404 50 404 59 404 c 2,23,-1
 219 404 l 2,24,25
 227 404 227 404 231.5 399 c 128,-1,26
 236 394 236 394 236 386 c 2,27,-1
 236 378 l 2,28,29
 236 369 236 369 230 364.5 c 128,-1,30
 224 360 224 360 219 360 c 2,0,-1
EndSplineSet
EndChar

StartChar: G
Encoding: 71 71 42
Width: 306
GlyphClass: 2
Flags: W
LayerCount: 2
Back
Fore
SplineSet
181 0 m 2,0,-1
 120 0 l 2,1,2
 80 0 80 0 58 24.5 c 128,-1,3
 36 49 36 49 36 94 c 2,4,-1
 36 310 l 2,5,6
 36 353 36 353 58 378.5 c 128,-1,7
 80 404 80 404 120 404 c 2,8,-1
 181 404 l 2,9,10
 221 404 221 404 243 378.5 c 128,-1,11
 265 353 265 353 265 310 c 2,12,-1
 265 283 l 2,13,14
 265 274 265 274 261 268 c 128,-1,15
 257 262 257 262 248 262 c 2,16,-1
 240 262 l 2,17,18
 230 262 230 262 226.5 269 c 128,-1,19
 223 276 223 276 223 283 c 2,20,-1
 223 310 l 2,21,22
 223 360 223 360 181 360 c 2,23,-1
 120 360 l 2,24,25
 78 360 78 360 78 310 c 2,26,-1
 78 95 l 2,27,28
 78 44 78 44 120 44 c 2,29,-1
 181 44 l 2,30,31
 223 44 223 44 223 95 c 2,32,-1
 223 174 l 1,33,-1
 161 174 l 2,34,35
 153 174 153 174 149 179 c 128,-1,36
 145 184 145 184 145 192 c 2,37,-1
 145 199 l 2,38,39
 145 205 145 205 149 211.5 c 128,-1,40
 153 218 153 218 161 218 c 2,41,-1
 242 218 l 2,42,43
 253 218 253 218 259 211 c 128,-1,44
 265 204 265 204 265 193 c 2,45,-1
 265 94 l 2,46,47
 265 49 265 49 243 24.5 c 128,-1,48
 221 0 221 0 181 0 c 2,0,-1
EndSplineSet
EndChar

StartChar: H
Encoding: 72 72 43
Width: 326
GlyphClass: 2
Flags: W
LayerCount: 2
Back
Fore
SplineSet
260 0 m 2,0,-1
 253 0 l 2,1,2
 245 0 245 0 240 5 c 128,-1,3
 235 10 235 10 235 18 c 2,4,-1
 235 184 l 1,5,-1
 85 184 l 1,6,-1
 85 18 l 2,7,8
 85 13 85 13 80.5 6.5 c 128,-1,9
 76 0 76 0 67 0 c 2,10,-1
 59 0 l 2,11,12
 50 0 50 0 45.5 5 c 128,-1,13
 41 10 41 10 41 18 c 2,14,-1
 41 385 l 2,15,16
 41 393 41 393 45.5 398.5 c 128,-1,17
 50 404 50 404 59 404 c 2,18,-1
 67 404 l 2,19,20
 78 404 78 404 81.5 397.5 c 128,-1,21
 85 391 85 391 85 385 c 2,22,-1
 85 228 l 1,23,-1
 235 228 l 1,24,-1
 235 385 l 2,25,26
 235 393 235 393 239 398.5 c 128,-1,27
 243 404 243 404 253 404 c 2,28,-1
 260 404 l 2,29,30
 270 404 270 404 273.5 397.5 c 128,-1,31
 277 391 277 391 277 385 c 2,32,-1
 277 18 l 2,33,34
 277 12 277 12 273 6 c 128,-1,35
 269 0 269 0 260 0 c 2,0,-1
EndSplineSet
EndChar

StartChar: I
Encoding: 73 73 44
Width: 113
GlyphClass: 2
Flags: W
LayerCount: 2
Back
Fore
SplineSet
58 0 m 2,0,-1
 50 0 l 2,1,2
 42 0 42 0 38 6.5 c 128,-1,3
 34 13 34 13 34 19 c 2,4,-1
 34 385 l 2,5,6
 34 393 34 393 37.5 398.5 c 128,-1,7
 41 404 41 404 50 404 c 2,8,-1
 58 404 l 2,9,10
 75 404 75 404 75 385 c 2,11,-1
 75 19 l 2,12,13
 75 0 75 0 58 0 c 2,0,-1
EndSplineSet
EndChar

StartChar: J
Encoding: 74 74 45
Width: 284
GlyphClass: 2
Flags: W
LayerCount: 2
Back
Fore
SplineSet
159 0 m 2,0,-1
 106 0 l 2,1,2
 66 0 66 0 44 24.5 c 128,-1,3
 22 49 22 49 22 94 c 2,4,-1
 22 141 l 2,5,6
 22 147 22 147 26 153.5 c 128,-1,7
 30 160 30 160 38 160 c 2,8,-1
 46 160 l 2,9,10
 63 160 63 160 63 141 c 2,11,-1
 63 95 l 2,12,13
 63 44 63 44 106 44 c 2,14,-1
 159 44 l 2,15,16
 203 44 203 44 203 95 c 2,17,-1
 203 385 l 2,18,19
 203 390 203 390 206.5 397 c 128,-1,20
 210 404 210 404 220 404 c 2,21,-1
 228 404 l 2,22,23
 237 404 237 404 241 398.5 c 128,-1,24
 245 393 245 393 245 386 c 2,25,-1
 245 94 l 2,26,27
 245 49 245 49 222.5 24.5 c 128,-1,28
 200 0 200 0 159 0 c 2,0,-1
EndSplineSet
EndChar

StartChar: K
Encoding: 75 75 46
Width: 310
GlyphClass: 2
Flags: W
LayerCount: 2
Back
Fore
SplineSet
267 0 m 2,0,-1
 260 0 l 2,1,2
 245 0 245 0 241 12 c 2,3,-1
 129 190 l 1,4,-1
 82 127 l 1,5,-1
 82 18 l 2,6,7
 82 13 82 13 77.5 6.5 c 128,-1,8
 73 0 73 0 64 0 c 2,9,-1
 57 0 l 2,10,11
 49 0 49 0 43.5 5 c 128,-1,12
 38 10 38 10 38 18 c 2,13,-1
 38 385 l 2,14,15
 38 393 38 393 42.5 398.5 c 128,-1,16
 47 404 47 404 57 404 c 2,17,-1
 64 404 l 2,18,19
 75 404 75 404 78.5 397.5 c 128,-1,20
 82 391 82 391 82 385 c 2,21,-1
 82 198 l 1,22,-1
 221 392 l 2,23,24
 230 404 230 404 240 404 c 2,25,-1
 251 404 l 2,26,27
 257 404 257 404 260.5 400.5 c 128,-1,28
 264 397 264 397 265.5 392.5 c 128,-1,29
 267 388 267 388 266 383 c 128,-1,30
 265 378 265 378 263 376 c 2,31,-1
 157 227 l 1,32,-1
 281 27 l 2,33,34
 286 19 286 19 283.5 9.5 c 128,-1,35
 281 0 281 0 267 0 c 2,0,-1
EndSplineSet
EndChar

StartChar: L
Encoding: 76 76 47
Width: 265
GlyphClass: 2
Flags: W
LayerCount: 2
Back
Fore
SplineSet
223 0 m 2,0,-1
 56 0 l 2,1,2
 48 0 48 0 43 5 c 128,-1,3
 38 10 38 10 38 18 c 2,4,-1
 38 385 l 2,5,6
 38 392 38 392 42.5 398 c 128,-1,7
 47 404 47 404 56 404 c 2,8,-1
 63 404 l 2,9,10
 74 404 74 404 77.5 397 c 128,-1,11
 81 390 81 390 81 385 c 2,12,-1
 81 45 l 1,13,-1
 223 45 l 2,14,15
 231 45 231 45 235 39 c 128,-1,16
 239 33 239 33 239 27 c 2,17,-1
 239 18 l 2,18,19
 239 10 239 10 234.5 5 c 128,-1,20
 230 0 230 0 223 0 c 2,0,-1
EndSplineSet
EndChar

StartChar: M
Encoding: 77 77 48
Width: 397
GlyphClass: 2
Flags: W
LayerCount: 2
Back
Fore
SplineSet
336 0 m 2,0,-1
 328 0 l 2,1,2
 310 0 310 0 310 18 c 2,3,-1
 310 296 l 1,4,-1
 222 94 l 2,5,6
 217 82 217 82 202 82 c 2,7,-1
 193 82 l 2,8,9
 178 82 178 82 174 94 c 2,10,-1
 85 298 l 1,11,-1
 85 18 l 2,12,13
 85 12 85 12 81 6 c 128,-1,14
 77 0 77 0 68 0 c 2,15,-1
 60 0 l 2,16,17
 41 0 41 0 41 18 c 2,18,-1
 41 385 l 2,19,20
 41 393 41 393 45.5 398.5 c 128,-1,21
 50 404 50 404 60 404 c 2,22,-1
 75 404 l 2,23,24
 88 404 88 404 91 393 c 2,25,-1
 198 149 l 1,26,-1
 303 393 l 2,27,28
 307 404 307 404 320 404 c 2,29,-1
 336 404 l 2,30,31
 346 404 346 404 349.5 397.5 c 128,-1,32
 353 391 353 391 353 385 c 2,33,-1
 353 18 l 2,34,35
 353 12 353 12 349 6 c 128,-1,36
 345 0 345 0 336 0 c 2,0,-1
EndSplineSet
EndChar

StartChar: N
Encoding: 78 78 49
Width: 327
GlyphClass: 2
Flags: W
LayerCount: 2
Back
Fore
SplineSet
267 0 m 2,0,-1
 261 0 l 2,1,2
 250 0 250 0 243 11 c 2,3,-1
 85 302 l 1,4,-1
 85 18 l 2,5,6
 85 13 85 13 80.5 6.5 c 128,-1,7
 76 0 76 0 67 0 c 2,8,-1
 60 0 l 2,9,10
 50 0 50 0 45.5 5 c 128,-1,11
 41 10 41 10 41 18 c 2,12,-1
 41 385 l 2,13,14
 41 393 41 393 45.5 398.5 c 128,-1,15
 50 404 50 404 60 404 c 2,16,-1
 67 404 l 2,17,18
 74 404 74 404 77.5 400.5 c 128,-1,19
 81 397 81 397 81 395 c 2,20,-1
 242 104 l 1,21,-1
 242 385 l 2,22,23
 242 391 242 391 245.5 397.5 c 128,-1,24
 249 404 249 404 259 404 c 2,25,-1
 267 404 l 2,26,27
 277 404 277 404 280.5 397.5 c 128,-1,28
 284 391 284 391 284 385 c 2,29,-1
 284 18 l 2,30,31
 284 12 284 12 280 6 c 128,-1,32
 276 0 276 0 267 0 c 2,0,-1
EndSplineSet
EndChar

StartChar: O
Encoding: 79 79 50
Width: 313
GlyphClass: 2
Flags: W
LayerCount: 2
Back
Fore
SplineSet
189 0 m 2,0,-1
 121 0 l 2,1,2
 81 0 81 0 58.5 24.5 c 128,-1,3
 36 49 36 49 36 94 c 2,4,-1
 36 310 l 2,5,6
 36 352 36 352 58.5 378 c 128,-1,7
 81 404 81 404 121 404 c 2,8,-1
 189 404 l 2,9,10
 229 404 229 404 252 378 c 128,-1,11
 275 352 275 352 275 310 c 2,12,-1
 275 94 l 2,13,14
 275 49 275 49 252.5 24.5 c 128,-1,15
 230 0 230 0 189 0 c 2,0,-1
232 310 m 2,16,17
 232 360 232 360 189 360 c 2,18,-1
 121 360 l 2,19,20
 78 360 78 360 78 310 c 2,21,-1
 78 95 l 2,22,23
 78 44 78 44 121 44 c 2,24,-1
 189 44 l 2,25,26
 232 44 232 44 232 95 c 2,27,-1
 232 310 l 2,16,17
EndSplineSet
EndChar

StartChar: P
Encoding: 80 80 51
Width: 303
GlyphClass: 2
Flags: W
LayerCount: 2
Back
Fore
SplineSet
181 145 m 2,0,-1
 84 145 l 1,1,-1
 84 18 l 2,2,3
 84 12 84 12 80 6 c 128,-1,4
 76 0 76 0 67 0 c 2,5,-1
 59 0 l 2,6,7
 50 0 50 0 45.5 5 c 128,-1,8
 41 10 41 10 41 18 c 2,9,-1
 41 385 l 2,10,11
 41 393 41 393 45.5 398.5 c 128,-1,12
 50 404 50 404 59 404 c 2,13,-1
 181 404 l 2,14,15
 221 404 221 404 243 378.5 c 128,-1,16
 265 353 265 353 265 310 c 2,17,-1
 265 239 l 2,18,19
 265 197 265 197 243 171 c 128,-1,20
 221 145 221 145 181 145 c 2,0,-1
224 310 m 2,21,22
 224 360 224 360 181 360 c 2,23,-1
 84 360 l 1,24,-1
 84 190 l 1,25,-1
 181 190 l 2,26,27
 201 190 201 190 212.5 201.5 c 128,-1,28
 224 213 224 213 224 240 c 2,29,-1
 224 310 l 2,21,22
EndSplineSet
EndChar

StartChar: Q
Encoding: 81 81 52
Width: 326
GlyphClass: 2
Flags: W
LayerCount: 2
Back
Fore
SplineSet
220 -2 m 1,0,-1
 250 -57 l 2,1,2
 252 -62 252 -62 251.5 -73 c 128,-1,3
 251 -84 251 -84 237 -84 c 2,4,-1
 228 -84 l 2,5,6
 221 -84 221 -84 216.5 -80.5 c 128,-1,7
 212 -77 212 -77 209 -73 c 2,8,-1
 171 -6 l 1,9,-1
 130 -6 l 2,10,11
 90 -6 90 -6 67 20 c 128,-1,12
 44 46 44 46 44 90 c 2,13,-1
 44 310 l 2,14,15
 44 352 44 352 67 378 c 128,-1,16
 90 404 90 404 130 404 c 2,17,-1
 198 404 l 2,18,19
 238 404 238 404 260.5 378 c 128,-1,20
 283 352 283 352 283 310 c 2,21,-1
 283 90 l 2,22,23
 283 55 283 55 266.5 31.5 c 128,-1,24
 250 8 250 8 220 -2 c 1,0,-1
241 309 m 2,25,26
 241 359 241 359 198 359 c 2,27,-1
 130 359 l 2,28,29
 86 359 86 359 86 309 c 2,30,-1
 86 91 l 2,31,32
 86 40 86 40 130 40 c 2,33,-1
 198 40 l 2,34,35
 241 40 241 40 241 91 c 2,36,-1
 241 309 l 2,25,26
EndSplineSet
EndChar

StartChar: R
Encoding: 82 82 53
Width: 302
GlyphClass: 2
Flags: W
LayerCount: 2
Back
Fore
SplineSet
255 0 m 2,0,-1
 244 0 l 2,1,2
 232 0 232 0 227 11 c 2,3,-1
 164 158 l 1,4,-1
 82 158 l 1,5,-1
 82 18 l 2,6,7
 82 9 82 9 76.5 4.5 c 128,-1,8
 71 0 71 0 63 0 c 2,9,-1
 57 0 l 2,10,11
 51 0 51 0 44.5 3.5 c 128,-1,12
 38 7 38 7 38 18 c 2,13,-1
 38 386 l 2,14,15
 38 395 38 395 43.5 399.5 c 128,-1,16
 49 404 49 404 57 404 c 2,17,-1
 177 404 l 2,18,19
 218 404 218 404 240.5 379.5 c 128,-1,20
 263 355 263 355 263 310 c 2,21,-1
 263 253 l 2,22,23
 263 219 263 219 249.5 197.5 c 128,-1,24
 236 176 236 176 207 163 c 1,25,-1
 268 25 l 2,26,27
 269 22 269 22 270 18 c 128,-1,28
 271 14 271 14 270 10 c 128,-1,29
 269 6 269 6 265.5 3 c 128,-1,30
 262 0 262 0 255 0 c 2,0,-1
221 310 m 2,31,32
 221 361 221 361 177 361 c 2,33,-1
 82 361 l 1,34,-1
 82 203 l 1,35,-1
 177 203 l 2,36,37
 221 203 221 203 221 253 c 2,38,-1
 221 310 l 2,31,32
EndSplineSet
EndChar

StartChar: S
Encoding: 83 83 54
Width: 303
GlyphClass: 2
Flags: W
LayerCount: 2
Back
Fore
SplineSet
183 0 m 2,0,-1
 118 0 l 2,1,2
 77 0 77 0 54.5 24.5 c 128,-1,3
 32 49 32 49 32 94 c 2,4,-1
 32 117 l 2,5,6
 32 137 32 137 49 137 c 2,7,-1
 58 137 l 2,8,9
 67 137 67 137 71 131 c 128,-1,10
 75 125 75 125 75 117 c 2,11,-1
 75 95 l 2,12,13
 75 44 75 44 118 44 c 2,14,-1
 183 44 l 2,15,16
 226 44 226 44 226 95 c 2,17,-1
 226 123 l 2,18,19
 226 142 226 142 210.5 156 c 128,-1,20
 195 170 195 170 168 176 c 0,21,22
 148 181 148 181 124.5 187 c 128,-1,23
 101 193 101 193 80.5 203.5 c 128,-1,24
 60 214 60 214 46 231 c 128,-1,25
 32 248 32 248 32 275 c 2,26,-1
 32 310 l 2,27,28
 32 352 32 352 55 378 c 128,-1,29
 78 404 78 404 118 404 c 2,30,-1
 183 404 l 2,31,32
 223 404 223 404 245.5 378 c 128,-1,33
 268 352 268 352 268 310 c 2,34,-1
 268 294 l 2,35,36
 268 286 268 286 264 279.5 c 128,-1,37
 260 273 260 273 251 273 c 2,38,-1
 244 273 l 2,39,40
 226 273 226 273 226 294 c 2,41,-1
 226 310 l 2,42,43
 226 360 226 360 183 360 c 2,44,-1
 118 360 l 2,45,46
 75 360 75 360 75 310 c 2,47,-1
 75 276 l 2,48,49
 75 262 75 262 87 249.5 c 128,-1,50
 99 237 99 237 132 230 c 0,51,52
 155 225 155 225 177 219.5 c 128,-1,53
 199 214 199 214 220 202 c 0,54,55
 240 191 240 191 254 172.5 c 128,-1,56
 268 154 268 154 268 125 c 2,57,-1
 268 94 l 2,58,59
 268 49 268 49 246 24.5 c 128,-1,60
 224 0 224 0 183 0 c 2,0,-1
EndSplineSet
EndChar

StartChar: T
Encoding: 84 84 55
Width: 259
GlyphClass: 2
Flags: W
LayerCount: 2
Back
Fore
SplineSet
226 360 m 2,0,-1
 151 360 l 1,1,-1
 151 18 l 2,2,3
 151 13 151 13 146.5 6.5 c 128,-1,4
 142 0 142 0 133 0 c 2,5,-1
 127 0 l 2,6,7
 118 0 118 0 113.5 6.5 c 128,-1,8
 109 13 109 13 109 18 c 2,9,-1
 109 360 l 1,10,-1
 34 360 l 2,11,12
 29 360 29 360 22.5 364 c 128,-1,13
 16 368 16 368 16 378 c 2,14,-1
 16 386 l 2,15,16
 16 395 16 395 21.5 399.5 c 128,-1,17
 27 404 27 404 34 404 c 2,18,-1
 226 404 l 2,19,20
 235 404 235 404 239 398.5 c 128,-1,21
 243 393 243 393 243 386 c 2,22,-1
 243 378 l 2,23,24
 243 370 243 370 238.5 365 c 128,-1,25
 234 360 234 360 226 360 c 2,0,-1
EndSplineSet
EndChar

StartChar: U
Encoding: 85 85 56
Width: 310
GlyphClass: 2
Flags: W
LayerCount: 2
Back
Fore
SplineSet
185 0 m 2,0,-1
 124 0 l 2,1,2
 84 0 84 0 61.5 24.5 c 128,-1,3
 39 49 39 49 39 94 c 2,4,-1
 39 385 l 2,5,6
 39 390 39 390 42.5 397 c 128,-1,7
 46 404 46 404 57 404 c 2,8,-1
 63 404 l 2,9,10
 74 404 74 404 77.5 397 c 128,-1,11
 81 390 81 390 81 385 c 2,12,-1
 81 95 l 2,13,14
 81 44 81 44 124 44 c 2,15,-1
 185 44 l 2,16,17
 227 44 227 44 227 95 c 2,18,-1
 227 385 l 2,19,20
 227 393 227 393 231.5 398.5 c 128,-1,21
 236 404 236 404 245 404 c 2,22,-1
 253 404 l 2,23,24
 262 404 262 404 266 398.5 c 128,-1,25
 270 393 270 393 270 386 c 2,26,-1
 270 94 l 2,27,28
 270 49 270 49 247.5 24.5 c 128,-1,29
 225 0 225 0 185 0 c 2,0,-1
EndSplineSet
EndChar

StartChar: V
Encoding: 86 86 57
Width: 302
GlyphClass: 2
Flags: W
LayerCount: 2
Back
Fore
SplineSet
175 14 m 2,0,1
 172 9 172 9 168.5 4.5 c 128,-1,2
 165 0 165 0 158 0 c 2,3,-1
 144 0 l 2,4,5
 133 0 133 0 128 11 c 0,6,7
 126 15 126 15 126 16 c 2,8,-1
 20 382 l 2,9,10
 18 387 18 387 20.5 395.5 c 128,-1,11
 23 404 23 404 35 404 c 2,12,-1
 44 404 l 2,13,14
 54 404 54 404 59 393 c 0,15,16
 61 389 61 389 61 388 c 2,17,-1
 151 85 l 1,18,-1
 240 388 l 2,19,20
 242 391 242 391 242.5 393.5 c 128,-1,21
 243 396 243 396 245 398 c 256,22,23
 247 400 247 400 249.5 402 c 128,-1,24
 252 404 252 404 257 404 c 2,25,-1
 267 404 l 2,26,27
 278 404 278 404 280.5 395.5 c 128,-1,28
 283 387 283 387 281 382 c 2,29,-1
 175 14 l 2,0,1
EndSplineSet
EndChar

StartChar: W
Encoding: 87 87 58
Width: 486
GlyphClass: 2
Flags: W
LayerCount: 2
Back
Fore
SplineSet
382 16 m 2,0,1
 378 0 378 0 363 0 c 2,2,-1
 348 0 l 2,3,4
 332 0 332 0 328 15 c 2,5,-1
 245 317 l 1,6,-1
 162 15 l 2,7,8
 160 10 160 10 155.5 5 c 128,-1,9
 151 0 151 0 143 0 c 2,10,-1
 128 0 l 2,11,12
 120 0 120 0 114.5 3 c 128,-1,13
 109 6 109 6 107 16 c 2,14,-1
 23 381 l 2,15,16
 21 392 21 392 27.5 398 c 128,-1,17
 34 404 34 404 42 404 c 2,18,-1
 49 404 l 2,19,20
 58 404 58 404 62.5 399 c 128,-1,21
 67 394 67 394 69 387 c 2,22,-1
 136 89 l 1,23,-1
 219 389 l 2,24,25
 222 395 222 395 226.5 399.5 c 128,-1,26
 231 404 231 404 239 404 c 2,27,-1
 250 404 l 2,28,29
 258 404 258 404 262.5 399 c 128,-1,30
 267 394 267 394 269 389 c 2,31,-1
 353 87 l 1,32,-1
 421 388 l 2,33,34
 422 393 422 393 426.5 398.5 c 128,-1,35
 431 404 431 404 441 404 c 2,36,-1
 449 404 l 2,37,38
 463 404 463 404 465 395.5 c 128,-1,39
 467 387 467 387 465 382 c 2,40,-1
 382 16 l 2,0,1
EndSplineSet
EndChar

StartChar: X
Encoding: 88 88 59
Width: 297
GlyphClass: 2
Flags: W
LayerCount: 2
Back
Fore
SplineSet
277 18 m 2,0,1
 277 10 277 10 274.5 5 c 128,-1,2
 272 0 272 0 262 0 c 2,3,-1
 253 0 l 2,4,5
 250 0 250 0 244.5 2.5 c 128,-1,6
 239 5 239 5 234 10 c 2,7,-1
 149 173 l 1,8,-1
 64 10 l 2,9,10
 59 5 59 5 53.5 2.5 c 128,-1,11
 48 0 48 0 45 0 c 2,12,-1
 36 0 l 2,13,14
 25 0 25 0 21.5 9 c 128,-1,15
 18 18 18 18 23 27 c 2,16,-1
 123 213 l 1,17,-1
 29 377 l 2,18,19
 25 386 25 386 26.5 395 c 128,-1,20
 28 404 28 404 43 404 c 2,21,-1
 51 404 l 2,22,23
 62 404 62 404 71 391 c 2,24,-1
 149 253 l 1,25,-1
 228 391 l 2,26,27
 232 396 232 396 235.5 400 c 128,-1,28
 239 404 239 404 246 404 c 2,29,-1
 255 404 l 2,30,31
 269 404 269 404 271 395 c 128,-1,32
 273 386 273 386 268 377 c 2,33,-1
 175 213 l 1,34,-1
 277 24 l 1,35,-1
 277 18 l 2,0,1
EndSplineSet
EndChar

StartChar: Y
Encoding: 89 89 60
Width: 296
GlyphClass: 2
Flags: W
LayerCount: 2
Back
Fore
SplineSet
169 155 m 1,0,-1
 169 18 l 2,1,2
 169 10 169 10 164 5 c 128,-1,3
 159 0 159 0 151 0 c 2,4,-1
 144 0 l 2,5,6
 135 0 135 0 131 6 c 128,-1,7
 127 12 127 12 127 18 c 2,8,-1
 127 155 l 1,9,-1
 20 378 l 2,10,11
 17 384 17 384 18.5 394 c 128,-1,12
 20 404 20 404 34 404 c 2,13,-1
 44 404 l 2,14,15
 52 404 52 404 56 399.5 c 128,-1,16
 60 395 60 395 63 391 c 2,17,-1
 148 209 l 1,18,-1
 234 391 l 2,19,20
 236 396 236 396 240 399 c 0,21,22
 243 404 243 404 253 404 c 2,23,-1
 261 404 l 2,24,25
 275 404 275 404 276.5 395 c 128,-1,26
 278 386 278 386 276 379 c 2,27,-1
 169 155 l 1,0,-1
EndSplineSet
EndChar

StartChar: Z
Encoding: 90 90 61
Width: 279
GlyphClass: 2
Flags: W
LayerCount: 2
Back
Fore
SplineSet
239 0 m 2,0,-1
 36 0 l 2,1,2
 31 0 31 0 25 4.5 c 128,-1,3
 19 9 19 9 19 18 c 2,4,-1
 19 29 l 2,5,6
 19 33 19 33 22 41 c 2,7,-1
 198 360 l 1,8,-1
 42 360 l 2,9,10
 36 360 36 360 30 364 c 128,-1,11
 24 368 24 368 24 378 c 2,12,-1
 24 386 l 2,13,14
 24 395 24 395 29.5 399.5 c 128,-1,15
 35 404 35 404 42 404 c 2,16,-1
 233 404 l 2,17,18
 241 404 241 404 246 399 c 128,-1,19
 251 394 251 394 251 386 c 2,20,-1
 251 375 l 2,21,22
 251 371 251 371 249 363 c 2,23,-1
 72 44 l 1,24,-1
 239 44 l 2,25,26
 246 44 246 44 251.5 39.5 c 128,-1,27
 257 35 257 35 257 26 c 2,28,-1
 257 18 l 2,29,30
 257 7 257 7 250.5 3.5 c 128,-1,31
 244 0 244 0 239 0 c 2,0,-1
EndSplineSet
EndChar

StartChar: bracketleft
Encoding: 91 91 62
Width: 153
GlyphClass: 2
Flags: W
LayerCount: 2
Back
Fore
SplineSet
111 -64 m 0,0,1
 108 -69 108 -69 102 -69 c 2,2,-1
 49 -69 l 2,3,4
 41 -69 41 -69 38 -64 c 128,-1,5
 35 -59 35 -59 35 -51 c 2,6,-1
 35 415 l 2,7,8
 35 421 35 421 38 428 c 128,-1,9
 41 435 41 435 49 435 c 2,10,-1
 102 435 l 2,11,12
 108 435 108 435 113 429 c 0,13,14
 116 424 116 424 116 416 c 2,15,-1
 116 410 l 2,16,17
 116 401 116 401 111 396 c 0,18,19
 108 391 108 391 102 391 c 2,20,-1
 67 391 l 1,21,-1
 67 -26 l 1,22,-1
 102 -26 l 2,23,24
 107 -26 107 -26 109 -27.5 c 128,-1,25
 111 -29 111 -29 113 -31 c 0,26,27
 116 -39 116 -39 116 -45 c 2,28,-1
 116 -52 l 2,29,30
 116 -59 116 -59 111 -64 c 0,0,1
EndSplineSet
EndChar

StartChar: backslash
Encoding: 92 92 63
Width: 220
GlyphClass: 2
Flags: W
LayerCount: 2
Back
Fore
SplineSet
190 -20 m 0,0,1
 187 -28 187 -28 176 -28 c 2,2,-1
 171 -28 l 2,3,4
 163 -28 163 -28 160 -23 c 0,5,6
 156 -19 156 -19 155 -17.5 c 128,-1,7
 154 -16 154 -16 153 -14 c 2,8,-1
 27 416 l 2,9,10
 25 422 25 422 27 432 c 0,11,12
 28 441 28 441 40 441 c 2,13,-1
 48 441 l 2,14,15
 59 441 59 441 64 427 c 2,16,-1
 191 -4 l 2,17,18
 194 -14 194 -14 190 -20 c 0,0,1
EndSplineSet
EndChar

StartChar: bracketright
Encoding: 93 93 64
Width: 154
GlyphClass: 2
Flags: W
LayerCount: 2
Back
Fore
SplineSet
110 -63 m 0,0,1
 108 -69 108 -69 101 -69 c 2,2,-1
 48 -69 l 2,3,4
 42 -69 42 -69 38 -65 c 0,5,6
 33 -60 33 -60 33 -52 c 2,7,-1
 33 -45 l 2,8,9
 33 -37 33 -37 37 -31 c 0,10,11
 42 -26 42 -26 48 -26 c 2,12,-1
 81 -26 l 1,13,-1
 81 391 l 1,14,-1
 48 391 l 2,15,16
 41 391 41 391 38 396 c 0,17,18
 33 401 33 401 33 410 c 2,19,-1
 33 416 l 2,20,21
 33 423 33 423 37 429 c 256,22,23
 41 435 41 435 48 435 c 2,24,-1
 101 435 l 2,25,26
 110 435 110 435 111 428 c 0,27,28
 114 419 114 419 114 415 c 2,29,-1
 114 -51 l 2,30,31
 114 -56 114 -56 110 -63 c 0,0,1
EndSplineSet
EndChar

StartChar: asciicircum
Encoding: 94 94 65
Width: 290
GlyphClass: 2
Flags: W
LayerCount: 2
Back
Fore
SplineSet
229 222 m 2,0,-1
 223 222 l 2,1,2
 218 222 218 222 215 225 c 0,3,4
 211 229 211 229 207 231 c 2,5,-1
 138 373 l 1,6,-1
 71 231 l 1,7,8
 62 222 62 222 53 222 c 2,9,-1
 49 222 l 2,10,11
 39 222 39 222 34 229 c 0,12,13
 30 237 30 237 34 246 c 2,14,-1
 111 408 l 2,15,16
 118 415 118 415 121 419 c 0,17,18
 125 421 125 421 132 421 c 2,19,-1
 144 421 l 2,20,21
 148 421 148 421 156 418 c 0,22,23
 162 416 162 416 165 409 c 2,24,-1
 243 246 l 2,25,26
 249 235 249 235 244 230 c 0,27,28
 239 222 239 222 229 222 c 2,0,-1
EndSplineSet
EndChar

StartChar: underscore
Encoding: 95 95 66
Width: 225
GlyphClass: 2
Flags: W
LayerCount: 2
Back
Fore
SplineSet
199 -64 m 0,0,1
 197 -68 197 -68 187 -68 c 2,2,-1
 39 -68 l 2,3,4
 29 -68 29 -68 27 -64 c 0,5,6
 22 -61 22 -61 22 -60 c 2,7,-1
 22 -35 l 1,8,9
 22 -35 22 -35 27 -32 c 0,10,11
 28 -29 28 -29 39 -29 c 2,12,-1
 187 -29 l 2,13,14
 196 -29 196 -29 199 -32 c 0,15,16
 204 -35 204 -35 204 -35 c 1,17,-1
 204 -60 l 2,18,19
 204 -61 204 -61 199 -64 c 0,0,1
EndSplineSet
EndChar

StartChar: grave
Encoding: 96 96 67
Width: 139
GlyphClass: 2
Flags: W
LayerCount: 2
Back
Fore
SplineSet
91 348 m 2,0,-1
 88 348 l 2,1,2
 81 348 81 348 75 356 c 2,3,-1
 41 404 l 2,4,5
 35 413 35 413 39 420 c 128,-1,6
 43 427 43 427 50 427 c 2,7,-1
 60 427 l 2,8,9
 71 427 71 427 74 418 c 2,10,-1
 101 369 l 2,11,12
 105 361 105 361 102.5 354.5 c 128,-1,13
 100 348 100 348 91 348 c 2,0,-1
EndSplineSet
EndChar

StartChar: a
Encoding: 97 97 68
Width: 255
GlyphClass: 2
Flags: W
LayerCount: 2
Back
Fore
SplineSet
204 0 m 2,0,-1
 198 0 l 2,1,2
 188 0 188 0 183 11 c 1,3,4
 161 0 161 0 140 0 c 2,5,-1
 104 0 l 2,6,7
 68 0 68 0 47.5 23 c 128,-1,8
 27 46 27 46 27 84 c 2,9,-1
 27 210 l 2,10,11
 27 248 27 248 47.5 271 c 128,-1,12
 68 294 68 294 104 294 c 2,13,-1
 204 294 l 2,14,15
 220 294 220 294 220 278 c 2,16,-1
 220 17 l 2,17,18
 220 0 220 0 204 0 c 2,0,-1
164 255 m 0,19,20
 163 255 163 255 154 255 c 128,-1,21
 145 255 145 255 134 255 c 128,-1,22
 123 255 123 255 114 255 c 128,-1,23
 105 255 105 255 104 255 c 0,24,25
 64 255 64 255 64 210 c 2,26,-1
 64 85 l 2,27,28
 64 39 64 39 104 39 c 2,29,-1
 139 39 l 2,30,31
 183 39 183 39 183 82 c 0,32,33
 183 148 183 148 183.5 178 c 128,-1,34
 184 208 184 208 184 219 c 0,35,36
 184 231 184 231 182.5 242 c 128,-1,37
 181 253 181 253 164 255 c 0,19,20
EndSplineSet
EndChar

StartChar: b
Encoding: 98 98 69
Width: 262
GlyphClass: 2
Flags: W
LayerCount: 2
Back
Fore
SplineSet
149 0 m 2,0,-1
 48 0 l 2,1,2
 40 0 40 0 36.5 6 c 128,-1,3
 33 12 33 12 33 17 c 2,4,-1
 33 388 l 2,5,6
 33 394 33 394 36.5 399.5 c 128,-1,7
 40 405 40 405 48 405 c 2,8,-1
 55 405 l 2,9,10
 70 405 70 405 70 388 c 2,11,-1
 70 295 l 1,12,13
 82 302 82 302 92 304.5 c 128,-1,14
 102 307 102 307 113 307 c 2,15,-1
 149 307 l 2,16,17
 184 307 184 307 205 283 c 128,-1,18
 226 259 226 259 226 220 c 2,19,-1
 226 87 l 2,20,21
 226 46 226 46 205 23 c 128,-1,22
 184 0 184 0 149 0 c 2,0,-1
188 219 m 2,23,24
 188 266 188 266 149 266 c 2,25,-1
 113 266 l 2,26,27
 70 266 70 266 70 222 c 2,28,-1
 70 41 l 1,29,-1
 149 41 l 2,30,31
 188 41 188 41 188 88 c 2,32,-1
 188 219 l 2,23,24
EndSplineSet
EndChar

StartChar: c
Encoding: 99 99 70
Width: 208
GlyphClass: 2
Flags: W
LayerCount: 2
Back
Fore
SplineSet
168 0 m 2,0,-1
 102 0 l 2,1,2
 68 0 68 0 47.5 23 c 128,-1,3
 27 46 27 46 27 84 c 2,4,-1
 27 210 l 2,5,6
 27 248 27 248 47.5 271 c 128,-1,7
 68 294 68 294 102 294 c 2,8,-1
 168 294 l 2,9,10
 183 294 183 294 183 278 c 2,11,-1
 183 271 l 2,12,13
 183 263 183 263 178 259 c 128,-1,14
 173 255 173 255 168 255 c 2,15,-1
 102 255 l 2,16,17
 64 255 64 255 64 210 c 2,18,-1
 64 85 l 2,19,20
 64 39 64 39 102 39 c 2,21,-1
 168 39 l 2,22,23
 183 39 183 39 183 23 c 2,24,-1
 183 16 l 2,25,26
 183 8 183 8 178 4 c 128,-1,27
 173 0 173 0 168 0 c 2,0,-1
EndSplineSet
EndChar

StartChar: d
Encoding: 100 100 71
Width: 261
GlyphClass: 2
Flags: W
LayerCount: 2
Back
Fore
SplineSet
204 0 m 2,0,-1
 198 0 l 2,1,2
 192 0 192 0 189 2 c 128,-1,3
 186 4 186 4 183 12 c 1,4,5
 172 5 172 5 161.5 2.5 c 128,-1,6
 151 0 151 0 140 0 c 2,7,-1
 104 0 l 2,8,9
 68 0 68 0 47.5 22.5 c 128,-1,10
 27 45 27 45 27 87 c 2,11,-1
 27 215 l 2,12,13
 27 256 27 256 47.5 278.5 c 128,-1,14
 68 301 68 301 104 301 c 2,15,-1
 140 301 l 2,16,17
 151 301 151 301 161 298.5 c 128,-1,18
 171 296 171 296 183 289 c 1,19,-1
 183 388 l 2,20,21
 183 394 183 394 186 399.5 c 128,-1,22
 189 405 189 405 198 405 c 2,23,-1
 204 405 l 2,24,25
 220 405 220 405 220 388 c 2,26,-1
 220 17 l 2,27,28
 220 0 220 0 204 0 c 2,0,-1
183 217 m 2,29,30
 183 261 183 261 139 261 c 2,31,-1
 104 261 l 2,32,33
 64 261 64 261 64 215 c 2,34,-1
 64 88 l 2,35,36
 64 41 64 41 104 41 c 2,37,-1
 139 41 l 2,38,39
 183 41 183 41 183 84 c 2,40,-1
 183 217 l 2,29,30
EndSplineSet
EndChar

StartChar: e
Encoding: 101 101 72
Width: 256
GlyphClass: 2
Flags: W
LayerCount: 2
Back
Fore
SplineSet
209 125 m 2,0,-1
 64 125 l 1,1,-1
 64 85 l 2,2,3
 64 39 64 39 104 39 c 2,4,-1
 205 39 l 2,5,6
 221 39 221 39 221 23 c 2,7,-1
 221 16 l 2,8,9
 221 8 221 8 215.5 4 c 128,-1,10
 210 0 210 0 205 0 c 2,11,-1
 104 0 l 2,12,13
 68 0 68 0 47.5 23 c 128,-1,14
 27 46 27 46 27 84 c 2,15,-1
 27 210 l 2,16,17
 27 248 27 248 47.5 271 c 128,-1,18
 68 294 68 294 104 294 c 2,19,-1
 147 294 l 2,20,21
 184 294 184 294 204 271 c 128,-1,22
 224 248 224 248 224 210 c 2,23,-1
 224 143 l 2,24,25
 224 137 224 137 220.5 131 c 128,-1,26
 217 125 217 125 209 125 c 2,0,-1
187 210 m 2,27,28
 187 255 187 255 147 255 c 2,29,-1
 104 255 l 2,30,31
 64 255 64 255 64 210 c 2,32,-1
 64 164 l 1,33,-1
 187 164 l 1,34,-1
 187 210 l 2,27,28
EndSplineSet
EndChar

StartChar: f
Encoding: 102 102 73
Width: 172
GlyphClass: 2
Flags: W
LayerCount: 2
Back
Fore
SplineSet
132 261 m 2,0,-1
 97 261 l 1,1,-1
 97 17 l 2,2,3
 97 12 97 12 93.5 6 c 128,-1,4
 90 0 90 0 83 0 c 2,5,-1
 77 0 l 2,6,7
 69 0 69 0 66 5.5 c 128,-1,8
 63 11 63 11 63 17 c 2,9,-1
 63 261 l 1,10,-1
 38 261 l 2,11,12
 33 261 33 261 28 265.5 c 128,-1,13
 23 270 23 270 23 277 c 2,14,-1
 23 284 l 2,15,16
 23 301 23 301 38 301 c 2,17,-1
 63 301 l 1,18,-1
 63 320 l 2,19,20
 63 405 63 405 125 405 c 2,21,-1
 132 405 l 2,22,23
 137 405 137 405 142 401 c 128,-1,24
 147 397 147 397 147 389 c 2,25,-1
 147 383 l 2,26,27
 147 364 147 364 132 364 c 2,28,-1
 125 364 l 2,29,30
 111 364 111 364 104 354.5 c 128,-1,31
 97 345 97 345 97 319 c 2,32,-1
 97 301 l 1,33,-1
 132 301 l 2,34,35
 147 301 147 301 147 284 c 2,36,-1
 147 277 l 2,37,38
 147 270 147 270 142 265.5 c 128,-1,39
 137 261 137 261 132 261 c 2,0,-1
EndSplineSet
EndChar

StartChar: g
Encoding: 103 103 74
Width: 257
GlyphClass: 2
Flags: W
LayerCount: 2
Back
Fore
SplineSet
146 -77 m 2,0,-1
 58 -77 l 2,1,2
 53 -77 53 -77 47.5 -73 c 128,-1,3
 42 -69 42 -69 42 -60 c 2,4,-1
 42 -53 l 2,5,6
 42 -37 42 -37 58 -37 c 2,7,-1
 146 -37 l 2,8,9
 185 -37 185 -37 185 10 c 2,10,-1
 185 21 l 1,11,12
 162 11 162 11 143 11 c 2,13,-1
 107 11 l 2,14,15
 72 11 72 11 51 33.5 c 128,-1,16
 30 56 30 56 30 97 c 2,17,-1
 30 208 l 2,18,19
 30 249 30 249 51 271.5 c 128,-1,20
 72 294 72 294 107 294 c 2,21,-1
 208 294 l 2,22,23
 215 294 215 294 219 288.5 c 128,-1,24
 223 283 223 283 223 278 c 2,25,-1
 223 9 l 2,26,27
 223 -32 223 -32 202 -54.5 c 128,-1,28
 181 -77 181 -77 146 -77 c 2,0,-1
105 253 m 2,29,30
 85 253 85 253 76.5 242 c 128,-1,31
 68 231 68 231 68 208 c 2,32,-1
 68 97 l 2,33,34
 68 51 68 51 107 51 c 2,35,-1
 143 51 l 2,36,37
 185 51 185 51 185 95 c 2,38,-1
 187 254 l 1,39,-1
 105 253 l 2,29,30
EndSplineSet
EndChar

StartChar: h
Encoding: 104 104 75
Width: 261
GlyphClass: 2
Flags: W
LayerCount: 2
Back
Fore
SplineSet
210 0 m 2,0,-1
 203 0 l 2,1,2
 188 0 188 0 188 17 c 2,3,-1
 188 215 l 2,4,5
 188 261 188 261 149 261 c 2,6,-1
 113 261 l 2,7,8
 70 261 70 261 70 217 c 2,9,-1
 70 17 l 2,10,11
 70 0 70 0 55 0 c 2,12,-1
 48 0 l 2,13,14
 40 0 40 0 36.5 6 c 128,-1,15
 33 12 33 12 33 17 c 2,16,-1
 33 388 l 2,17,18
 33 394 33 394 36.5 399.5 c 128,-1,19
 40 405 40 405 48 405 c 2,20,-1
 55 405 l 2,21,22
 70 405 70 405 70 388 c 2,23,-1
 70 291 l 1,24,25
 93 301 93 301 113 301 c 2,26,-1
 149 301 l 2,27,28
 184 301 184 301 205 278.5 c 128,-1,29
 226 256 226 256 226 215 c 2,30,-1
 226 17 l 2,31,32
 226 0 226 0 210 0 c 2,0,-1
EndSplineSet
EndChar

StartChar: i
Encoding: 105 105 76
Width: 106
GlyphClass: 2
Flags: W
LayerCount: 2
Back
Fore
SplineSet
64 325 m 2,0,-1
 36 325 l 2,1,2
 34 325 34 325 33 331.5 c 128,-1,3
 32 338 32 338 32 343 c 2,4,-1
 32 387 l 2,5,6
 32 393 32 393 33 398.5 c 128,-1,7
 34 404 34 404 36 404 c 2,8,-1
 64 404 l 2,9,10
 67 404 67 404 68 398.5 c 128,-1,11
 69 393 69 393 69 387 c 2,12,-1
 69 343 l 2,13,14
 69 338 69 338 68 331.5 c 128,-1,15
 67 325 67 325 64 325 c 2,0,-1
64 0 m 2,16,-1
 36 0 l 2,17,18
 34 0 34 0 33 6 c 128,-1,19
 32 12 32 12 32 17 c 2,20,-1
 32 284 l 2,21,22
 32 290 32 290 33 295.5 c 128,-1,23
 34 301 34 301 36 301 c 2,24,-1
 64 301 l 2,25,26
 67 301 67 301 68 295.5 c 128,-1,27
 69 290 69 290 69 284 c 2,28,-1
 69 17 l 2,29,30
 69 12 69 12 68 6 c 128,-1,31
 67 0 67 0 64 0 c 2,16,-1
EndSplineSet
EndChar

StartChar: j
Encoding: 106 106 77
Width: 101
GlyphClass: 2
Flags: W
LayerCount: 2
Back
Fore
SplineSet
56 327 m 2,0,-1
 45 327 l 2,1,2
 38 327 38 327 35 332.5 c 128,-1,3
 32 338 32 338 32 344 c 2,4,-1
 32 387 l 2,5,6
 32 393 32 393 35 398.5 c 128,-1,7
 38 404 38 404 45 404 c 2,8,-1
 56 404 l 2,9,10
 62 404 62 404 65.5 398 c 128,-1,11
 69 392 69 392 69 387 c 2,12,-1
 69 344 l 2,13,14
 69 338 69 338 65.5 332.5 c 128,-1,15
 62 327 62 327 56 327 c 2,0,-1
-1 -77 m 2,16,-1
 -9 -77 l 2,17,18
 -14 -77 -14 -77 -18 -72.5 c 128,-1,19
 -22 -68 -22 -68 -22 -60 c 2,20,-1
 -22 -54 l 2,21,22
 -22 -47 -22 -47 -18.5 -41.5 c 128,-1,23
 -15 -36 -15 -36 -9 -36 c 2,24,-1
 -1 -36 l 2,25,26
 32 -36 32 -36 32 11 c 2,27,-1
 32 282 l 2,28,29
 32 288 32 288 35 294 c 128,-1,30
 38 300 38 300 45 300 c 2,31,-1
 56 300 l 2,32,33
 62 300 62 300 65.5 294 c 128,-1,34
 69 288 69 288 69 282 c 2,35,-1
 69 10 l 2,36,37
 69 -29 69 -29 52 -53 c 128,-1,38
 35 -77 35 -77 -1 -77 c 2,16,-1
EndSplineSet
EndChar

StartChar: k
Encoding: 107 107 78
Width: 230
GlyphClass: 2
Flags: W
LayerCount: 2
Back
Fore
SplineSet
200 0 m 2,0,-1
 192 0 l 2,1,2
 180 0 180 0 173 10 c 2,3,-1
 89 145 l 2,4,5
 81 155 81 155 89 166 c 2,6,-1
 164 291 l 2,7,8
 168 296 168 296 174 298.5 c 128,-1,9
 180 301 180 301 183 301 c 2,10,-1
 189 301 l 2,11,12
 200 301 200 301 202.5 292 c 128,-1,13
 205 283 205 283 201 278 c 2,14,-1
 128 155 l 1,15,-1
 212 24 l 2,16,17
 217 16 217 16 214 8 c 128,-1,18
 211 0 211 0 200 0 c 2,0,-1
55 0 m 2,19,-1
 48 0 l 2,20,21
 40 0 40 0 36.5 6 c 128,-1,22
 33 12 33 12 33 17 c 2,23,-1
 33 388 l 2,24,25
 33 394 33 394 36.5 399.5 c 128,-1,26
 40 405 40 405 48 405 c 2,27,-1
 55 405 l 2,28,29
 70 405 70 405 70 388 c 2,30,-1
 70 17 l 2,31,32
 70 0 70 0 55 0 c 2,19,-1
EndSplineSet
EndChar

StartChar: l
Encoding: 108 108 79
Width: 113
GlyphClass: 2
Flags: W
LayerCount: 2
Back
Fore
SplineSet
55 0 m 2,0,-1
 48 0 l 2,1,2
 40 0 40 0 36.5 6 c 128,-1,3
 33 12 33 12 33 17 c 2,4,-1
 33 388 l 2,5,6
 33 394 33 394 36.5 399.5 c 128,-1,7
 40 405 40 405 48 405 c 2,8,-1
 55 405 l 2,9,10
 71 405 71 405 71 388 c 2,11,-1
 71 17 l 2,12,13
 71 0 71 0 55 0 c 2,0,-1
EndSplineSet
EndChar

StartChar: m
Encoding: 109 109 80
Width: 410
GlyphClass: 2
Flags: W
LayerCount: 2
Back
Fore
SplineSet
358 0 m 2,0,-1
 351 0 l 2,1,2
 343 0 343 0 339 6 c 128,-1,3
 335 12 335 12 335 17 c 2,4,-1
 335 210 l 2,5,6
 335 255 335 255 292 255 c 2,7,-1
 272 255 l 2,8,9
 249 255 249 255 236 243 c 128,-1,10
 223 231 223 231 223 210 c 2,11,-1
 223 17 l 2,12,13
 223 12 223 12 219 6 c 128,-1,14
 215 0 215 0 208 0 c 2,15,-1
 200 0 l 2,16,17
 184 0 184 0 184 17 c 2,18,-1
 184 210 l 2,19,20
 184 255 184 255 141 255 c 2,21,-1
 119 255 l 2,22,23
 73 255 73 255 73 212 c 2,24,-1
 73 17 l 2,25,26
 73 0 73 0 56 0 c 2,27,-1
 49 0 l 2,28,29
 41 0 41 0 37 6 c 128,-1,30
 33 12 33 12 33 17 c 2,31,-1
 33 278 l 2,32,33
 33 283 33 283 37 288.5 c 128,-1,34
 41 294 41 294 49 294 c 2,35,-1
 56 294 l 2,36,37
 66 294 66 294 73 284 c 1,38,39
 96 294 96 294 118 294 c 2,40,-1
 141 294 l 2,41,42
 180 294 180 294 205 268 c 1,43,44
 221 282 221 282 238 288 c 128,-1,45
 255 294 255 294 272 294 c 2,46,-1
 292 294 l 2,47,48
 330 294 330 294 352.5 271 c 128,-1,49
 375 248 375 248 375 210 c 2,50,-1
 375 17 l 2,51,52
 375 0 375 0 358 0 c 2,0,-1
EndSplineSet
EndChar

StartChar: n
Encoding: 110 110 81
Width: 259
GlyphClass: 2
Flags: W
LayerCount: 2
Back
Fore
SplineSet
210 0 m 2,0,-1
 203 0 l 2,1,2
 188 0 188 0 188 17 c 2,3,-1
 188 210 l 2,4,5
 188 255 188 255 149 255 c 2,6,-1
 113 255 l 2,7,8
 70 255 70 255 70 212 c 2,9,-1
 70 17 l 2,10,11
 70 0 70 0 55 0 c 2,12,-1
 48 0 l 2,13,14
 40 0 40 0 36.5 5.5 c 128,-1,15
 33 11 33 11 33 17 c 2,16,-1
 33 278 l 2,17,18
 33 283 33 283 36.5 288.5 c 128,-1,19
 40 294 40 294 48 294 c 2,20,-1
 55 294 l 2,21,22
 64 294 64 294 70 283 c 1,23,24
 88 294 88 294 113 294 c 2,25,-1
 149 294 l 2,26,27
 184 294 184 294 205 271 c 128,-1,28
 226 248 226 248 226 210 c 2,29,-1
 226 17 l 2,30,31
 226 0 226 0 210 0 c 2,0,-1
EndSplineSet
EndChar

StartChar: o
Encoding: 111 111 82
Width: 257
GlyphClass: 2
Flags: W
LayerCount: 2
Back
Fore
SplineSet
146 0 m 2,0,-1
 104 0 l 2,1,2
 68 0 68 0 47.5 23 c 128,-1,3
 27 46 27 46 27 84 c 2,4,-1
 27 210 l 2,5,6
 27 248 27 248 47.5 271 c 128,-1,7
 68 294 68 294 104 294 c 2,8,-1
 146 294 l 2,9,10
 181 294 181 294 202 271 c 128,-1,11
 223 248 223 248 223 210 c 2,12,-1
 223 84 l 2,13,14
 223 46 223 46 202 23 c 128,-1,15
 181 0 181 0 146 0 c 2,0,-1
185 210 m 2,16,17
 185 255 185 255 146 255 c 2,18,-1
 104 255 l 2,19,20
 64 255 64 255 64 210 c 2,21,-1
 64 85 l 2,22,23
 64 39 64 39 104 39 c 2,24,-1
 146 39 l 2,25,26
 185 39 185 39 185 85 c 2,27,-1
 185 210 l 2,16,17
EndSplineSet
EndChar

StartChar: p
Encoding: 112 112 83
Width: 267
GlyphClass: 2
Flags: W
LayerCount: 2
Back
Fore
SplineSet
156 -6 m 2,0,-1
 120 -6 l 2,1,2
 109 -6 109 -6 99 -3.5 c 128,-1,3
 89 -1 89 -1 77 6 c 1,4,-1
 77 -72 l 2,5,6
 77 -77 77 -77 73.5 -83 c 128,-1,7
 70 -89 70 -89 62 -89 c 2,8,-1
 55 -89 l 2,9,10
 47 -89 47 -89 43.5 -83 c 128,-1,11
 40 -77 40 -77 40 -72 c 2,12,-1
 40 278 l 2,13,14
 40 283 40 283 43.5 288.5 c 128,-1,15
 47 294 47 294 55 294 c 2,16,-1
 62 294 l 2,17,18
 71 294 71 294 77 283 c 1,19,20
 96 294 96 294 120 294 c 2,21,-1
 156 294 l 2,22,23
 191 294 191 294 212 271.5 c 128,-1,24
 233 249 233 249 233 208 c 2,25,-1
 233 80 l 2,26,27
 233 38 233 38 212 16 c 128,-1,28
 191 -6 191 -6 156 -6 c 2,0,-1
195 208 m 2,29,30
 195 254 195 254 156 254 c 2,31,-1
 120 254 l 2,32,33
 77 254 77 254 77 211 c 2,34,-1
 77 78 l 2,35,36
 77 35 77 35 120 35 c 2,37,-1
 156 35 l 2,38,39
 195 35 195 35 195 81 c 2,40,-1
 195 208 l 2,29,30
EndSplineSet
EndChar

StartChar: q
Encoding: 113 113 84
Width: 261
GlyphClass: 2
Flags: W
LayerCount: 2
Back
Fore
SplineSet
210 -89 m 2,0,-1
 203 -89 l 2,1,2
 195 -89 195 -89 192 -83 c 128,-1,3
 189 -77 189 -77 189 -72 c 2,4,-1
 189 5 l 1,5,6
 181 1 181 1 176 -1 c 128,-1,7
 171 -3 171 -3 167 -4 c 128,-1,8
 163 -5 163 -5 158 -5.5 c 128,-1,9
 153 -6 153 -6 144 -6 c 2,10,-1
 110 -6 l 2,11,12
 74 -6 74 -6 53.5 16 c 128,-1,13
 33 38 33 38 33 80 c 2,14,-1
 33 208 l 2,15,16
 33 249 33 249 53.5 271.5 c 128,-1,17
 74 294 74 294 110 294 c 2,18,-1
 210 294 l 2,19,20
 226 294 226 294 226 278 c 2,21,-1
 226 -72 l 2,22,23
 226 -77 226 -77 222.5 -83 c 128,-1,24
 219 -89 219 -89 210 -89 c 2,0,-1
189 242 m 1,25,26
 184 254 184 254 171 252 c 2,27,-1
 110 252 l 2,28,29
 70 252 70 252 70 208 c 2,30,-1
 70 81 l 2,31,32
 70 35 70 35 110 35 c 2,33,-1
 144 35 l 2,34,35
 189 35 189 35 189 81 c 2,36,-1
 189 242 l 1,25,26
EndSplineSet
EndChar

StartChar: r
Encoding: 114 114 85
Width: 150
GlyphClass: 2
Flags: W
LayerCount: 2
Back
Fore
SplineSet
113 255 m 2,0,-1
 95 255 l 2,1,2
 78 255 78 255 67.5 241.5 c 128,-1,3
 57 228 57 228 57 205 c 2,4,-1
 57 17 l 2,5,6
 57 0 57 0 43 0 c 2,7,-1
 37 0 l 2,8,9
 30 0 30 0 27 6 c 128,-1,10
 24 12 24 12 24 17 c 2,11,-1
 24 278 l 2,12,13
 24 283 24 283 27 288.5 c 128,-1,14
 30 294 30 294 37 294 c 2,15,-1
 43 294 l 2,16,17
 48 294 48 294 51 292 c 128,-1,18
 54 290 54 290 57 282 c 1,19,20
 67 287 67 287 76 290.5 c 128,-1,21
 85 294 85 294 96 294 c 2,22,-1
 113 294 l 2,23,24
 119 294 119 294 123 288.5 c 128,-1,25
 127 283 127 283 127 278 c 2,26,-1
 127 271 l 2,27,28
 127 263 127 263 122.5 259 c 128,-1,29
 118 255 118 255 113 255 c 2,0,-1
EndSplineSet
EndChar

StartChar: s
Encoding: 115 115 86
Width: 224
GlyphClass: 2
Flags: W
LayerCount: 2
Back
Fore
SplineSet
126 0 m 2,0,-1
 44 0 l 2,1,2
 39 0 39 0 34 4 c 128,-1,3
 29 8 29 8 29 16 c 2,4,-1
 29 23 l 2,5,6
 29 39 29 39 44 39 c 2,7,-1
 126 39 l 2,8,9
 148 39 148 39 156 47.5 c 128,-1,10
 164 56 164 56 164 70 c 2,11,-1
 164 85 l 2,12,13
 164 102 164 102 159.5 110.5 c 128,-1,14
 155 119 155 119 141 124 c 2,15,-1
 78 148 l 2,16,17
 49 159 49 159 37.5 176 c 128,-1,18
 26 193 26 193 26 223 c 0,19,20
 26 294 26 294 97 294 c 2,21,-1
 174 294 l 2,22,23
 182 294 182 294 185.5 288.5 c 128,-1,24
 189 283 189 283 189 278 c 2,25,-1
 189 271 l 2,26,27
 189 255 189 255 174 255 c 2,28,-1
 97 255 l 2,29,30
 77 255 77 255 70.5 247 c 128,-1,31
 64 239 64 239 64 230 c 2,32,-1
 64 216 l 2,33,34
 64 204 64 204 69 198.5 c 128,-1,35
 74 193 74 193 90 186 c 2,36,-1
 153 161 l 2,37,38
 181 149 181 149 190.5 128 c 128,-1,39
 200 107 200 107 200 73 c 0,40,41
 200 35 200 35 181.5 17.5 c 128,-1,42
 163 0 163 0 126 0 c 2,0,-1
EndSplineSet
EndChar

StartChar: t
Encoding: 116 116 87
Width: 185
GlyphClass: 2
Flags: W
LayerCount: 2
Back
Fore
SplineSet
150 0 m 2,0,-1
 133 0 l 2,1,2
 98 0 98 0 76.5 23 c 128,-1,3
 55 46 55 46 55 84 c 2,4,-1
 55 258 l 1,5,-1
 32 258 l 2,6,7
 27 258 27 258 22 262 c 128,-1,8
 17 266 17 266 17 274 c 2,9,-1
 17 281 l 2,10,11
 17 298 17 298 32 298 c 2,12,-1
 55 298 l 1,13,-1
 55 332 l 2,14,15
 55 338 55 338 59 344 c 128,-1,16
 63 350 63 350 71 350 c 2,17,-1
 78 350 l 2,18,19
 86 350 86 350 89 343.5 c 128,-1,20
 92 337 92 337 92 332 c 2,21,-1
 92 298 l 1,22,-1
 145 298 l 2,23,24
 160 298 160 298 160 281 c 2,25,-1
 160 274 l 2,26,27
 160 266 160 266 155 262 c 128,-1,28
 150 258 150 258 145 258 c 2,29,-1
 92 258 l 1,30,-1
 92 84 l 2,31,32
 92 40 92 40 133 40 c 2,33,-1
 150 40 l 2,34,35
 165 40 165 40 165 24 c 2,36,-1
 165 16 l 2,37,38
 165 8 165 8 160 4 c 128,-1,39
 155 0 155 0 150 0 c 2,0,-1
EndSplineSet
EndChar

StartChar: u
Encoding: 117 117 88
Width: 254
GlyphClass: 2
Flags: W
LayerCount: 2
Back
Fore
SplineSet
209 0 m 2,0,-1
 203 0 l 2,1,2
 193 0 193 0 188 11 c 1,3,4
 169 0 169 0 144 0 c 2,5,-1
 109 0 l 2,6,7
 74 0 74 0 52.5 23 c 128,-1,8
 31 46 31 46 31 84 c 2,9,-1
 31 278 l 2,10,11
 31 294 31 294 47 294 c 2,12,-1
 55 294 l 2,13,14
 62 294 62 294 66 288.5 c 128,-1,15
 70 283 70 283 70 278 c 2,16,-1
 70 85 l 2,17,18
 70 39 70 39 109 39 c 2,19,-1
 144 39 l 2,20,21
 187 39 187 39 187 82 c 2,22,-1
 187 278 l 2,23,24
 187 294 187 294 203 294 c 2,25,-1
 209 294 l 2,26,27
 217 294 217 294 220.5 288.5 c 128,-1,28
 224 283 224 283 224 278 c 2,29,-1
 224 17 l 2,30,31
 224 11 224 11 220.5 5.5 c 128,-1,32
 217 0 217 0 209 0 c 2,0,-1
EndSplineSet
EndChar

StartChar: v
Encoding: 118 118 89
Width: 241
GlyphClass: 2
Flags: W
LayerCount: 2
Back
Fore
SplineSet
140 13 m 2,0,1
 137 0 137 0 125 0 c 2,2,-1
 113 0 l 2,3,4
 106 0 106 0 102.5 4.5 c 128,-1,5
 99 9 99 9 98 12 c 2,6,-1
 20 273 l 2,7,8
 18 281 18 281 21 287.5 c 128,-1,9
 24 294 24 294 34 294 c 2,10,-1
 42 294 l 2,11,12
 49 294 49 294 52.5 289.5 c 128,-1,13
 56 285 56 285 57 283 c 2,14,-1
 119 69 l 1,15,16
 129 105 129 105 139.5 141.5 c 128,-1,17
 150 178 150 178 160 208 c 2,18,-1
 182 282 l 2,19,20
 182 284 182 284 185.5 289 c 128,-1,21
 189 294 189 294 196 294 c 2,22,-1
 204 294 l 2,23,24
 214 294 214 294 217 287.5 c 128,-1,25
 220 281 220 281 218 273 c 2,26,-1
 140 13 l 2,0,1
EndSplineSet
EndChar

StartChar: w
Encoding: 119 119 90
Width: 388
GlyphClass: 2
Flags: W
LayerCount: 2
Back
Fore
SplineSet
293 14 m 2,0,1
 289 0 289 0 276 0 c 2,2,-1
 264 0 l 2,3,4
 251 0 251 0 247 13 c 2,5,-1
 192 209 l 1,6,-1
 137 12 l 2,7,8
 135 7 135 7 131 3.5 c 128,-1,9
 127 0 127 0 120 0 c 2,10,-1
 109 0 l 2,11,12
 96 0 96 0 92 14 c 2,13,-1
 13 273 l 2,14,15
 12 280 12 280 15 287 c 128,-1,16
 18 294 18 294 28 294 c 2,17,-1
 36 294 l 2,18,19
 48 294 48 294 52 280 c 2,20,-1
 114 75 l 1,21,-1
 172 281 l 2,22,23
 176 294 176 294 189 294 c 2,24,-1
 197 294 l 2,25,26
 205 294 205 294 208 290 c 128,-1,27
 211 286 211 286 213 281 c 2,28,-1
 270 75 l 1,29,-1
 331 282 l 2,30,31
 333 286 333 286 337 290 c 128,-1,32
 341 294 341 294 348 294 c 2,33,-1
 357 294 l 2,34,35
 366 294 366 294 369.5 286.5 c 128,-1,36
 373 279 373 279 371 274 c 2,37,-1
 293 14 l 2,0,1
EndSplineSet
EndChar

StartChar: x
Encoding: 120 120 91
Width: 225
GlyphClass: 2
Flags: W
LayerCount: 2
Back
Fore
SplineSet
194 0 m 2,0,-1
 183 0 l 2,1,2
 178 0 178 0 174.5 3.5 c 128,-1,3
 171 7 171 7 169 11 c 2,4,-1
 112 116 l 1,5,-1
 55 10 l 2,6,7
 53 7 53 7 49 3.5 c 128,-1,8
 45 0 45 0 38 0 c 2,9,-1
 29 0 l 2,10,11
 18 0 18 0 16 4.5 c 128,-1,12
 14 9 14 9 16 17 c 0,13,14
 18 23 18 23 19 25 c 2,15,-1
 88 150 l 1,16,-1
 22 272 l 2,17,18
 18 276 18 276 20 285 c 128,-1,19
 22 294 22 294 34 294 c 2,20,-1
 44 294 l 2,21,22
 49 294 49 294 53 290.5 c 128,-1,23
 57 287 57 287 59 284 c 2,24,-1
 112 185 l 1,25,-1
 164 283 l 2,26,27
 166 288 166 288 169 291 c 128,-1,28
 172 294 172 294 180 294 c 2,29,-1
 189 294 l 2,30,31
 202 294 202 294 201.5 284.5 c 128,-1,32
 201 275 201 275 199 271 c 2,33,-1
 135 150 l 1,34,-1
 206 24 l 2,35,36
 207 22 207 22 207.5 18 c 128,-1,37
 208 14 208 14 207.5 10 c 128,-1,38
 207 6 207 6 204 3 c 128,-1,39
 201 0 201 0 194 0 c 2,0,-1
EndSplineSet
EndChar

StartChar: y
Encoding: 121 121 92
Width: 256
GlyphClass: 2
Flags: W
LayerCount: 2
Back
Fore
SplineSet
152 22 m 2,0,1
 144 -2 144 -2 138 -18 c 128,-1,2
 132 -34 132 -34 127 -42 c 0,3,4
 101 -85 101 -85 57 -85 c 2,5,-1
 44 -85 l 2,6,7
 38 -85 38 -85 32 -81.5 c 128,-1,8
 26 -78 26 -78 26 -68 c 2,9,-1
 26 -62 l 2,10,11
 26 -54 26 -54 31 -49.5 c 128,-1,12
 36 -45 36 -45 44 -45 c 2,13,-1
 57 -45 l 2,14,15
 80 -45 80 -45 91 -27 c 128,-1,16
 102 -9 102 -9 109 12 c 1,17,18
 89 69 89 69 65 138 c 128,-1,19
 41 207 41 207 19 273 c 0,20,21
 17 278 17 278 19.5 286 c 128,-1,22
 22 294 22 294 32 294 c 2,23,-1
 40 294 l 2,24,25
 49 294 49 294 54 285 c 0,26,27
 56 281 56 281 56 281 c 1,28,-1
 127 69 l 1,29,-1
 173 206 l 1,30,-1
 198 281 l 2,31,32
 203 294 203 294 215 294 c 2,33,-1
 222 294 l 2,34,35
 233 294 233 294 235 285.5 c 128,-1,36
 237 277 237 277 236 272 c 2,37,-1
 152 22 l 2,0,1
EndSplineSet
EndChar

StartChar: z
Encoding: 122 122 93
Width: 217
GlyphClass: 2
Flags: W
LayerCount: 2
Back
Fore
SplineSet
183 0 m 2,0,-1
 36 0 l 2,1,2
 31 0 31 0 25 3.5 c 128,-1,3
 19 7 19 7 19 16 c 2,4,-1
 19 22 l 2,5,6
 19 26 19 26 23 32 c 2,7,-1
 146 255 l 1,8,-1
 38 255 l 2,9,10
 23 255 23 255 23 271 c 2,11,-1
 23 278 l 2,12,13
 23 283 23 283 26.5 288.5 c 128,-1,14
 30 294 30 294 38 294 c 2,15,-1
 180 294 l 2,16,17
 185 294 185 294 190 290 c 128,-1,18
 195 286 195 286 195 278 c 2,19,-1
 195 271 l 2,20,21
 195 264 195 264 193 262 c 2,22,-1
 69 39 l 1,23,-1
 183 39 l 2,24,25
 190 39 190 39 194 33.5 c 128,-1,26
 198 28 198 28 198 23 c 2,27,-1
 198 16 l 2,28,29
 198 0 198 0 183 0 c 2,0,-1
EndSplineSet
EndChar

StartChar: braceleft
Encoding: 123 123 94
Width: 165
GlyphClass: 2
Flags: W
LayerCount: 2
Back
Fore
SplineSet
129 -64 m 0,0,1
 125 -69 125 -69 119 -69 c 2,2,-1
 117 -69 l 2,3,4
 85 -69 85 -69 73 -44 c 0,5,6
 59 -14 59 -14 59 21 c 2,7,-1
 59 128 l 2,8,9
 59 151 59 151 54 156 c 0,10,11
 48 163 48 163 40 162 c 0,12,13
 32 164 32 164 30 167 c 0,14,15
 25 170 25 170 25 179 c 2,16,-1
 25 186 l 2,17,18
 25 194 25 194 28 199 c 256,19,20
 31 204 31 204 40 204 c 0,21,22
 48 204 48 204 54 210 c 0,23,24
 59 215 59 215 59 238 c 2,25,-1
 59 344 l 2,26,27
 59 357 59 357 62 380 c 0,28,29
 64 388 64 388 66.5 394 c 128,-1,30
 69 400 69 400 73 408 c 0,31,32
 75 412 75 412 79.5 417 c 128,-1,33
 84 422 84 422 90 428 c 0,34,35
 95 431 95 431 101.5 433 c 128,-1,36
 108 435 108 435 117 435 c 2,37,-1
 119 435 l 2,38,39
 124 435 124 435 126 433.5 c 128,-1,40
 128 432 128 432 130 430 c 0,41,42
 132 426 132 426 133 423 c 128,-1,43
 134 420 134 420 134 416 c 2,44,-1
 134 410 l 2,45,46
 134 401 134 401 129 396 c 256,47,48
 124 391 124 391 119 391 c 2,49,-1
 117 391 l 2,50,51
 106 391 106 391 101 383 c 0,52,53
 94 375 94 375 94 343 c 2,54,-1
 94 238 l 2,55,56
 94 227 94 227 91 208 c 0,57,58
 90 196 90 196 81 183 c 1,59,60
 90 169 90 169 91 158 c 0,61,62
 92 150 92 150 92 145 c 128,-1,63
 92 140 92 140 93 136 c 0,64,65
 93 132 93 132 94 129 c 2,66,-1
 94 21 l 2,67,68
 94 7 94 7 95.5 -2.5 c 128,-1,69
 97 -12 97 -12 101 -17 c 0,70,71
 103 -22 103 -22 107.5 -24 c 128,-1,72
 112 -26 112 -26 117 -26 c 2,73,-1
 119 -26 l 2,74,75
 127 -26 127 -26 130 -31 c 0,76,77
 134 -39 134 -39 134 -45 c 2,78,-1
 134 -52 l 2,79,80
 134 -59 134 -59 129 -64 c 0,0,1
EndSplineSet
EndChar

StartChar: bar
Encoding: 124 124 95
Width: 110
GlyphClass: 2
Flags: W
LayerCount: 2
Back
Fore
SplineSet
57 0 m 2,0,-1
 50 0 l 2,1,2
 41 0 41 0 38 6 c 0,3,4
 34 15 34 15 34 18 c 2,5,-1
 34 402 l 2,6,7
 34 407 34 407 37 415 c 0,8,9
 43 421 43 421 50 421 c 2,10,-1
 57 421 l 2,11,12
 73 421 73 421 73 402 c 2,13,-1
 73 18 l 2,14,15
 73 0 73 0 57 0 c 2,0,-1
EndSplineSet
EndChar

StartChar: braceright
Encoding: 125 125 96
Width: 165
GlyphClass: 2
Flags: W
LayerCount: 2
Back
Fore
SplineSet
127 167 m 0,0,1
 125 164 125 164 117 162 c 0,2,3
 109 163 109 163 103 156 c 0,4,5
 98 151 98 151 98 128 c 2,6,-1
 98 21 l 2,7,8
 98 -14 98 -14 84 -44 c 0,9,10
 72 -69 72 -69 40 -69 c 2,11,-1
 38 -69 l 2,12,13
 32 -69 32 -69 28 -64 c 0,14,15
 23 -59 23 -59 23 -52 c 2,16,-1
 23 -45 l 2,17,18
 23 -39 23 -39 27 -31 c 0,19,20
 30 -26 30 -26 38 -26 c 2,21,-1
 40 -26 l 2,22,23
 51 -26 51 -26 57 -17 c 256,24,25
 63 -8 63 -8 63 21 c 2,26,-1
 63 129 l 2,27,28
 63 131 63 131 66 158 c 0,29,30
 67 169 67 169 77 183 c 1,31,32
 67 198 67 198 66 208 c 0,33,34
 63 227 63 227 63 238 c 2,35,-1
 63 343 l 2,36,37
 63 374 63 374 57 383 c 0,38,39
 50 391 50 391 40 391 c 2,40,-1
 38 391 l 2,41,42
 33 391 33 391 28 396 c 256,43,44
 23 401 23 401 23 410 c 2,45,-1
 23 416 l 2,46,47
 23 420 23 420 24 423 c 128,-1,48
 25 426 25 426 27 430 c 0,49,50
 29 432 29 432 31 433.5 c 128,-1,51
 33 435 33 435 38 435 c 2,52,-1
 40 435 l 2,53,54
 49 435 49 435 55.5 433 c 128,-1,55
 62 431 62 431 67 428 c 0,56,57
 81 416 81 416 84 408 c 0,58,59
 88 400 88 400 90.5 394 c 128,-1,60
 93 388 93 388 95 380 c 0,61,62
 98 357 98 357 98 344 c 2,63,-1
 98 238 l 2,64,65
 98 215 98 215 103 210 c 0,66,67
 109 204 109 204 117 204 c 0,68,69
 126 204 126 204 129 199 c 256,70,71
 132 194 132 194 132 186 c 2,72,-1
 132 179 l 2,73,74
 132 170 132 170 127 167 c 0,0,1
EndSplineSet
EndChar

StartChar: asciitilde
Encoding: 126 126 97
Width: 311
GlyphClass: 2
Flags: W
LayerCount: 2
Back
Fore
SplineSet
207 171 m 0,0,1
 197 171 197 171 183 172.5 c 128,-1,2
 169 174 169 174 151 176 c 0,3,4
 135 178 135 178 124.5 179 c 128,-1,5
 114 180 114 180 108 180 c 0,6,7
 104 180 104 180 93.5 178 c 128,-1,8
 83 176 83 176 65 173 c 0,9,10
 60 174 60 174 53 176 c 128,-1,11
 46 178 46 178 46 185 c 2,12,-1
 46 197 l 2,13,14
 46 201 46 201 63.5 207.5 c 128,-1,15
 81 214 81 214 104 214 c 0,16,17
 114 214 114 214 128 213 c 128,-1,18
 142 212 142 212 160 210 c 0,19,20
 176 208 176 208 186.5 206.5 c 128,-1,21
 197 205 197 205 203 205 c 0,22,23
 207 205 207 205 218 207 c 128,-1,24
 229 209 229 209 246 212 c 0,25,26
 251 212 251 212 257.5 210 c 128,-1,27
 264 208 264 208 264 200 c 2,28,-1
 264 188 l 2,29,30
 264 182 264 182 247 176.5 c 128,-1,31
 230 171 230 171 207 171 c 0,0,1
EndSplineSet
EndChar

StartChar: cent
Encoding: 162 162 98
Width: 248
GlyphClass: 2
Flags: W
LayerCount: 2
Back
Fore
SplineSet
207 -3 m 2,0,-1
 173 -3 l 1,1,-1
 173 -36 l 2,2,3
 173 -42 173 -42 169 -48 c 128,-1,4
 165 -54 165 -54 158 -54 c 2,5,-1
 150 -54 l 2,6,7
 142 -54 142 -54 138 -48 c 128,-1,8
 134 -42 134 -42 134 -36 c 2,9,-1
 134 -3 l 1,10,-1
 126 -3 l 2,11,12
 89 -3 89 -3 67.5 21 c 128,-1,13
 46 45 46 45 46 88 c 2,14,-1
 46 222 l 2,15,16
 46 266 46 266 67.5 290 c 128,-1,17
 89 314 89 314 126 314 c 2,18,-1
 134 314 l 1,19,-1
 134 355 l 2,20,21
 134 363 134 363 138.5 368 c 128,-1,22
 143 373 143 373 150 373 c 2,23,-1
 158 373 l 2,24,25
 164 373 164 373 168.5 368 c 128,-1,26
 173 363 173 363 173 355 c 2,27,-1
 173 314 l 1,28,-1
 207 314 l 2,29,30
 224 314 224 314 224 295 c 2,31,-1
 224 288 l 2,32,33
 224 279 224 279 218.5 275 c 128,-1,34
 213 271 213 271 207 271 c 2,35,-1
 126 271 l 2,36,37
 85 271 85 271 85 222 c 2,38,-1
 85 89 l 2,39,40
 85 40 85 40 126 40 c 2,41,-1
 207 40 l 2,42,43
 215 40 215 40 219.5 34 c 128,-1,44
 224 28 224 28 224 20 c 2,45,-1
 224 14 l 2,46,47
 224 6 224 6 218 1.5 c 128,-1,48
 212 -3 212 -3 207 -3 c 2,0,-1
EndSplineSet
EndChar

StartChar: copyright
Encoding: 169 169 99
Width: 441
GlyphClass: 2
Flags: W
LayerCount: 2
Back
Fore
SplineSet
306 0 m 2,0,-1
 136 0 l 2,1,2
 96 0 96 0 72.5 24.5 c 128,-1,3
 49 49 49 49 49 91 c 2,4,-1
 49 300 l 2,5,6
 49 341 49 341 72.5 366 c 128,-1,7
 96 391 96 391 136 391 c 2,8,-1
 306 391 l 2,9,10
 344 391 344 391 368.5 366 c 128,-1,11
 393 341 393 341 393 300 c 2,12,-1
 393 91 l 2,13,14
 393 49 393 49 368.5 24.5 c 128,-1,15
 344 0 344 0 306 0 c 2,0,-1
350 299 m 2,16,17
 350 348 350 348 306 348 c 2,18,-1
 136 348 l 2,19,20
 92 348 92 348 92 299 c 2,21,-1
 92 92 l 2,22,23
 92 43 92 43 136 43 c 2,24,-1
 306 43 l 2,25,26
 350 43 350 43 350 92 c 2,27,-1
 350 299 l 2,16,17
285 86 m 0,28,29
 263 66 263 66 225 66 c 2,30,-1
 213 66 l 2,31,32
 175 66 175 66 153 86 c 0,33,34
 132 104 132 104 132 145 c 2,35,-1
 132 240 l 2,36,37
 132 283 132 283 153 301 c 0,38,39
 172 319 172 319 213 319 c 2,40,-1
 225 319 l 2,41,42
 265 319 265 319 285 301 c 0,43,44
 306 283 306 283 306 240 c 2,45,-1
 306 237 l 2,46,47
 306 218 306 218 288 218 c 2,48,-1
 281 218 l 2,49,50
 271 218 271 218 268 224 c 0,51,52
 264 232 264 232 264 237 c 2,53,-1
 264 240 l 2,54,55
 264 262 264 262 256 269 c 0,56,57
 248 277 248 277 225 277 c 2,58,-1
 213 277 l 2,59,60
 190 277 190 277 182 269 c 0,61,62
 175 262 175 262 175 240 c 2,63,-1
 175 146 l 2,64,65
 175 123 175 123 182.5 115.5 c 128,-1,66
 190 108 190 108 213 108 c 2,67,-1
 225 108 l 2,68,69
 248 108 248 108 256 117 c 0,70,71
 264 124 264 124 264 146 c 2,72,-1
 264 147 l 2,73,74
 264 150 264 150 265 153 c 128,-1,75
 266 156 266 156 268 160 c 0,76,77
 271 165 271 165 281 165 c 2,78,-1
 288 165 l 2,79,80
 306 165 306 165 306 147 c 2,81,-1
 306 145 l 2,82,83
 306 104 306 104 285 86 c 0,28,29
EndSplineSet
EndChar

StartChar: registered
Encoding: 174 174 100
Width: 447
GlyphClass: 2
Flags: W
LayerCount: 2
Back
Fore
SplineSet
306 0 m 2,0,-1
 136 0 l 2,1,2
 96 0 96 0 72.5 24.5 c 128,-1,3
 49 49 49 49 49 91 c 2,4,-1
 49 300 l 2,5,6
 49 341 49 341 72.5 366 c 128,-1,7
 96 391 96 391 136 391 c 2,8,-1
 306 391 l 2,9,10
 344 391 344 391 368.5 366 c 128,-1,11
 393 341 393 341 393 300 c 2,12,-1
 393 91 l 2,13,14
 393 49 393 49 368.5 24.5 c 128,-1,15
 344 0 344 0 306 0 c 2,0,-1
350 299 m 2,16,17
 350 348 350 348 306 348 c 2,18,-1
 136 348 l 2,19,20
 92 348 92 348 92 299 c 2,21,-1
 92 92 l 2,22,23
 92 43 92 43 136 43 c 2,24,-1
 306 43 l 2,25,26
 350 43 350 43 350 92 c 2,27,-1
 350 299 l 2,16,17
304 74 m 2,28,-1
 290 74 l 2,29,30
 283 74 283 74 281 76 c 0,31,32
 279 77 279 77 278.5 77.5 c 128,-1,33
 278 78 278 78 276 79 c 0,34,35
 275 81 275 81 274 82 c 2,36,-1
 218 164 l 1,37,-1
 170 164 l 1,38,-1
 170 88 l 2,39,40
 170 81 170 81 165 78 c 0,41,42
 160 74 160 74 154 74 c 2,43,-1
 145 74 l 2,44,45
 139 74 139 74 135 77 c 0,46,47
 130 79 130 79 130 88 c 2,48,-1
 130 301 l 2,49,50
 130 306 130 306 131 308 c 128,-1,51
 132 310 132 310 133 311 c 0,52,53
 140 312 140 312 143 314 c 2,54,-1
 145 314 l 1,55,-1
 146 315 l 1,56,-1
 234 315 l 2,57,58
 275 315 275 315 290 297 c 0,59,60
 301 283 301 283 305.5 269 c 128,-1,61
 310 255 310 255 310 243 c 2,62,-1
 310 238 l 2,63,64
 310 187 310 187 260 168 c 1,65,-1
 315 90 l 2,66,67
 315 89 315 89 315.5 88 c 128,-1,68
 316 87 316 87 316 85 c 0,69,70
 317 83 317 83 317 83 c 1,71,-1
 317 82 l 1,72,73
 312 74 312 74 304 74 c 2,28,-1
270 242 m 2,74,75
 270 281 270 281 233 281 c 2,76,-1
 170 281 l 1,77,-1
 170 200 l 1,78,-1
 233 200 l 2,79,80
 270 200 270 200 270 238 c 2,81,-1
 270 242 l 2,74,75
EndSplineSet
EndChar

StartChar: onequarter
Encoding: 188 188 101
Width: 518
GlyphClass: 2
Flags: W
LayerCount: 2
Back
Fore
SplineSet
481 53 m 1,0,-1
 481 -8 l 1,1,-1
 448 -8 l 1,2,-1
 448 53 l 1,3,-1
 329 53 l 1,4,-1
 329 79 l 1,5,-1
 448 241 l 1,6,-1
 481 241 l 1,7,-1
 481 82 l 1,8,-1
 517 82 l 1,9,-1
 517 53 l 1,10,-1
 481 53 l 1,0,-1
448 194 m 1,11,-1
 366 82 l 1,12,-1
 448 82 l 1,13,-1
 448 194 l 1,11,-1
146 -21 m 1,14,-1
 103 -21 l 1,15,-1
 388 442 l 1,16,-1
 430 442 l 1,17,-1
 146 -21 l 1,14,-1
108 180 m 1,18,-1
 108 371 l 2,19,20
 106 369 106 369 97.5 368 c 128,-1,21
 89 367 89 367 79 366.5 c 128,-1,22
 69 366 69 366 60 365.5 c 128,-1,23
 51 365 51 365 48 365 c 2,24,-1
 40 365 l 1,25,-1
 40 388 l 1,26,-1
 45 388 l 2,27,28
 76 388 76 388 91 397.5 c 128,-1,29
 106 407 106 407 111 436 c 1,30,-1
 142 436 l 1,31,-1
 142 180 l 1,32,-1
 108 180 l 1,18,-1
EndSplineSet
EndChar

StartChar: onehalf
Encoding: 189 189 102
Width: 518
GlyphClass: 2
Flags: W
LayerCount: 2
Back
Fore
SplineSet
328 -8 m 1,0,-1
 328 3 l 2,1,2
 328 32 328 32 344 53.5 c 128,-1,3
 360 75 360 75 397 96 c 0,4,5
 402 99 402 99 408.5 102.5 c 128,-1,6
 415 106 415 106 422 110 c 0,7,8
 439 118 439 118 449 124.5 c 128,-1,9
 459 131 459 131 465 136 c 0,10,11
 472 145 472 145 476 152.5 c 128,-1,12
 480 160 480 160 480 171 c 0,13,14
 480 194 480 194 466.5 206.5 c 128,-1,15
 453 219 453 219 427 219 c 0,16,17
 399 219 399 219 384.5 205 c 128,-1,18
 370 191 370 191 368 158 c 1,19,-1
 334 158 l 1,20,21
 337 206 337 206 360.5 227 c 128,-1,22
 384 248 384 248 428 248 c 0,23,24
 468 248 468 248 491 227 c 128,-1,25
 514 206 514 206 514 171 c 0,26,27
 514 141 514 141 491 118 c 0,28,29
 486 112 486 112 472.5 104 c 128,-1,30
 459 96 459 96 439 85 c 0,31,32
 430 80 430 80 417.5 73.5 c 128,-1,33
 405 67 405 67 393.5 59 c 128,-1,34
 382 51 382 51 373 41 c 128,-1,35
 364 31 364 31 362 20 c 1,36,-1
 514 20 l 1,37,-1
 514 -8 l 1,38,-1
 328 -8 l 1,0,-1
146 -21 m 1,39,-1
 103 -21 l 1,40,-1
 388 442 l 1,41,-1
 430 442 l 1,42,-1
 146 -21 l 1,39,-1
108 180 m 1,43,-1
 108 371 l 2,44,45
 106 369 106 369 97.5 368 c 128,-1,46
 89 367 89 367 79 366.5 c 128,-1,47
 69 366 69 366 60 365.5 c 128,-1,48
 51 365 51 365 48 365 c 2,49,-1
 40 365 l 1,50,-1
 40 388 l 1,51,-1
 45 388 l 2,52,53
 76 388 76 388 91 397.5 c 128,-1,54
 106 407 106 407 111 436 c 1,55,-1
 142 436 l 1,56,-1
 142 180 l 1,57,-1
 108 180 l 1,43,-1
EndSplineSet
EndChar

StartChar: threequarters
Encoding: 190 190 103
Width: 518
GlyphClass: 2
Flags: W
LayerCount: 2
Back
Fore
SplineSet
481 53 m 1,0,-1
 481 -8 l 1,1,-1
 448 -8 l 1,2,-1
 448 53 l 1,3,-1
 329 53 l 1,4,-1
 329 79 l 1,5,-1
 447 241 l 1,6,-1
 481 241 l 1,7,-1
 481 82 l 1,8,-1
 517 82 l 1,9,-1
 517 53 l 1,10,-1
 481 53 l 1,0,-1
448 194 m 1,11,-1
 366 82 l 1,12,-1
 448 82 l 1,13,-1
 448 194 l 1,11,-1
146 -21 m 1,14,-1
 103 -21 l 1,15,-1
 388 442 l 1,16,-1
 431 442 l 1,17,-1
 146 -21 l 1,14,-1
109 174 m 0,18,19
 65 174 65 174 41 196 c 128,-1,20
 17 218 17 218 17 256 c 2,21,-1
 17 261 l 1,22,-1
 52 261 l 1,23,24
 54 228 54 228 68.5 215 c 128,-1,25
 83 202 83 202 109 202 c 0,26,27
 167 202 167 202 167 252 c 0,28,29
 167 300 167 300 102 300 c 0,30,31
 98 300 98 300 95 299.5 c 128,-1,32
 92 299 92 299 87 298 c 1,33,-1
 87 326 l 1,34,-1
 101 326 l 2,35,36
 160 326 160 326 160 369 c 0,37,38
 160 387 160 387 146.5 397.5 c 128,-1,39
 133 408 133 408 112 408 c 0,40,41
 88 408 88 408 74 396.5 c 128,-1,42
 60 385 60 385 59 354 c 1,43,-1
 25 354 l 1,44,45
 29 397 29 397 51 416.5 c 128,-1,46
 73 436 73 436 112 436 c 0,47,48
 150 436 150 436 171.5 418 c 128,-1,49
 193 400 193 400 193 369 c 0,50,51
 193 343 193 343 186 333.5 c 128,-1,52
 179 324 179 324 172 318 c 1,53,54
 174 316 174 316 179 312 c 128,-1,55
 184 308 184 308 189.5 300 c 128,-1,56
 195 292 195 292 199 280 c 128,-1,57
 203 268 203 268 203 252 c 0,58,59
 203 217 203 217 178.5 195.5 c 128,-1,60
 154 174 154 174 109 174 c 0,18,19
EndSplineSet
EndChar

StartChar: multiply
Encoding: 215 215 104
Width: 356
GlyphClass: 2
Flags: W
LayerCount: 2
Back
Fore
SplineSet
319 54 m 2,0,-1
 311 46 l 2,1,2
 305 39 305 39 295 39 c 1,3,-1
 176 161 l 1,4,-1
 65 46 l 2,5,6
 61 42 61 42 54 41 c 2,7,-1
 53 41 l 2,8,9
 46 39 46 39 41 46 c 2,10,-1
 35 53 l 2,11,12
 29 61 29 61 30 66 c 0,13,14
 31 74 31 74 35 78 c 2,15,-1
 146 192 l 1,16,-1
 35 306 l 2,17,18
 32 309 32 309 29 319 c 0,19,20
 29 322 29 322 31 326 c 0,21,22
 32 328 32 328 35 331 c 2,23,-1
 42 338 l 2,24,25
 47 345 47 345 54 343 c 2,26,-1
 55 343 l 2,27,28
 61 343 61 343 66 338 c 2,29,-1
 177 224 l 1,30,-1
 287 337 l 2,31,32
 298 348 298 348 311 337 c 0,33,34
 313 335 313 335 318.5 330.5 c 128,-1,35
 324 326 324 326 324 322 c 0,36,37
 325 318 325 318 324 316 c 0,38,39
 322 310 322 310 318 306 c 2,40,-1
 207 193 l 1,41,-1
 319 79 l 2,42,43
 323 75 323 75 324 66 c 0,44,45
 326 61 326 61 319 54 c 2,0,-1
EndSplineSet
EndChar

StartChar: divide
Encoding: 247 247 105
Width: 353
GlyphClass: 2
Flags: W
LayerCount: 2
Back
Fore
SplineSet
147 279 m 1,0,-1
 147 312 l 1,1,-1
 183 312 l 1,2,-1
 183 279 l 1,3,-1
 147 279 l 1,0,-1
3 159 m 1,4,-1
 3 196 l 1,5,-1
 318 196 l 1,6,-1
 318 159 l 1,7,-1
 3 159 l 1,4,-1
149 28 m 1,8,-1
 149 62 l 1,9,-1
 186 62 l 1,10,-1
 186 28 l 1,11,-1
 149 28 l 1,8,-1
EndSplineSet
EndChar

StartChar: uni0950
Encoding: 2384 2384 106
Width: 568
GlyphClass: 2
Flags: W
LayerCount: 2
Back
Fore
SplineSet
392 409 m 2,0,-1
 380 409 l 2,1,2
 371 409 371 409 367.5 414.5 c 128,-1,3
 364 420 364 420 364 425 c 2,4,-1
 364 443 l 2,5,6
 364 449 364 449 367 455 c 128,-1,7
 370 461 370 461 380 461 c 2,8,-1
 392 461 l 2,9,10
 401 461 401 461 405 455.5 c 128,-1,11
 409 450 409 450 409 443 c 2,12,-1
 409 425 l 2,13,14
 409 409 409 409 392 409 c 2,0,-1
405 334 m 2,15,-1
 366 334 l 2,16,17
 279 334 279 334 279 423 c 2,18,-1
 279 427 l 2,19,20
 279 444 279 444 296 444 c 2,21,-1
 305 444 l 2,22,23
 321 444 321 444 321 427 c 2,24,-1
 321 423 l 2,25,26
 321 395 321 395 329 385 c 128,-1,27
 337 375 337 375 366 375 c 2,28,-1
 405 375 l 2,29,30
 434 375 434 375 442 385 c 128,-1,31
 450 395 450 395 450 423 c 2,32,-1
 450 427 l 2,33,34
 450 436 450 436 455.5 440 c 128,-1,35
 461 444 461 444 467 444 c 2,36,-1
 476 444 l 2,37,38
 492 444 492 444 492 427 c 2,39,-1
 492 423 l 2,40,41
 492 334 492 334 405 334 c 2,15,-1
414 27 m 2,42,-1
 405 27 l 2,43,44
 361 27 361 27 338 49 c 128,-1,45
 315 71 315 71 315 116 c 2,46,-1
 315 169 l 1,47,-1
 255 169 l 1,48,-1
 255 126 l 2,49,50
 255 81 255 81 229.5 54 c 128,-1,51
 204 27 204 27 160 27 c 2,52,-1
 137 27 l 2,53,54
 93 27 93 27 67 52.5 c 128,-1,55
 41 78 41 78 41 126 c 2,56,-1
 41 151 l 2,57,58
 41 159 41 159 45 164 c 128,-1,59
 49 169 49 169 57 169 c 2,60,-1
 66 169 l 2,61,62
 74 169 74 169 78.5 164 c 128,-1,63
 83 159 83 159 83 151 c 2,64,-1
 83 127 l 2,65,66
 83 68 83 68 137 68 c 2,67,-1
 160 68 l 2,68,69
 214 68 214 68 214 127 c 2,70,-1
 214 156 l 2,71,72
 214 211 214 211 160 211 c 2,73,-1
 117 211 l 2,74,75
 108 211 108 211 104.5 216 c 128,-1,76
 101 221 101 221 101 229 c 2,77,-1
 101 237 l 2,78,79
 101 253 101 253 117 253 c 2,80,-1
 160 253 l 2,81,82
 214 253 214 253 214 309 c 2,83,-1
 214 326 l 2,84,85
 214 382 214 382 160 382 c 2,86,-1
 100 382 l 2,87,88
 83 382 83 382 83 399 c 2,89,-1
 83 406 l 2,90,91
 83 414 83 414 88 418 c 128,-1,92
 93 422 93 422 100 422 c 2,93,-1
 160 422 l 2,94,95
 204 422 204 422 229.5 397.5 c 128,-1,96
 255 373 255 373 255 326 c 2,97,-1
 255 308 l 2,98,99
 255 259 255 259 222 233 c 1,100,101
 229 227 229 227 233.5 222 c 128,-1,102
 238 217 238 217 243 209 c 1,103,-1
 321 209 l 2,104,105
 356 209 356 209 356 173 c 2,106,-1
 356 117 l 2,107,108
 356 88 356 88 366 78 c 128,-1,109
 376 68 376 68 405 68 c 2,110,-1
 414 68 l 2,111,112
 442 68 442 68 452 78 c 128,-1,113
 462 88 462 88 462 117 c 2,114,-1
 462 216 l 2,115,116
 462 245 462 245 450.5 257.5 c 128,-1,117
 439 270 439 270 415 270 c 2,118,-1
 341 270 l 2,119,120
 333 270 333 270 328.5 275 c 128,-1,121
 324 280 324 280 324 288 c 2,122,-1
 324 295 l 2,123,124
 324 311 324 311 341 311 c 2,125,-1
 414 311 l 2,126,127
 456 311 456 311 480 287.5 c 128,-1,128
 504 264 504 264 504 216 c 2,129,-1
 504 116 l 2,130,131
 504 71 504 71 481 49 c 128,-1,132
 458 27 458 27 414 27 c 2,42,-1
EndSplineSet
EndChar

StartChar: uni0951
Encoding: 2385 2385 107
Width: 0
GlyphClass: 2
Flags: W
LayerCount: 2
Back
Fore
SplineSet
-219 667 m 1,0,-1
 -219 1020 l 1,1,-1
 -178 1020 l 1,2,-1
 -178 667 l 1,3,-1
 -219 667 l 1,0,-1
EndSplineSet
EndChar

StartChar: uni0952
Encoding: 2386 2386 108
Width: 0
GlyphClass: 2
Flags: W
LayerCount: 2
Back
Fore
SplineSet
-502 -362 m 1,0,-1
 -503 -316 l 1,1,-1
 -52 -316 l 1,2,-1
 -51 -362 l 1,3,-1
 -502 -362 l 1,0,-1
EndSplineSet
EndChar

StartChar: uni0964
Encoding: 2404 2404 109
Width: 109
GlyphClass: 2
Flags: W
LayerCount: 2
Back
Fore
SplineSet
4 0 m 1,0,-1
 4 301 l 1,1,-1
 47 301 l 1,2,-1
 47 0 l 1,3,-1
 4 0 l 1,0,-1
EndSplineSet
EndChar

StartChar: uni0965
Encoding: 2405 2405 110
Width: 262
GlyphClass: 2
Flags: W
LayerCount: 2
Back
Fore
SplineSet
144 0 m 1,0,-1
 144 301 l 1,1,-1
 187 301 l 1,2,-1
 187 0 l 1,3,-1
 144 0 l 1,0,-1
34 0 m 1,4,-1
 34 301 l 1,5,-1
 77 301 l 1,6,-1
 77 0 l 1,7,-1
 34 0 l 1,4,-1
EndSplineSet
EndChar

StartChar: uni0C01
Encoding: 3073 3073 111
Width: 214
GlyphClass: 2
Flags: W
LayerCount: 2
Back
Fore
SplineSet
61 0 m 2,0,1
 39 0 39 0 21.5 17.5 c 128,-1,2
 4 35 4 35 4 64 c 2,3,-1
 4 265 l 2,4,5
 4 292 4 292 21.5 310 c 128,-1,6
 39 328 39 328 61 328 c 2,7,-1
 158 328 l 1,8,-1
 158 287 l 1,9,-1
 64 287 l 2,10,11
 43 287 43 287 43 265 c 2,12,-1
 43 64 l 2,13,14
 43 41 43 41 64 41 c 2,15,-1
 158 41 l 1,16,-1
 158 0 l 1,17,-1
 61 0 l 2,0,1
EndSplineSet
EndChar

StartChar: uni0C02
Encoding: 3074 3074 112
Width: 313
GlyphClass: 2
Flags: W
LayerCount: 2
Back
Fore
SplineSet
204 0 m 2,0,-1
 67 0 l 2,1,2
 45 0 45 0 27 17.5 c 128,-1,3
 9 35 9 35 9 64 c 2,4,-1
 9 265 l 2,5,6
 9 292 9 292 27 310 c 128,-1,7
 45 328 45 328 67 328 c 2,8,-1
 202 328 l 2,9,10
 224 328 224 328 242 310 c 128,-1,11
 260 292 260 292 260 265 c 2,12,-1
 260 64 l 2,13,14
 260 45 260 45 253 32.5 c 128,-1,15
 246 20 246 20 237 13 c 128,-1,16
 228 6 228 6 218.5 3 c 128,-1,17
 209 0 209 0 204 0 c 2,0,-1
220 265 m 2,18,19
 220 276 220 276 214 281.5 c 128,-1,20
 208 287 208 287 200 287 c 2,21,-1
 70 287 l 2,22,23
 49 287 49 287 49 265 c 2,24,-1
 49 64 l 2,25,26
 49 41 49 41 70 41 c 2,27,-1
 200 41 l 2,28,29
 208 41 208 41 214 47 c 128,-1,30
 220 53 220 53 220 64 c 2,31,-1
 220 265 l 2,18,19
EndSplineSet
EndChar

StartChar: uni0C03
Encoding: 3075 3075 113
Width: 221
GlyphClass: 2
Flags: W
LayerCount: 2
Back
Fore
SplineSet
100 184 m 2,0,-1
 61 184 l 2,1,2
 39 184 39 184 21.5 202 c 128,-1,3
 4 220 4 220 4 247 c 2,4,-1
 4 265 l 2,5,6
 4 292 4 292 21.5 310 c 128,-1,7
 39 328 39 328 61 328 c 2,8,-1
 100 328 l 2,9,10
 123 328 123 328 140.5 310 c 128,-1,11
 158 292 158 292 158 265 c 2,12,-1
 158 247 l 2,13,14
 158 220 158 220 140.5 202 c 128,-1,15
 123 184 123 184 100 184 c 2,0,-1
100 0 m 2,16,-1
 61 0 l 2,17,18
 39 0 39 0 21.5 17.5 c 128,-1,19
 4 35 4 35 4 64 c 2,20,-1
 4 80 l 2,21,22
 4 107 4 107 21.5 124.5 c 128,-1,23
 39 142 39 142 61 142 c 2,24,-1
 100 142 l 2,25,26
 123 142 123 142 140.5 124.5 c 128,-1,27
 158 107 158 107 158 80 c 2,28,-1
 158 64 l 2,29,30
 158 35 158 35 140.5 17.5 c 128,-1,31
 123 0 123 0 100 0 c 2,16,-1
119 265 m 2,32,33
 119 287 119 287 98 287 c 2,34,-1
 64 287 l 2,35,36
 43 287 43 287 43 265 c 2,37,-1
 43 247 l 2,38,39
 43 225 43 225 64 225 c 2,40,-1
 98 225 l 2,41,42
 119 225 119 225 119 247 c 2,43,-1
 119 265 l 2,32,33
119 80 m 2,44,45
 119 102 119 102 98 102 c 2,46,-1
 64 102 l 2,47,48
 43 102 43 102 43 80 c 2,49,-1
 43 64 l 2,50,51
 43 41 43 41 64 41 c 2,52,-1
 98 41 l 2,53,54
 119 41 119 41 119 64 c 2,55,-1
 119 80 l 2,44,45
EndSplineSet
EndChar

StartChar: uni0C05
Encoding: 3077 3077 114
Width: 384
GlyphClass: 2
Flags: W
LayerCount: 2
Back
Fore
SplineSet
276 0 m 2,0,-1
 63 0 l 2,1,2
 40 0 40 0 22 17.5 c 128,-1,3
 4 35 4 35 4 64 c 2,4,-1
 4 264 l 2,5,6
 4 293 4 293 22 310.5 c 128,-1,7
 40 328 40 328 63 328 c 2,8,-1
 94 328 l 2,9,10
 116 328 116 328 134.5 310.5 c 128,-1,11
 153 293 153 293 153 264 c 2,12,-1
 153 234 l 2,13,14
 153 205 153 205 134.5 187.5 c 128,-1,15
 116 170 116 170 94 170 c 2,16,-1
 44 170 l 1,17,-1
 44 64 l 2,18,19
 44 53 44 53 50.5 47 c 128,-1,20
 57 41 57 41 65 41 c 2,21,-1
 274 41 l 2,22,23
 282 41 282 41 288.5 47 c 128,-1,24
 295 53 295 53 295 64 c 2,25,-1
 295 265 l 2,26,27
 295 287 295 287 274 287 c 2,28,-1
 247 287 l 2,29,30
 239 287 239 287 232.5 282 c 128,-1,31
 226 277 226 277 226 265 c 2,32,-1
 226 156 l 2,33,34
 226 148 226 148 224 139 c 128,-1,35
 222 130 222 130 217 121.5 c 128,-1,36
 212 113 212 113 204 107.5 c 128,-1,37
 196 102 196 102 184 102 c 2,38,-1
 74 102 l 1,39,-1
 74 143 l 1,40,-1
 158 143 l 2,41,42
 176 143 176 143 181 152.5 c 128,-1,43
 186 162 186 162 186 173 c 2,44,-1
 186 264 l 2,45,46
 186 293 186 293 204.5 310.5 c 128,-1,47
 223 328 223 328 245 328 c 2,48,-1
 276 328 l 2,49,50
 299 328 299 328 317 310.5 c 128,-1,51
 335 293 335 293 335 264 c 2,52,-1
 335 64 l 2,53,54
 335 35 335 35 317 17.5 c 128,-1,55
 299 0 299 0 276 0 c 2,0,-1
112 265 m 2,56,57
 112 287 112 287 92 287 c 2,58,-1
 65 287 l 2,59,60
 44 287 44 287 44 265 c 2,61,-1
 44 211 l 1,62,-1
 92 211 l 2,63,64
 112 211 112 211 112 233 c 2,65,-1
 112 265 l 2,56,57
EndSplineSet
EndChar

StartChar: uni0C06
Encoding: 3078 3078 115
Width: 375
GlyphClass: 2
Flags: W
LayerCount: 2
Back
Fore
SplineSet
264 0 m 2,0,-1
 63 0 l 2,1,2
 40 0 40 0 22 17.5 c 128,-1,3
 4 35 4 35 4 64 c 2,4,-1
 4 264 l 2,5,6
 4 293 4 293 22 310.5 c 128,-1,7
 40 328 40 328 63 328 c 2,8,-1
 94 328 l 2,9,10
 116 328 116 328 134.5 310.5 c 128,-1,11
 153 293 153 293 153 264 c 2,12,-1
 153 234 l 2,13,14
 153 205 153 205 134.5 187.5 c 128,-1,15
 116 170 116 170 94 170 c 2,16,-1
 44 170 l 1,17,-1
 44 64 l 2,18,19
 44 41 44 41 63 41 c 2,20,-1
 262 41 l 2,21,22
 270 41 270 41 276.5 47 c 128,-1,23
 283 53 283 53 283 64 c 2,24,-1
 283 80 l 2,25,26
 283 102 283 102 262 102 c 2,27,-1
 77 102 l 1,28,-1
 77 143 l 1,29,-1
 194 143 l 1,30,-1
 194 152 l 2,31,32
 193 152 193 152 188.5 158 c 128,-1,33
 184 164 184 164 184 172 c 2,34,-1
 184 264 l 2,35,36
 184 293 184 293 202.5 310.5 c 128,-1,37
 221 328 221 328 243 328 c 2,38,-1
 264 328 l 2,39,40
 286 328 286 328 304.5 310.5 c 128,-1,41
 323 293 323 293 323 264 c 2,42,-1
 323 164 l 2,43,44
 323 152 323 152 313.5 140.5 c 128,-1,45
 304 129 304 129 296 129 c 1,46,-1
 295 121 l 1,47,48
 308 119 308 119 315.5 109.5 c 128,-1,49
 323 100 323 100 323 91 c 2,50,-1
 323 64 l 2,51,52
 323 35 323 35 304.5 17.5 c 128,-1,53
 286 0 286 0 264 0 c 2,0,-1
283 265 m 2,54,55
 283 287 283 287 262 287 c 2,56,-1
 245 287 l 2,57,58
 237 287 237 287 230.5 282 c 128,-1,59
 224 277 224 277 224 265 c 2,60,-1
 224 169 l 2,61,62
 224 158 224 158 230.5 152.5 c 128,-1,63
 237 147 237 147 245 147 c 2,64,-1
 262 147 l 2,65,66
 270 147 270 147 276.5 153 c 128,-1,67
 283 159 283 159 283 169 c 2,68,-1
 283 265 l 2,54,55
112 265 m 2,69,70
 112 287 112 287 92 287 c 2,71,-1
 65 287 l 2,72,73
 44 287 44 287 44 265 c 2,74,-1
 44 211 l 1,75,-1
 92 211 l 2,76,77
 112 211 112 211 112 233 c 2,78,-1
 112 265 l 2,69,70
EndSplineSet
EndChar

StartChar: uni0C07
Encoding: 3079 3079 116
Width: 411
GlyphClass: 2
Flags: W
LayerCount: 2
Back
Fore
SplineSet
320 -1 m 1,0,-1
 320 121 l 2,1,2
 320 133 320 133 313.5 139 c 128,-1,3
 307 145 307 145 299 145 c 2,4,-1
 282 145 l 1,5,-1
 282 63 l 2,6,7
 282 34 282 34 264 16.5 c 128,-1,8
 246 -1 246 -1 224 -1 c 2,9,-1
 62 -1 l 2,10,11
 40 -1 40 -1 22 16.5 c 128,-1,12
 4 34 4 34 4 63 c 2,13,-1
 4 121 l 2,14,15
 4 150 4 150 22 168 c 128,-1,16
 40 186 40 186 62 186 c 2,17,-1
 242 186 l 1,18,-1
 242 264 l 2,19,20
 242 276 242 276 236 281.5 c 128,-1,21
 230 287 230 287 222 287 c 2,22,-1
 183 287 l 2,23,24
 162 287 162 287 162 264 c 2,25,-1
 162 246 l 1,26,-1
 123 246 l 1,27,-1
 123 264 l 2,28,29
 123 275 123 275 116 281 c 128,-1,30
 109 287 109 287 101 287 c 2,31,-1
 65 287 l 2,32,33
 44 287 44 287 44 264 c 2,34,-1
 44 226 l 1,35,-1
 4 226 l 1,36,-1
 4 264 l 2,37,38
 4 293 4 293 22 310.5 c 128,-1,39
 40 328 40 328 62 328 c 2,40,-1
 103 328 l 2,41,42
 126 328 126 328 143 304 c 1,43,44
 148 318 148 318 154.5 323 c 128,-1,45
 161 328 161 328 171 328 c 2,46,-1
 224 328 l 2,47,48
 246 328 246 328 264 310.5 c 128,-1,49
 282 293 282 293 282 264 c 2,50,-1
 282 186 l 1,51,-1
 305 186 l 2,52,53
 327 186 327 186 343 170 c 128,-1,54
 359 154 359 154 359 125 c 2,55,-1
 359 -1 l 1,56,-1
 320 -1 l 1,0,-1
242 145 m 1,57,-1
 65 145 l 2,58,59
 57 145 57 145 50.5 139 c 128,-1,60
 44 133 44 133 44 121 c 2,61,-1
 44 63 l 2,62,63
 44 52 44 52 50.5 46 c 128,-1,64
 57 40 57 40 65 40 c 2,65,-1
 223 40 l 2,66,67
 242 40 242 40 242 63 c 2,68,-1
 242 145 l 1,57,-1
EndSplineSet
EndChar

StartChar: uni0C08
Encoding: 3080 3080 117
Width: 521
GlyphClass: 2
Flags: W
LayerCount: 2
Back
Fore
SplineSet
323 154 m 2,0,1
 325 156 325 156 328 163 c 1,2,-1
 281 163 l 1,3,-1
 281 56 l 2,4,5
 281 31 281 31 265 15.5 c 128,-1,6
 249 0 249 0 229 0 c 2,7,-1
 96 0 l 2,8,9
 76 0 76 0 61 15 c 128,-1,10
 46 30 46 30 46 56 c 2,11,-1
 46 163 l 1,12,-1
 4 163 l 1,13,-1
 4 204 l 1,14,-1
 46 204 l 1,15,-1
 46 272 l 2,16,17
 46 293 46 293 66 313 c 1,18,19
 54 331 54 331 54 345 c 2,20,-1
 54 393 l 1,21,-1
 94 393 l 1,22,-1
 94 350 l 2,23,24
 94 338 94 338 100 334 c 128,-1,25
 106 330 106 330 116 328 c 2,26,-1
 156 328 l 1,27,-1
 156 375 l 2,28,29
 156 400 156 400 172.5 416 c 128,-1,30
 189 432 189 432 209 432 c 2,31,-1
 279 432 l 1,32,-1
 279 391 l 1,33,-1
 215 391 l 2,34,35
 206 391 206 391 202 385 c 128,-1,36
 198 379 198 379 198 370 c 2,37,-1
 198 328 l 1,38,-1
 229 328 l 2,39,40
 249 328 249 328 265 312.5 c 128,-1,41
 281 297 281 297 281 272 c 2,42,-1
 281 204 l 1,43,-1
 406 204 l 2,44,45
 423 204 423 204 423 223 c 2,46,-1
 423 268 l 2,47,48
 423 287 423 287 406 287 c 2,49,-1
 383 287 l 2,50,51
 363 287 363 287 363 268 c 2,52,-1
 363 251 l 1,53,-1
 323 251 l 1,54,-1
 323 272 l 2,55,56
 323 304 323 304 334.5 316 c 128,-1,57
 346 328 346 328 373 328 c 2,58,-1
 415 328 l 2,59,60
 464 328 464 328 464 272 c 2,61,-1
 464 219 l 2,62,63
 464 211 464 211 461 201.5 c 128,-1,64
 458 192 458 192 447 181 c 1,65,66
 455 174 455 174 457 169.5 c 128,-1,67
 459 165 459 165 462 156 c 2,68,-1
 463 147 l 2,69,70
 464 145 464 145 464 142 c 2,71,-1
 464 56 l 2,72,73
 464 30 464 30 449 15 c 128,-1,74
 434 0 434 0 415 0 c 2,75,-1
 376 0 l 2,76,77
 356 0 356 0 339.5 15.5 c 128,-1,78
 323 31 323 31 323 56 c 2,79,-1
 323 150 l 1,80,-1
 323 154 l 2,0,1
423 144 m 2,81,82
 423 162 423 162 406 162 c 2,83,-1
 381 162 l 2,84,85
 363 162 363 162 363 144 c 2,86,-1
 363 59 l 2,87,88
 363 41 363 41 381 41 c 2,89,-1
 406 41 l 2,90,91
 423 41 423 41 423 59 c 2,92,-1
 423 144 l 2,81,82
241 268 m 2,93,94
 241 277 241 277 235.5 282 c 128,-1,95
 230 287 230 287 222 287 c 2,96,-1
 107 287 l 2,97,98
 86 287 86 287 86 268 c 2,99,-1
 86 204 l 1,100,-1
 241 204 l 1,101,-1
 241 268 l 2,93,94
241 163 m 1,102,-1
 86 163 l 1,103,-1
 86 59 l 2,104,105
 86 50 86 50 92 45.5 c 128,-1,106
 98 41 98 41 107 41 c 2,107,-1
 222 41 l 2,108,109
 230 41 230 41 235.5 45.5 c 128,-1,110
 241 50 241 50 241 59 c 2,111,-1
 241 163 l 1,102,-1
EndSplineSet
EndChar

StartChar: uni0C09
Encoding: 3081 3081 118
Width: 359
GlyphClass: 2
Flags: W
LayerCount: 2
Back
Fore
SplineSet
248 0 m 2,0,-1
 200 0 l 2,1,2
 198 -1 198 -1 188.5 1 c 128,-1,3
 179 3 179 3 163 17 c 1,4,5
 155 9 155 9 144.5 4.5 c 128,-1,6
 134 0 134 0 122 0 c 2,7,-1
 74 0 l 2,8,9
 55 0 55 0 39 16 c 128,-1,10
 23 32 23 32 23 55 c 2,11,-1
 23 163 l 1,12,-1
 4 163 l 1,13,-1
 4 204 l 1,14,-1
 23 204 l 1,15,-1
 23 273 l 2,16,17
 23 298 23 298 39 313 c 128,-1,18
 55 328 55 328 74 328 c 2,19,-1
 140 328 l 1,20,-1
 140 390 l 1,21,-1
 180 390 l 1,22,-1
 180 328 l 1,23,-1
 248 328 l 2,24,25
 268 328 268 328 284.5 313 c 128,-1,26
 301 298 301 298 301 273 c 2,27,-1
 301 247 l 1,28,-1
 261 247 l 1,29,-1
 261 269 l 2,30,31
 261 277 261 277 257 282 c 128,-1,32
 253 287 253 287 245 287 c 2,33,-1
 80 287 l 2,34,35
 62 287 62 287 62 269 c 2,36,-1
 62 204 l 1,37,-1
 171 204 l 1,38,-1
 171 163 l 1,39,-1
 62 163 l 1,40,-1
 62 61 l 2,41,42
 62 41 62 41 80 41 c 2,43,-1
 123 41 l 2,44,45
 134 41 134 41 138 46.5 c 128,-1,46
 142 52 142 52 142 60 c 2,47,-1
 142 91 l 1,48,-1
 182 91 l 1,49,-1
 182 61 l 2,50,51
 182 41 182 41 200 41 c 2,52,-1
 245 41 l 2,53,54
 253 41 253 41 257 47 c 128,-1,55
 261 53 261 53 261 62 c 2,56,-1
 261 143 l 2,57,58
 261 163 261 163 245 163 c 2,59,-1
 223 163 l 1,60,-1
 223 204 l 1,61,-1
 248 204 l 2,62,63
 268 204 268 204 284.5 189 c 128,-1,64
 301 174 301 174 301 149 c 2,65,-1
 301 57 l 2,66,67
 301 32 301 32 284.5 16 c 128,-1,68
 268 0 268 0 248 0 c 2,0,-1
EndSplineSet
EndChar

StartChar: uni0C0A
Encoding: 3082 3082 119
Width: 566
GlyphClass: 2
Flags: W
LayerCount: 2
Back
Fore
SplineSet
455 0 m 2,0,-1
 419 0 l 2,1,2
 399 0 399 0 383 14.5 c 128,-1,3
 367 29 367 29 367 54 c 2,4,-1
 367 133 l 2,5,6
 367 146 367 146 372 160 c 1,7,-1
 328 160 l 1,8,-1
 328 201 l 1,9,-1
 450 201 l 2,10,11
 467 201 467 201 467 216 c 2,12,-1
 467 268 l 2,13,14
 467 279 467 279 462.5 283 c 128,-1,15
 458 287 458 287 450 287 c 2,16,-1
 421 287 l 2,17,18
 413 287 413 287 409 281 c 128,-1,19
 405 275 405 275 405 268 c 2,20,-1
 405 236 l 1,21,-1
 364 236 l 1,22,-1
 364 272 l 2,23,24
 364 295 364 295 380 311.5 c 128,-1,25
 396 328 396 328 416 328 c 2,26,-1
 455 328 l 2,27,28
 475 328 475 328 491 311.5 c 128,-1,29
 507 295 507 295 507 272 c 2,30,-1
 507 217 l 2,31,32
 507 201 507 201 504 193.5 c 128,-1,33
 501 186 501 186 492 178 c 1,34,35
 500 173 500 173 503 168 c 128,-1,36
 506 163 506 163 507 158 c 0,37,38
 508 152 508 152 507.5 146.5 c 128,-1,39
 507 141 507 141 507 138 c 2,40,-1
 507 54 l 2,41,42
 507 29 507 29 491 14.5 c 128,-1,43
 475 0 475 0 455 0 c 2,0,-1
248 0 m 2,44,-1
 200 0 l 2,45,46
 198 -1 198 -1 188.5 1 c 128,-1,47
 179 3 179 3 163 17 c 1,48,49
 155 9 155 9 144.5 4.5 c 128,-1,50
 134 0 134 0 122 0 c 2,51,-1
 74 0 l 2,52,53
 55 0 55 0 39 16 c 128,-1,54
 23 32 23 32 23 55 c 2,55,-1
 23 163 l 1,56,-1
 4 163 l 1,57,-1
 4 204 l 1,58,-1
 23 204 l 1,59,-1
 23 273 l 2,60,61
 23 298 23 298 39 313 c 128,-1,62
 55 328 55 328 74 328 c 2,63,-1
 102 328 l 1,64,-1
 102 388 l 1,65,-1
 143 388 l 1,66,-1
 143 328 l 1,67,-1
 183 328 l 1,68,-1
 183 388 l 1,69,-1
 224 388 l 1,70,-1
 224 328 l 1,71,-1
 248 328 l 2,72,73
 268 328 268 328 284.5 313 c 128,-1,74
 301 298 301 298 301 273 c 2,75,-1
 301 247 l 1,76,-1
 261 247 l 1,77,-1
 261 269 l 2,78,79
 261 277 261 277 257 282 c 128,-1,80
 253 287 253 287 245 287 c 2,81,-1
 80 287 l 2,82,83
 62 287 62 287 62 269 c 2,84,-1
 62 204 l 1,85,-1
 171 204 l 1,86,-1
 171 163 l 1,87,-1
 62 163 l 1,88,-1
 62 61 l 2,89,90
 62 41 62 41 80 41 c 2,91,-1
 123 41 l 2,92,93
 134 41 134 41 138 46.5 c 128,-1,94
 142 52 142 52 142 60 c 2,95,-1
 142 91 l 1,96,-1
 182 91 l 1,97,-1
 182 61 l 2,98,99
 182 41 182 41 200 41 c 2,100,-1
 245 41 l 2,101,102
 253 41 253 41 257 47 c 128,-1,103
 261 53 261 53 261 62 c 2,104,-1
 261 143 l 2,105,106
 261 163 261 163 245 163 c 2,107,-1
 223 163 l 1,108,-1
 223 204 l 1,109,-1
 248 204 l 2,110,111
 268 204 268 204 284.5 189 c 128,-1,112
 301 174 301 174 301 149 c 2,113,-1
 301 57 l 2,114,115
 301 32 301 32 284.5 16 c 128,-1,116
 268 0 268 0 248 0 c 2,44,-1
467 138 m 2,117,118
 467 157 467 157 450 157 c 2,119,-1
 424 157 l 2,120,121
 408 157 408 157 408 138 c 2,122,-1
 408 56 l 2,123,124
 408 41 408 41 424 41 c 2,125,-1
 450 41 l 2,126,127
 467 41 467 41 467 56 c 2,128,-1
 467 138 l 2,117,118
EndSplineSet
EndChar

StartChar: uni0C0B
Encoding: 3083 3083 120
Width: 608
GlyphClass: 2
Flags: W
LayerCount: 2
Back
Fore
SplineSet
500 0 m 2,0,-1
 450 0 l 2,1,2
 439 0 439 0 427.5 5 c 128,-1,3
 416 10 416 10 407 21 c 1,4,5
 386 0 386 0 364 0 c 2,6,-1
 314 0 l 2,7,8
 304 0 304 0 292 5.5 c 128,-1,9
 280 11 280 11 271 22 c 1,10,11
 250 0 250 0 227 0 c 2,12,-1
 179 0 l 2,13,14
 171 0 171 0 161.5 4 c 128,-1,15
 152 8 152 8 145 17 c 1,16,17
 138 6 138 6 127 3 c 128,-1,18
 116 0 116 0 105 0 c 2,19,-1
 63 0 l 2,20,21
 40 0 40 0 22 17.5 c 128,-1,22
 4 35 4 35 4 64 c 2,23,-1
 4 141 l 2,24,25
 4 170 4 170 22 187.5 c 128,-1,26
 40 205 40 205 63 205 c 2,27,-1
 102 205 l 2,28,29
 124 205 124 205 124 227 c 2,30,-1
 124 265 l 2,31,32
 124 287 124 287 102 287 c 2,33,-1
 65 287 l 2,34,35
 44 287 44 287 44 265 c 2,36,-1
 44 246 l 1,37,-1
 4 246 l 1,38,-1
 4 264 l 2,39,40
 4 293 4 293 22 310.5 c 128,-1,41
 40 328 40 328 63 328 c 2,42,-1
 104 328 l 2,43,44
 127 328 127 328 145 310.5 c 128,-1,45
 163 293 163 293 163 264 c 2,46,-1
 163 228 l 2,47,48
 163 199 163 199 145 181.5 c 128,-1,49
 127 164 127 164 104 164 c 2,50,-1
 65 164 l 2,51,52
 57 164 57 164 50.5 158 c 128,-1,53
 44 152 44 152 44 141 c 2,54,-1
 44 64 l 2,55,56
 44 53 44 53 50.5 47 c 128,-1,57
 57 41 57 41 65 41 c 2,58,-1
 102 41 l 2,59,60
 124 41 124 41 124 64 c 2,61,-1
 124 92 l 1,62,-1
 163 92 l 1,63,-1
 163 64 l 2,64,65
 163 41 163 41 185 41 c 2,66,-1
 225 41 l 2,67,68
 233 41 233 41 239.5 47 c 128,-1,69
 246 53 246 53 246 64 c 2,70,-1
 246 265 l 2,71,72
 246 287 246 287 225 287 c 2,73,-1
 205 287 l 1,74,-1
 205 328 l 1,75,-1
 227 328 l 2,76,77
 249 328 249 328 267.5 310.5 c 128,-1,78
 286 293 286 293 286 264 c 2,79,-1
 286 82 l 2,80,81
 286 62 286 62 295 52 c 128,-1,82
 304 42 304 42 316 42 c 2,83,-1
 362 42 l 2,84,85
 370 42 370 42 376.5 48 c 128,-1,86
 383 54 383 54 383 65 c 2,87,-1
 383 266 l 2,88,89
 383 288 383 288 362 288 c 2,90,-1
 351 288 l 1,91,-1
 351 329 l 1,92,-1
 364 329 l 2,93,94
 386 329 386 329 404 311.5 c 128,-1,95
 422 294 422 294 422 265 c 2,96,-1
 422 81 l 2,97,98
 422 61 422 61 431 51 c 128,-1,99
 440 41 440 41 452 41 c 2,100,-1
 498 41 l 2,101,102
 506 41 506 41 512.5 47 c 128,-1,103
 519 53 519 53 519 64 c 2,104,-1
 519 265 l 2,105,106
 519 287 519 287 498 287 c 2,107,-1
 487 287 l 1,108,-1
 487 328 l 1,109,-1
 500 328 l 2,110,111
 522 328 522 328 540 310.5 c 128,-1,112
 558 293 558 293 558 264 c 2,113,-1
 558 64 l 2,114,115
 558 35 558 35 540 17.5 c 128,-1,116
 522 0 522 0 500 0 c 2,0,-1
EndSplineSet
EndChar

StartChar: uni0C0C
Encoding: 3084 3084 121
Width: 362
GlyphClass: 2
Flags: W
LayerCount: 2
Back
Fore
SplineSet
229 -141 m 2,0,-1
 151 -141 l 2,1,2
 128 -141 128 -141 110 -123 c 128,-1,3
 92 -105 92 -105 92 -76 c 2,4,-1
 92 76 l 2,5,6
 92 105 92 105 110.5 120 c 128,-1,7
 129 135 129 135 149 140 c 2,8,-1
 223 159 l 2,9,10
 249 165 249 165 249 185 c 2,11,-1
 249 263 l 2,12,13
 249 288 249 288 226 288 c 2,14,-1
 189 288 l 2,15,16
 166 288 166 288 166 263 c 2,17,-1
 166 245 l 1,18,-1
 128 245 l 1,19,-1
 128 263 l 2,20,21
 128 276 128 276 121 282 c 128,-1,22
 114 288 114 288 106 288 c 2,23,-1
 65 288 l 2,24,25
 42 288 42 288 42 263 c 2,26,-1
 42 206 l 2,27,28
 42 181 42 181 65 181 c 2,29,-1
 73 181 l 1,30,-1
 73 143 l 1,31,-1
 63 143 l 2,32,33
 40 143 40 143 22.5 160.5 c 128,-1,34
 5 178 5 178 5 207 c 2,35,-1
 5 263 l 2,36,37
 5 292 5 292 22.5 310 c 128,-1,38
 40 328 40 328 63 328 c 2,39,-1
 110 328 l 2,40,41
 118 328 118 328 127 325 c 128,-1,42
 136 322 136 322 146 314 c 1,43,44
 157 323 157 323 167 325.5 c 128,-1,45
 177 328 177 328 185 328 c 2,46,-1
 229 328 l 2,47,48
 252 328 252 328 269.5 310 c 128,-1,49
 287 292 287 292 287 263 c 2,50,-1
 287 185 l 2,51,52
 287 155 287 155 268 140 c 128,-1,53
 249 125 249 125 231 120 c 2,54,-1
 156 101 l 2,55,56
 146 99 146 99 138 90 c 128,-1,57
 130 81 130 81 130 68 c 2,58,-1
 130 -77 l 2,59,60
 130 -101 130 -101 153 -101 c 2,61,-1
 226 -101 l 2,62,63
 249 -101 249 -101 249 -77 c 2,64,-1
 249 41 l 1,65,-1
 287 41 l 1,66,-1
 287 -77 l 2,67,68
 287 -105 287 -105 269.5 -123 c 128,-1,69
 252 -141 252 -141 229 -141 c 2,0,-1
EndSplineSet
EndChar

StartChar: uni0C0E
Encoding: 3086 3086 122
Width: 348
GlyphClass: 2
Flags: W
LayerCount: 2
Back
Fore
SplineSet
226 0 m 2,0,-1
 182 0 l 2,1,2
 165 0 165 0 146 16 c 1,3,4
 127 0 127 0 106 0 c 2,5,-1
 63 0 l 2,6,7
 40 0 40 0 22 18 c 128,-1,8
 4 36 4 36 4 64 c 2,9,-1
 4 152 l 2,10,11
 4 181 4 181 22 199 c 128,-1,12
 40 217 40 217 63 217 c 2,13,-1
 106 217 l 2,14,15
 128 217 128 217 146.5 199 c 128,-1,16
 165 181 165 181 165 152 c 2,17,-1
 165 64 l 1,18,-1
 165 55 l 1,19,20
 173 41 173 41 187 41 c 2,21,-1
 224 41 l 2,22,23
 232 41 232 41 238 47 c 128,-1,24
 244 53 244 53 244 64 c 2,25,-1
 244 287 l 2,26,27
 244 309 244 309 224 309 c 2,28,-1
 145 309 l 1,29,-1
 145 351 l 1,30,-1
 226 351 l 2,31,32
 248 351 248 351 266.5 333 c 128,-1,33
 285 315 285 315 285 286 c 2,34,-1
 285 64 l 2,35,36
 285 36 285 36 266.5 18 c 128,-1,37
 248 0 248 0 226 0 c 2,0,-1
125 153 m 2,38,39
 125 164 125 164 118.5 170 c 128,-1,40
 112 176 112 176 104 176 c 2,41,-1
 65 176 l 2,42,43
 44 176 44 176 44 153 c 2,44,-1
 44 64 l 2,45,46
 44 53 44 53 50.5 47 c 128,-1,47
 57 41 57 41 65 41 c 2,48,-1
 104 41 l 2,49,50
 112 41 112 41 118.5 47 c 128,-1,51
 125 53 125 53 125 64 c 2,52,-1
 125 153 l 2,38,39
EndSplineSet
EndChar

StartChar: uni0C0F
Encoding: 3087 3087 123
Width: 348
GlyphClass: 2
Flags: W
LayerCount: 2
Back
Fore
SplineSet
82 385 m 2,0,1
 60 385 60 385 60 363 c 2,2,-1
 60 304 l 1,3,-1
 21 304 l 1,4,-1
 21 362 l 2,5,6
 21 390 21 390 39 408 c 128,-1,7
 57 426 57 426 80 426 c 2,8,-1
 151 426 l 1,9,-1
 151 385 l 1,10,-1
 82 385 l 2,0,1
226 0 m 2,11,-1
 182 0 l 2,12,13
 165 0 165 0 146 15 c 1,14,15
 126 0 126 0 106 0 c 2,16,-1
 63 0 l 2,17,18
 40 0 40 0 22 18 c 128,-1,19
 4 36 4 36 4 64 c 2,20,-1
 4 152 l 2,21,22
 4 180 4 180 22 198 c 128,-1,23
 40 216 40 216 63 216 c 2,24,-1
 106 216 l 2,25,26
 128 216 128 216 146.5 198 c 128,-1,27
 165 180 165 180 165 152 c 2,28,-1
 165 64 l 1,29,-1
 165 55 l 1,30,31
 173 41 173 41 187 41 c 2,32,-1
 224 41 l 2,33,34
 232 41 232 41 238 47 c 128,-1,35
 244 53 244 53 244 64 c 2,36,-1
 244 285 l 2,37,38
 244 308 244 308 224 308 c 2,39,-1
 145 308 l 1,40,-1
 145 350 l 1,41,-1
 226 350 l 2,42,43
 248 350 248 350 266.5 331.5 c 128,-1,44
 285 313 285 313 285 284 c 2,45,-1
 285 64 l 2,46,47
 285 36 285 36 266.5 18 c 128,-1,48
 248 0 248 0 226 0 c 2,11,-1
125 153 m 2,49,50
 125 164 125 164 118.5 169.5 c 128,-1,51
 112 175 112 175 104 175 c 2,52,-1
 65 175 l 2,53,54
 44 175 44 175 44 153 c 2,55,-1
 44 64 l 2,56,57
 44 53 44 53 50.5 47 c 128,-1,58
 57 41 57 41 65 41 c 2,59,-1
 104 41 l 2,60,61
 112 41 112 41 118.5 47 c 128,-1,62
 125 53 125 53 125 64 c 2,63,-1
 125 153 l 2,49,50
EndSplineSet
EndChar

StartChar: uni0C10
Encoding: 3088 3088 124
Width: 347
GlyphClass: 2
Flags: W
LayerCount: 2
Back
Fore
SplineSet
225 0 m 2,0,-1
 177 0 l 2,1,2
 169 0 169 0 161 4 c 128,-1,3
 153 8 153 8 143 15 c 1,4,5
 123 0 123 0 104 0 c 2,6,-1
 62 0 l 2,7,8
 40 0 40 0 22 17.5 c 128,-1,9
 4 35 4 35 4 64 c 2,10,-1
 4 140 l 2,11,12
 4 169 4 169 22 186 c 128,-1,13
 40 203 40 203 62 203 c 2,14,-1
 104 203 l 2,15,16
 127 203 127 203 145 186 c 128,-1,17
 163 169 163 169 163 140 c 2,18,-1
 163 64 l 1,19,-1
 163 56 l 1,20,21
 172 41 172 41 187 41 c 2,22,-1
 223 41 l 2,23,24
 231 41 231 41 237 47 c 128,-1,25
 243 53 243 53 243 64 c 2,26,-1
 243 265 l 2,27,28
 243 287 243 287 223 287 c 2,29,-1
 183 287 l 2,30,31
 162 287 162 287 162 265 c 2,32,-1
 162 246 l 1,33,-1
 123 246 l 1,34,-1
 123 265 l 2,35,36
 123 277 123 277 116 282 c 128,-1,37
 109 287 109 287 101 287 c 2,38,-1
 65 287 l 2,39,40
 44 287 44 287 44 265 c 2,41,-1
 44 236 l 1,42,-1
 4 236 l 1,43,-1
 4 265 l 2,44,45
 4 292 4 292 22 310 c 128,-1,46
 40 328 40 328 62 328 c 2,47,-1
 104 328 l 2,48,49
 124 328 124 328 144 311 c 1,50,51
 150 319 150 319 158.5 323.5 c 128,-1,52
 167 328 167 328 172 328 c 2,53,-1
 225 328 l 2,54,55
 247 328 247 328 265 311 c 128,-1,56
 283 294 283 294 283 265 c 2,57,-1
 283 64 l 2,58,59
 283 35 283 35 265 17.5 c 128,-1,60
 247 0 247 0 225 0 c 2,0,-1
124 140 m 2,61,62
 124 162 124 162 102 162 c 2,63,-1
 65 162 l 2,64,65
 44 162 44 162 44 140 c 2,66,-1
 44 64 l 2,67,68
 44 53 44 53 50.5 47 c 128,-1,69
 57 41 57 41 65 41 c 2,70,-1
 102 41 l 2,71,72
 124 41 124 41 124 64 c 2,73,-1
 124 140 l 2,61,62
EndSplineSet
EndChar

StartChar: uni0C12
Encoding: 3090 3090 125
Width: 318
GlyphClass: 2
Flags: W
LayerCount: 2
Back
Fore
SplineSet
207 0 m 2,0,-1
 170 0 l 2,1,2
 161 0 161 0 151.5 4.5 c 128,-1,3
 142 9 142 9 136 15 c 1,4,5
 125 9 125 9 115.5 4.5 c 128,-1,6
 106 0 106 0 95 0 c 2,7,-1
 63 0 l 2,8,9
 40 0 40 0 22 17.5 c 128,-1,10
 4 35 4 35 4 64 c 2,11,-1
 4 141 l 2,12,13
 4 170 4 170 22 187.5 c 128,-1,14
 40 205 40 205 63 205 c 2,15,-1
 102 205 l 2,16,17
 124 205 124 205 124 227 c 2,18,-1
 124 265 l 2,19,20
 124 287 124 287 102 287 c 2,21,-1
 65 287 l 2,22,23
 44 287 44 287 44 265 c 2,24,-1
 44 236 l 1,25,-1
 4 236 l 1,26,-1
 4 264 l 2,27,28
 4 293 4 293 22 310.5 c 128,-1,29
 40 328 40 328 63 328 c 2,30,-1
 104 328 l 2,31,32
 127 328 127 328 145 310.5 c 128,-1,33
 163 293 163 293 163 264 c 2,34,-1
 163 228 l 2,35,36
 163 199 163 199 145 181.5 c 128,-1,37
 127 164 127 164 104 164 c 2,38,-1
 65 164 l 2,39,40
 57 164 57 164 50.5 158 c 128,-1,41
 44 152 44 152 44 141 c 2,42,-1
 44 64 l 2,43,44
 44 53 44 53 50.5 47 c 128,-1,45
 57 41 57 41 65 41 c 2,46,-1
 92 41 l 2,47,48
 114 41 114 41 114 64 c 2,49,-1
 114 92 l 1,50,-1
 153 92 l 1,51,-1
 153 64 l 2,52,53
 153 41 153 41 175 41 c 2,54,-1
 205 41 l 2,55,56
 213 41 213 41 219.5 47 c 128,-1,57
 226 53 226 53 226 64 c 2,58,-1
 226 115 l 1,59,-1
 266 115 l 1,60,-1
 266 64 l 2,61,62
 266 35 266 35 247.5 17.5 c 128,-1,63
 229 0 229 0 207 0 c 2,0,-1
EndSplineSet
EndChar

StartChar: uni0C13
Encoding: 3091 3091 126
Width: 318
GlyphClass: 2
Flags: W
LayerCount: 2
Back
Fore
SplineSet
207 0 m 2,0,-1
 170 0 l 2,1,2
 161 0 161 0 151.5 4.5 c 128,-1,3
 142 9 142 9 136 15 c 1,4,5
 125 9 125 9 115.5 4.5 c 128,-1,6
 106 0 106 0 95 0 c 2,7,-1
 63 0 l 2,8,9
 40 0 40 0 22 17.5 c 128,-1,10
 4 35 4 35 4 63 c 2,11,-1
 4 141 l 2,12,13
 4 169 4 169 22 186.5 c 128,-1,14
 40 204 40 204 63 204 c 2,15,-1
 102 204 l 2,16,17
 124 204 124 204 124 225 c 2,18,-1
 124 264 l 2,19,20
 124 285 124 285 102 285 c 2,21,-1
 65 285 l 2,22,23
 44 285 44 285 44 264 c 2,24,-1
 44 234 l 1,25,-1
 4 234 l 1,26,-1
 4 263 l 2,27,28
 4 291 4 291 21.5 308 c 128,-1,29
 39 325 39 325 61 326 c 1,30,-1
 61 369 l 2,31,32
 61 426 61 426 112 426 c 2,33,-1
 144 426 l 2,34,35
 170 426 170 426 182 414 c 128,-1,36
 194 402 194 402 194 370 c 2,37,-1
 194 349 l 1,38,-1
 154 349 l 1,39,-1
 154 365 l 2,40,41
 154 385 154 385 133 385 c 2,42,-1
 119 385 l 2,43,44
 101 383 101 383 101 365 c 2,45,-1
 101 326 l 1,46,-1
 104 326 l 2,47,48
 127 326 127 326 145 308.5 c 128,-1,49
 163 291 163 291 163 263 c 2,50,-1
 163 226 l 2,51,52
 163 198 163 198 145 180.5 c 128,-1,53
 127 163 127 163 104 163 c 2,54,-1
 65 163 l 2,55,56
 57 163 57 163 50.5 157.5 c 128,-1,57
 44 152 44 152 44 141 c 2,58,-1
 44 63 l 2,59,60
 44 52 44 52 50.5 46.5 c 128,-1,61
 57 41 57 41 65 41 c 2,62,-1
 92 41 l 2,63,64
 114 41 114 41 114 63 c 2,65,-1
 114 92 l 1,66,-1
 153 92 l 1,67,-1
 153 63 l 2,68,69
 153 41 153 41 175 41 c 2,70,-1
 205 41 l 2,71,72
 213 41 213 41 219.5 46.5 c 128,-1,73
 226 52 226 52 226 63 c 2,74,-1
 226 114 l 1,75,-1
 266 114 l 1,76,-1
 266 63 l 2,77,78
 266 35 266 35 247.5 17.5 c 128,-1,79
 229 0 229 0 207 0 c 2,0,-1
EndSplineSet
EndChar

StartChar: uni0C14
Encoding: 3092 3092 127
Width: 416
GlyphClass: 2
Flags: W
LayerCount: 2
Back
Fore
SplineSet
302 170 m 2,0,-1
 276 170 l 2,1,2
 253 170 253 170 235.5 188 c 128,-1,3
 218 206 218 206 218 234 c 2,4,-1
 218 270 l 2,5,6
 218 299 218 299 235.5 315.5 c 128,-1,7
 253 332 253 332 276 332 c 2,8,-1
 320 332 l 1,9,-1
 320 362 l 2,10,11
 320 384 320 384 298 384 c 2,12,-1
 162 384 l 1,13,14
 167 371 167 371 167 365 c 2,15,-1
 167 335 l 2,16,17
 167 317 167 317 151 301 c 1,18,19
 163 281 163 281 163 263 c 2,20,-1
 163 226 l 2,21,22
 163 198 163 198 145 180.5 c 128,-1,23
 127 163 127 163 104 163 c 2,24,-1
 65 163 l 2,25,26
 57 163 57 163 50.5 157.5 c 128,-1,27
 44 152 44 152 44 141 c 2,28,-1
 44 63 l 2,29,30
 44 52 44 52 50.5 46.5 c 128,-1,31
 57 41 57 41 65 41 c 2,32,-1
 92 41 l 2,33,34
 114 41 114 41 114 63 c 2,35,-1
 114 92 l 1,36,-1
 153 92 l 1,37,-1
 153 63 l 2,38,39
 153 41 153 41 175 41 c 2,40,-1
 205 41 l 2,41,42
 213 41 213 41 219.5 46.5 c 128,-1,43
 226 52 226 52 226 63 c 2,44,-1
 226 114 l 1,45,-1
 266 114 l 1,46,-1
 266 63 l 2,47,48
 266 35 266 35 247.5 17.5 c 128,-1,49
 229 0 229 0 207 0 c 2,50,-1
 170 0 l 2,51,52
 161 0 161 0 151.5 4.5 c 128,-1,53
 142 9 142 9 136 15 c 1,54,55
 125 9 125 9 115.5 4.5 c 128,-1,56
 106 0 106 0 95 0 c 2,57,-1
 63 0 l 2,58,59
 40 0 40 0 22 17.5 c 128,-1,60
 4 35 4 35 4 63 c 2,61,-1
 4 141 l 2,62,63
 4 169 4 169 22 186.5 c 128,-1,64
 40 204 40 204 63 204 c 2,65,-1
 102 204 l 2,66,67
 124 204 124 204 124 225 c 2,68,-1
 124 264 l 2,69,70
 124 285 124 285 102 285 c 2,71,-1
 68 285 l 1,72,-1
 65 285 l 2,73,74
 44 285 44 285 44 264 c 2,75,-1
 44 234 l 1,76,-1
 4 234 l 1,77,-1
 4 263 l 2,78,79
 4 291 4 291 22 308.5 c 128,-1,80
 40 326 40 326 63 326 c 2,81,-1
 66 326 l 1,82,-1
 104 326 l 1,83,-1
 107 326 l 1,84,-1
 112 326 l 2,85,86
 121 326 121 326 123.5 331 c 128,-1,87
 126 336 126 336 126 342 c 2,88,-1
 126 364 l 2,89,90
 126 378 126 378 113 384 c 1,91,-1
 4 384 l 1,92,-1
 4 426 l 1,93,-1
 302 426 l 2,94,95
 325 426 325 426 342.5 408 c 128,-1,96
 360 390 360 390 360 362 c 2,97,-1
 360 234 l 2,98,99
 360 206 360 206 342.5 188 c 128,-1,100
 325 170 325 170 302 170 c 2,0,-1
320 291 m 1,101,-1
 280 291 l 2,102,103
 272 291 272 291 265.5 285.5 c 128,-1,104
 259 280 259 280 259 268 c 2,105,-1
 259 234 l 2,106,107
 259 223 259 223 265.5 217.5 c 128,-1,108
 272 212 272 212 280 212 c 2,109,-1
 298 212 l 2,110,111
 320 212 320 212 320 234 c 2,112,-1
 320 291 l 1,101,-1
EndSplineSet
EndChar

StartChar: uni0C15
Encoding: 3093 3093 128
Width: 303
GlyphClass: 2
Flags: W
LayerCount: 2
Back
Fore
SplineSet
184 413 m 2,0,1
 176 413 176 413 170 408.5 c 128,-1,2
 164 404 164 404 164 393 c 2,3,-1
 164 326 l 1,4,-1
 181 326 l 2,5,6
 203 326 203 326 221 308.5 c 128,-1,7
 239 291 239 291 239 263 c 2,8,-1
 239 224 l 1,9,-1
 200 224 l 1,10,-1
 200 264 l 2,11,12
 200 275 200 275 193.5 280 c 128,-1,13
 187 285 187 285 179 285 c 2,14,-1
 65 285 l 2,15,16
 43 285 43 285 43 264 c 2,17,-1
 43 208 l 2,18,19
 43 186 43 186 65 186 c 2,20,-1
 181 186 l 2,21,22
 203 186 203 186 221 169 c 128,-1,23
 239 152 239 152 239 123 c 2,24,-1
 239 63 l 2,25,26
 239 35 239 35 221 17.5 c 128,-1,27
 203 0 203 0 181 0 c 2,28,-1
 63 0 l 2,29,30
 40 0 40 0 22 17.5 c 128,-1,31
 4 35 4 35 4 63 c 2,32,-1
 4 100 l 1,33,-1
 43 100 l 1,34,-1
 43 63 l 2,35,36
 43 41 43 41 65 41 c 2,37,-1
 179 41 l 2,38,39
 187 41 187 41 193.5 46.5 c 128,-1,40
 200 52 200 52 200 63 c 2,41,-1
 200 123 l 2,42,43
 200 134 200 134 193.5 140.5 c 128,-1,44
 187 147 187 147 179 147 c 2,45,-1
 63 147 l 2,46,47
 40 147 40 147 22 164.5 c 128,-1,48
 4 182 4 182 4 209 c 2,49,-1
 4 263 l 2,50,51
 4 284 4 284 17 303 c 1,52,53
 4 322 4 322 4 351 c 2,54,-1
 4 379 l 1,55,-1
 44 379 l 1,56,-1
 44 355 l 2,57,58
 44 338 44 338 50 331.5 c 128,-1,59
 56 325 56 325 68 325 c 2,60,-1
 81 325 l 1,61,-1
 123 326 l 1,62,-1
 124 399 l 2,63,64
 124 422 124 422 140.5 437 c 128,-1,65
 157 452 157 452 176 452 c 2,66,-1
 241 452 l 1,67,-1
 241 413 l 1,68,-1
 184 413 l 2,0,1
EndSplineSet
Substitution2: "Single Substitution lookup 21 subtable" uni0C15_uni0C4D.abvs
EndChar

StartChar: uni0C16
Encoding: 3094 3094 129
Width: 364
GlyphClass: 2
Flags: W
LayerCount: 2
Back
Fore
SplineSet
236 2 m 2,0,-1
 179 2 l 2,1,2
 171 2 171 2 161.5 6 c 128,-1,3
 152 10 152 10 146 16 c 1,4,5
 135 10 135 10 125 6 c 128,-1,6
 115 2 115 2 104 2 c 2,7,-1
 63 2 l 2,8,9
 40 2 40 2 22 19 c 128,-1,10
 4 36 4 36 4 64 c 2,11,-1
 4 151 l 2,12,13
 4 179 4 179 22 196.5 c 128,-1,14
 40 214 40 214 63 214 c 2,15,-1
 104 214 l 2,16,17
 108 214 108 214 111.5 213.5 c 128,-1,18
 115 213 115 213 123 211 c 1,19,-1
 123 265 l 2,20,21
 123 277 123 277 116.5 282 c 128,-1,22
 110 287 110 287 102 287 c 2,23,-1
 65 287 l 2,24,25
 44 287 44 287 44 265 c 2,26,-1
 44 244 l 1,27,-1
 4 244 l 1,28,-1
 4 264 l 2,29,30
 4 292 4 292 22 310 c 128,-1,31
 40 328 40 328 63 328 c 2,32,-1
 104 328 l 2,33,34
 126 328 126 328 144.5 310 c 128,-1,35
 163 292 163 292 163 264 c 2,36,-1
 163 64 l 2,37,38
 163 53 163 53 169.5 47.5 c 128,-1,39
 176 42 176 42 184 42 c 2,40,-1
 234 42 l 2,41,42
 242 42 242 42 248 47.5 c 128,-1,43
 254 53 254 53 254 64 c 2,44,-1
 254 265 l 2,45,46
 254 287 254 287 234 287 c 2,47,-1
 223 287 l 1,48,-1
 223 328 l 1,49,-1
 236 328 l 2,50,51
 258 328 258 328 276.5 310 c 128,-1,52
 295 292 295 292 295 264 c 2,53,-1
 295 64 l 2,54,55
 295 36 295 36 276.5 19 c 128,-1,56
 258 2 258 2 236 2 c 2,0,-1
125 -92 m 1,57,-1
 125 -21 l 1,58,59
 129 -19 129 -19 134.5 -15.5 c 128,-1,60
 140 -12 140 -12 144 -6 c 1,61,62
 149 -11 149 -11 154 -14.5 c 128,-1,63
 159 -18 159 -18 164 -22 c 1,64,-1
 164 -92 l 1,65,-1
 125 -92 l 1,57,-1
123 152 m 2,66,67
 123 163 123 163 116.5 168 c 128,-1,68
 110 173 110 173 102 173 c 2,69,-1
 65 173 l 2,70,71
 44 173 44 173 44 152 c 2,72,-1
 44 64 l 2,73,74
 44 53 44 53 50.5 47.5 c 128,-1,75
 57 42 57 42 65 42 c 2,76,-1
 102 42 l 2,77,78
 110 42 110 42 116.5 47.5 c 128,-1,79
 123 53 123 53 123 64 c 2,80,-1
 123 152 l 2,66,67
EndSplineSet
Substitution2: "Single Substitution lookup 21 subtable" uni0C16_uni0C4D.abvs
EndChar

StartChar: uni0C17
Encoding: 3095 3095 130
Width: 306
GlyphClass: 2
Flags: W
LayerCount: 2
Back
Fore
SplineSet
203 413 m 2,0,1
 195 413 195 413 189 408.5 c 128,-1,2
 183 404 183 404 183 393 c 2,3,-1
 182 326 l 1,4,-1
 187 326 l 2,5,6
 209 326 209 326 227 308.5 c 128,-1,7
 245 291 245 291 245 263 c 2,8,-1
 245 0 l 1,9,-1
 206 0 l 1,10,-1
 206 264 l 2,11,12
 206 280 206 280 197.5 282 c 128,-1,13
 189 284 189 284 181 284 c 2,14,-1
 77 285 l 1,15,-1
 65 285 l 2,16,17
 43 285 43 285 43 264 c 2,18,-1
 43 0 l 1,19,-1
 4 0 l 1,20,-1
 4 263 l 2,21,22
 4 296 4 296 33 317 c 1,23,24
 23 337 23 337 23 361 c 2,25,-1
 23 379 l 1,26,-1
 63 379 l 1,27,-1
 63 365 l 2,28,29
 63 347 63 347 70.5 336.5 c 128,-1,30
 78 326 78 326 94 326 c 2,31,-1
 142 326 l 1,32,-1
 143 399 l 2,33,34
 143 422 143 422 159.5 437 c 128,-1,35
 176 452 176 452 195 452 c 2,36,-1
 250 452 l 1,37,-1
 250 413 l 1,38,-1
 203 413 l 2,0,1
EndSplineSet
Substitution2: "Single Substitution lookup 21 subtable" uni0C17_uni0C4D.abvs
EndChar

StartChar: uni0C18
Encoding: 3096 3096 131
Width: 499
GlyphClass: 2
Flags: W
LayerCount: 2
Back
Fore
SplineSet
166 411 m 2,0,1
 150 411 150 411 150 393 c 2,2,-1
 150 343 l 2,3,4
 150 315 150 315 135.5 299.5 c 128,-1,5
 121 284 121 284 98 284 c 2,6,-1
 5 284 l 1,7,-1
 5 325 l 1,8,-1
 91 325 l 2,9,10
 110 325 110 325 110 343 c 2,11,-1
 110 391 l 2,12,13
 110 420 110 420 125.5 436 c 128,-1,14
 141 452 141 452 163 452 c 2,15,-1
 241 452 l 1,16,-1
 241 411 l 1,17,-1
 166 411 l 2,0,1
377 1 m 2,18,-1
 327 1 l 2,19,20
 317 1 317 1 305.5 6 c 128,-1,21
 294 11 294 11 284 21 c 1,22,23
 264 1 264 1 242 1 c 2,24,-1
 191 1 l 2,25,26
 183 1 183 1 172.5 5 c 128,-1,27
 162 9 162 9 152 19 c 1,28,29
 144 11 144 11 134 6 c 128,-1,30
 124 1 124 1 116 1 c 2,31,-1
 63 1 l 2,32,33
 40 1 40 1 22 18.5 c 128,-1,34
 4 36 4 36 4 64 c 2,35,-1
 4 164 l 2,36,37
 4 192 4 192 22 208.5 c 128,-1,38
 40 225 40 225 63 225 c 2,39,-1
 112 225 l 2,40,41
 135 225 135 225 153 208.5 c 128,-1,42
 171 192 171 192 171 164 c 2,43,-1
 171 64 l 2,44,45
 171 42 171 42 193 42 c 2,46,-1
 240 42 l 2,47,48
 248 42 248 42 254 47.5 c 128,-1,49
 260 53 260 53 260 64 c 2,50,-1
 260 264 l 2,51,52
 260 286 260 286 240 286 c 2,53,-1
 229 286 l 1,54,-1
 229 326 l 1,55,-1
 242 326 l 2,56,57
 264 326 264 326 282 309 c 128,-1,58
 300 292 300 292 300 263 c 2,59,-1
 300 81 l 2,60,61
 300 63 300 63 307.5 52.5 c 128,-1,62
 315 42 315 42 329 42 c 2,63,-1
 375 42 l 2,64,65
 396 42 396 42 396 64 c 2,66,-1
 396 264 l 2,67,68
 396 286 396 286 375 286 c 2,69,-1
 364 286 l 1,70,-1
 364 326 l 1,71,-1
 377 326 l 2,72,73
 400 326 400 326 417.5 309 c 128,-1,74
 435 292 435 292 435 263 c 2,75,-1
 435 64 l 2,76,77
 435 36 435 36 417.5 18.5 c 128,-1,78
 400 1 400 1 377 1 c 2,18,-1
133 -83 m 1,79,-1
 133 -30 l 1,80,81
 137 -29 137 -29 141.5 -27 c 128,-1,82
 146 -25 146 -25 151 -18 c 1,83,84
 154 -23 154 -23 158.5 -25.5 c 128,-1,85
 163 -28 163 -28 166 -30 c 2,86,-1
 166 -83 l 1,87,-1
 133 -83 l 1,79,-1
132 163 m 2,88,89
 132 185 132 185 110 185 c 2,90,-1
 65 185 l 2,91,92
 44 185 44 185 44 163 c 2,93,-1
 44 64 l 2,94,95
 44 53 44 53 50.5 47.5 c 128,-1,96
 57 42 57 42 65 42 c 2,97,-1
 110 42 l 2,98,99
 132 42 132 42 132 64 c 2,100,-1
 132 163 l 2,88,89
EndSplineSet
Substitution2: "Single Substitution lookup 21 subtable" uni0C18_uni0C4D.abvs
EndChar

StartChar: uni0C19
Encoding: 3097 3097 132
Width: 348
GlyphClass: 2
Flags: W
LayerCount: 2
Back
Fore
SplineSet
163 224 m 1,0,-1
 163 214 l 2,1,2
 163 194 163 194 147.5 178.5 c 128,-1,3
 132 163 132 163 112 163 c 2,4,-1
 61 163 l 2,5,6
 44 163 44 163 44 142 c 2,7,-1
 44 60 l 2,8,9
 44 41 44 41 61 41 c 2,10,-1
 103 41 l 2,11,12
 113 41 113 41 118 46.5 c 128,-1,13
 123 52 123 52 123 59 c 2,14,-1
 123 92 l 1,15,-1
 162 92 l 1,16,-1
 162 59 l 2,17,18
 162 41 162 41 181 41 c 2,19,-1
 226 41 l 2,20,21
 243 41 243 41 243 60 c 2,22,-1
 243 123 l 1,23,-1
 283 123 l 1,24,-1
 283 56 l 2,25,26
 283 31 283 31 267 15.5 c 128,-1,27
 251 0 251 0 231 0 c 2,28,-1
 181 0 l 2,29,30
 179 0 179 0 169 2 c 128,-1,31
 159 4 159 4 143 17 c 1,32,33
 135 9 135 9 125.5 4.5 c 128,-1,34
 116 0 116 0 102 0 c 2,35,-1
 56 0 l 2,36,37
 36 0 36 0 20 15.5 c 128,-1,38
 4 31 4 31 4 56 c 2,39,-1
 4 147 l 2,40,41
 4 172 4 172 20 187.5 c 128,-1,42
 36 203 36 203 56 203 c 2,43,-1
 105 203 l 2,44,45
 113 203 113 203 118.5 208.5 c 128,-1,46
 124 214 124 214 124 222 c 2,47,-1
 124 268 l 2,48,49
 124 279 124 279 118.5 283 c 128,-1,50
 113 287 113 287 105 287 c 2,51,-1
 61 287 l 2,52,53
 44 287 44 287 44 268 c 2,54,-1
 44 245 l 1,55,-1
 4 245 l 1,56,-1
 4 272 l 2,57,58
 4 297 4 297 20 312.5 c 128,-1,59
 36 328 36 328 56 328 c 2,60,-1
 112 328 l 2,61,62
 131 328 131 328 147 312.5 c 128,-1,63
 163 297 163 297 163 272 c 2,64,-1
 163 265 l 1,65,-1
 209 265 l 1,66,-1
 209 318 l 1,67,-1
 250 318 l 1,68,-1
 250 265 l 1,69,-1
 290 265 l 1,70,-1
 290 224 l 1,71,-1
 163 224 l 1,0,-1
EndSplineSet
Substitution2: "Single Substitution lookup 21 subtable" uni0C19_uni0C4D.abvs
EndChar

StartChar: uni0C1A
Encoding: 3098 3098 133
Width: 388
GlyphClass: 2
Flags: W
LayerCount: 2
Back
Fore
SplineSet
273 0 m 2,0,-1
 223 0 l 1,1,-1
 218 0 l 2,2,3
 208 0 208 0 200 4.5 c 128,-1,4
 192 9 192 9 184 16 c 1,5,6
 168 0 168 0 144 0 c 2,7,-1
 96 0 l 2,8,9
 76 0 76 0 60 16 c 128,-1,10
 44 32 44 32 44 55 c 2,11,-1
 44 169 l 2,12,13
 44 171 44 171 44.5 173 c 128,-1,14
 45 175 45 175 47 182 c 1,15,-1
 4 182 l 1,16,-1
 4 222 l 1,17,-1
 115 222 l 1,18,-1
 115 182 l 1,19,-1
 103 182 l 2,20,21
 95 182 95 182 89.5 176.5 c 128,-1,22
 84 171 84 171 84 163 c 2,23,-1
 84 59 l 2,24,25
 84 41 84 41 103 41 c 2,26,-1
 145 41 l 2,27,28
 156 41 156 41 160 46.5 c 128,-1,29
 164 52 164 52 164 59 c 2,30,-1
 164 101 l 1,31,-1
 204 101 l 1,32,-1
 204 58 l 2,33,34
 204 41 204 41 223 41 c 2,35,-1
 266 41 l 2,36,37
 273 41 273 41 278.5 45 c 128,-1,38
 284 49 284 49 284 60 c 2,39,-1
 284 267 l 2,40,41
 284 285 284 285 266 285 c 2,42,-1
 198 285 l 1,43,-1
 130 285 l 1,44,-1
 112 285 l 2,45,46
 102 285 102 285 92 289 c 128,-1,47
 82 293 82 293 73.5 300 c 128,-1,48
 65 307 65 307 59.5 316.5 c 128,-1,49
 54 326 54 326 54 338 c 2,50,-1
 54 369 l 1,51,-1
 96 369 l 1,52,-1
 96 355 l 2,53,54
 96 326 96 326 124 326 c 2,55,-1
 130 326 l 1,56,-1
 153 326 l 1,57,-1
 154 399 l 2,58,59
 154 422 154 422 170.5 437 c 128,-1,60
 187 452 187 452 206 452 c 2,61,-1
 324 452 l 1,62,-1
 324 413 l 1,63,-1
 214 413 l 2,64,65
 206 413 206 413 200 408.5 c 128,-1,66
 194 404 194 404 194 393 c 2,67,-1
 194 326 l 1,68,-1
 273 326 l 2,69,70
 293 326 293 326 308.5 311 c 128,-1,71
 324 296 324 296 324 271 c 2,72,-1
 324 55 l 2,73,74
 324 32 324 32 308.5 16 c 128,-1,75
 293 0 293 0 273 0 c 2,0,-1
EndSplineSet
Substitution2: "Single Substitution lookup 21 subtable" uni0C1A_uni0C4D.abvs
EndChar

StartChar: uni0C1B
Encoding: 3099 3099 134
Width: 387
GlyphClass: 2
Flags: W
LayerCount: 2
Back
Fore
SplineSet
273 1 m 2,0,-1
 223 1 l 1,1,-1
 218 1 l 2,2,3
 200 2 200 2 184 17 c 1,4,5
 168 1 168 1 144 1 c 2,6,-1
 96 1 l 2,7,8
 76 1 76 1 60 17 c 128,-1,9
 44 33 44 33 44 56 c 2,10,-1
 44 170 l 2,11,12
 44 169 44 169 47 183 c 1,13,-1
 4 183 l 1,14,-1
 4 223 l 1,15,-1
 115 223 l 1,16,-1
 115 183 l 1,17,-1
 103 183 l 2,18,19
 95 183 95 183 89.5 177.5 c 128,-1,20
 84 172 84 172 84 164 c 2,21,-1
 84 60 l 2,22,23
 84 42 84 42 103 42 c 2,24,-1
 145 42 l 2,25,26
 156 42 156 42 160 47.5 c 128,-1,27
 164 53 164 53 164 60 c 2,28,-1
 164 102 l 1,29,-1
 204 102 l 1,30,-1
 204 59 l 2,31,32
 204 42 204 42 223 42 c 2,33,-1
 266 42 l 2,34,35
 273 42 273 42 278.5 46 c 128,-1,36
 284 50 284 50 284 61 c 2,37,-1
 284 267 l 2,38,39
 284 286 284 286 266 286 c 2,40,-1
 198 286 l 1,41,-1
 130 286 l 1,42,-1
 112 286 l 2,43,44
 92 286 92 286 73 300.5 c 128,-1,45
 54 315 54 315 54 338 c 2,46,-1
 54 369 l 1,47,-1
 96 369 l 1,48,-1
 96 356 l 2,49,50
 96 326 96 326 124 326 c 2,51,-1
 130 326 l 1,52,-1
 153 326 l 1,53,-1
 154 399 l 2,54,55
 154 422 154 422 170.5 437 c 128,-1,56
 187 452 187 452 206 452 c 2,57,-1
 324 452 l 1,58,-1
 324 413 l 1,59,-1
 214 413 l 2,60,61
 206 413 206 413 200 408.5 c 128,-1,62
 194 404 194 404 194 393 c 2,63,-1
 194 326 l 1,64,-1
 273 326 l 2,65,66
 293 326 293 326 308.5 311.5 c 128,-1,67
 324 297 324 297 324 271 c 2,68,-1
 324 56 l 2,69,70
 324 33 324 33 308.5 17 c 128,-1,71
 293 1 293 1 273 1 c 2,0,-1
163 -84 m 1,72,-1
 163 -31 l 1,73,74
 167 -30 167 -30 171.5 -28 c 128,-1,75
 176 -26 176 -26 181 -19 c 1,76,77
 184 -24 184 -24 188.5 -26.5 c 128,-1,78
 193 -29 193 -29 196 -31 c 2,79,-1
 196 -84 l 1,80,-1
 163 -84 l 1,72,-1
EndSplineSet
Substitution2: "Single Substitution lookup 21 subtable" uni0C1B_uni0C4D.abvs
EndChar

StartChar: uni0C1C
Encoding: 3100 3100 135
Width: 347
GlyphClass: 2
Flags: W
LayerCount: 2
Back
Fore
SplineSet
231 0 m 2,0,-1
 181 0 l 2,1,2
 179 0 179 0 169 2 c 128,-1,3
 159 4 159 4 143 17 c 1,4,5
 135 9 135 9 125.5 4.5 c 128,-1,6
 116 0 116 0 102 0 c 2,7,-1
 56 0 l 2,8,9
 36 0 36 0 20 15.5 c 128,-1,10
 4 31 4 31 4 56 c 2,11,-1
 4 147 l 2,12,13
 4 172 4 172 20 187.5 c 128,-1,14
 36 203 36 203 56 203 c 2,15,-1
 105 203 l 2,16,17
 113 203 113 203 118.5 208.5 c 128,-1,18
 124 214 124 214 124 222 c 2,19,-1
 124 268 l 2,20,21
 124 279 124 279 118.5 283 c 128,-1,22
 113 287 113 287 105 287 c 2,23,-1
 61 287 l 2,24,25
 44 287 44 287 44 268 c 2,26,-1
 44 245 l 1,27,-1
 4 245 l 1,28,-1
 4 272 l 2,29,30
 4 297 4 297 20 312.5 c 128,-1,31
 36 328 36 328 56 328 c 2,32,-1
 112 328 l 2,33,34
 131 328 131 328 147 312.5 c 128,-1,35
 163 297 163 297 163 272 c 2,36,-1
 163 224 l 2,37,38
 163 214 163 214 168.5 209.5 c 128,-1,39
 174 205 174 205 181 205 c 2,40,-1
 224 205 l 2,41,42
 242 205 242 205 242 224 c 2,43,-1
 242 268 l 2,44,45
 242 278 242 278 236.5 282.5 c 128,-1,46
 231 287 231 287 224 287 c 2,47,-1
 211 287 l 1,48,-1
 211 328 l 1,49,-1
 230 328 l 2,50,51
 250 328 250 328 266 312.5 c 128,-1,52
 282 297 282 297 282 272 c 2,53,-1
 282 221 l 2,54,55
 282 196 282 196 266 180.5 c 128,-1,56
 250 165 250 165 230 165 c 2,57,-1
 182 165 l 1,58,-1
 177 165 l 2,59,60
 167 165 167 165 159 169.5 c 128,-1,61
 151 174 151 174 143 181 c 1,62,63
 135 174 135 174 125.5 168.5 c 128,-1,64
 116 163 116 163 102 163 c 2,65,-1
 61 163 l 2,66,67
 44 163 44 163 44 142 c 2,68,-1
 44 60 l 2,69,70
 44 41 44 41 61 41 c 2,71,-1
 103 41 l 2,72,73
 113 41 113 41 118 46.5 c 128,-1,74
 123 52 123 52 123 59 c 2,75,-1
 123 82 l 1,76,-1
 162 82 l 1,77,-1
 162 59 l 2,78,79
 162 41 162 41 181 41 c 2,80,-1
 226 41 l 2,81,82
 243 41 243 41 243 60 c 2,83,-1
 243 123 l 1,84,-1
 283 123 l 1,85,-1
 283 56 l 2,86,87
 283 31 283 31 267 15.5 c 128,-1,88
 251 0 251 0 231 0 c 2,0,-1
EndSplineSet
Substitution2: "Single Substitution lookup 21 subtable" uni0C1C_uni0C4D.abvs
EndChar

StartChar: uni0C1D
Encoding: 3101 3101 136
Width: 571
GlyphClass: 2
Flags: W
LayerCount: 2
Back
Fore
SplineSet
456 1 m 2,0,-1
 406 1 l 2,1,2
 396 1 396 1 384.5 6 c 128,-1,3
 373 11 373 11 364 21 c 1,4,5
 345 1 345 1 322 1 c 2,6,-1
 272 1 l 2,7,8
 262 1 262 1 250.5 6 c 128,-1,9
 239 11 239 11 230 21 c 1,10,11
 218 10 218 10 206.5 5.5 c 128,-1,12
 195 1 195 1 189 1 c 2,13,-1
 62 1 l 2,14,15
 40 1 40 1 22 18.5 c 128,-1,16
 4 36 4 36 4 64 c 2,17,-1
 4 264 l 2,18,19
 4 295 4 295 32 317 c 1,20,21
 22 330 22 330 22 344 c 2,22,-1
 22 379 l 1,23,-1
 61 379 l 1,24,-1
 61 348 l 2,25,26
 61 333 61 333 79 328 c 2,27,-1
 90 326 l 1,28,-1
 129 326 l 1,29,-1
 129 397 l 2,30,31
 129 422 129 422 145 437 c 128,-1,32
 161 452 161 452 181 452 c 2,33,-1
 245 452 l 1,34,-1
 245 411 l 1,35,-1
 187 411 l 2,36,37
 179 411 179 411 173.5 407 c 128,-1,38
 168 403 168 403 168 392 c 2,39,-1
 168 326 l 1,40,-1
 187 326 l 2,41,42
 209 326 209 326 227 308.5 c 128,-1,43
 245 291 245 291 245 264 c 2,44,-1
 245 81 l 1,45,46
 250 63 250 63 255.5 52.5 c 128,-1,47
 261 42 261 42 274 42 c 2,48,-1
 320 42 l 2,49,50
 341 42 341 42 341 64 c 2,51,-1
 341 264 l 2,52,53
 341 286 341 286 320 286 c 2,54,-1
 309 286 l 1,55,-1
 309 326 l 1,56,-1
 322 326 l 2,57,58
 345 326 345 326 362.5 309 c 128,-1,59
 380 292 380 292 380 263 c 2,60,-1
 380 74 l 1,61,62
 385 59 385 59 391 50.5 c 128,-1,63
 397 42 397 42 408 42 c 2,64,-1
 454 42 l 2,65,66
 462 42 462 42 468.5 47.5 c 128,-1,67
 475 53 475 53 475 64 c 2,68,-1
 475 264 l 2,69,70
 475 286 475 286 454 286 c 2,71,-1
 443 286 l 1,72,-1
 443 326 l 1,73,-1
 456 326 l 2,74,75
 478 326 478 326 496 309 c 128,-1,76
 514 292 514 292 514 263 c 2,77,-1
 514 64 l 2,78,79
 514 36 514 36 496 18.5 c 128,-1,80
 478 1 478 1 456 1 c 2,0,-1
345 -92 m 1,81,-1
 345 -29 l 1,82,83
 349 -28 349 -28 353.5 -26 c 128,-1,84
 358 -24 358 -24 363 -17 c 1,85,86
 366 -22 366 -22 370.5 -24.5 c 128,-1,87
 375 -27 375 -27 378 -29 c 2,88,-1
 378 -92 l 1,89,-1
 345 -92 l 1,81,-1
205 264 m 2,90,91
 205 275 205 275 199 280.5 c 128,-1,92
 193 286 193 286 185 286 c 2,93,-1
 65 286 l 2,94,95
 44 286 44 286 44 264 c 2,96,-1
 44 64 l 2,97,98
 44 42 44 42 65 42 c 2,99,-1
 185 42 l 2,100,101
 193 42 193 42 199 47.5 c 128,-1,102
 205 53 205 53 205 64 c 2,103,-1
 205 264 l 2,90,91
EndSplineSet
Substitution2: "Single Substitution lookup 21 subtable" uni0C1D_uni0C4D.abvs
EndChar

StartChar: uni0C1E
Encoding: 3102 3102 137
Width: 463
GlyphClass: 2
Flags: W
LayerCount: 2
Back
Fore
SplineSet
282 223 m 1,0,-1
 282 186 l 1,1,-1
 305 186 l 2,2,3
 327 186 327 186 343 170 c 128,-1,4
 359 154 359 154 359 125 c 2,5,-1
 359 -1 l 1,6,-1
 320 -1 l 1,7,-1
 320 121 l 2,8,9
 320 133 320 133 313.5 139 c 128,-1,10
 307 145 307 145 299 145 c 2,11,-1
 282 145 l 1,12,-1
 282 63 l 2,13,14
 282 34 282 34 264 16.5 c 128,-1,15
 246 -1 246 -1 224 -1 c 2,16,-1
 62 -1 l 2,17,18
 40 -1 40 -1 22 16.5 c 128,-1,19
 4 34 4 34 4 63 c 2,20,-1
 4 121 l 2,21,22
 4 150 4 150 22 168 c 128,-1,23
 40 186 40 186 62 186 c 2,24,-1
 242 186 l 1,25,-1
 242 264 l 2,26,27
 242 276 242 276 236 281.5 c 128,-1,28
 230 287 230 287 222 287 c 2,29,-1
 183 287 l 2,30,31
 162 287 162 287 162 264 c 2,32,-1
 162 246 l 1,33,-1
 123 246 l 1,34,-1
 123 264 l 2,35,36
 123 275 123 275 116 281 c 128,-1,37
 109 287 109 287 101 287 c 2,38,-1
 65 287 l 2,39,40
 44 287 44 287 44 264 c 2,41,-1
 44 226 l 1,42,-1
 4 226 l 1,43,-1
 4 264 l 2,44,45
 4 293 4 293 22 310.5 c 128,-1,46
 40 328 40 328 62 328 c 2,47,-1
 103 328 l 2,48,49
 126 328 126 328 143 304 c 1,50,51
 148 318 148 318 154.5 323 c 128,-1,52
 161 328 161 328 171 328 c 2,53,-1
 224 328 l 2,54,55
 245 328 245 328 262.5 311 c 128,-1,56
 280 294 280 294 282 264 c 1,57,-1
 334 264 l 1,58,-1
 334 318 l 1,59,-1
 375 318 l 1,60,-1
 375 264 l 1,61,-1
 414 264 l 1,62,-1
 414 223 l 1,63,-1
 282 223 l 1,0,-1
242 145 m 1,64,-1
 65 145 l 2,65,66
 57 145 57 145 50.5 139 c 128,-1,67
 44 133 44 133 44 121 c 2,68,-1
 44 63 l 2,69,70
 44 52 44 52 50.5 46 c 128,-1,71
 57 40 57 40 65 40 c 2,72,-1
 223 40 l 2,73,74
 242 40 242 40 242 63 c 2,75,-1
 242 145 l 1,64,-1
EndSplineSet
Substitution2: "Single Substitution lookup 21 subtable" uni0C1E_uni0C4D.abvs
EndChar

StartChar: uni0C1F
Encoding: 3103 3103 138
Width: 364
GlyphClass: 2
Flags: W
LayerCount: 2
Back
Fore
SplineSet
247 0 m 2,0,-1
 187 0 l 2,1,2
 168 0 168 0 155 13 c 1,3,4
 148 6 148 6 140 3 c 128,-1,5
 132 0 132 0 127 0 c 2,6,-1
 63 0 l 2,7,8
 40 0 40 0 22 18 c 128,-1,9
 4 36 4 36 4 64 c 2,10,-1
 4 264 l 2,11,12
 4 291 4 291 21.5 309 c 128,-1,13
 39 327 39 327 64 328 c 1,14,-1
 64 391 l 1,15,-1
 104 391 l 1,16,-1
 104 328 l 1,17,18
 129 326 129 326 146 308.5 c 128,-1,19
 163 291 163 291 163 264 c 2,20,-1
 163 206 l 2,21,22
 163 178 163 178 145 160 c 128,-1,23
 127 142 127 142 104 142 c 2,24,-1
 44 142 l 1,25,-1
 44 64 l 2,26,27
 44 53 44 53 50.5 47 c 128,-1,28
 57 41 57 41 65 41 c 2,29,-1
 112 41 l 2,30,31
 134 41 134 41 134 64 c 2,32,-1
 134 101 l 1,33,-1
 173 101 l 1,34,-1
 173 64 l 2,35,36
 173 41 173 41 195 41 c 2,37,-1
 245 41 l 2,38,39
 253 41 253 41 259.5 47 c 128,-1,40
 266 53 266 53 266 64 c 2,41,-1
 266 265 l 2,42,43
 266 287 266 287 245 287 c 2,44,-1
 235 287 l 1,45,-1
 235 328 l 1,46,-1
 247 328 l 2,47,48
 269 328 269 328 287.5 310.5 c 128,-1,49
 306 293 306 293 306 264 c 2,50,-1
 306 64 l 2,51,52
 306 36 306 36 287.5 18 c 128,-1,53
 269 0 269 0 247 0 c 2,0,-1
124 265 m 2,54,55
 124 287 124 287 102 287 c 2,56,-1
 65 287 l 2,57,58
 44 287 44 287 44 265 c 2,59,-1
 44 182 l 1,60,-1
 102 182 l 2,61,62
 124 182 124 182 124 205 c 2,63,-1
 124 265 l 2,54,55
EndSplineSet
Substitution2: "Single Substitution lookup 21 subtable" uni0C1F_uni0C4D.abvs
EndChar

StartChar: uni0C20
Encoding: 3104 3104 139
Width: 312
GlyphClass: 2
Flags: W
LayerCount: 2
Back
Fore
SplineSet
189 0 m 2,0,-1
 62 0 l 2,1,2
 40 0 40 0 22 17.5 c 128,-1,3
 4 35 4 35 4 63 c 2,4,-1
 4 264 l 2,5,6
 4 295 4 295 32 317 c 1,7,8
 22 330 22 330 22 344 c 2,9,-1
 22 379 l 1,10,-1
 61 379 l 1,11,-1
 61 348 l 2,12,13
 61 331 61 331 79 328 c 2,14,-1
 90 326 l 1,15,-1
 129 326 l 1,16,-1
 129 397 l 2,17,18
 129 422 129 422 145 437 c 128,-1,19
 161 452 161 452 181 452 c 2,20,-1
 245 452 l 1,21,-1
 245 411 l 1,22,-1
 187 411 l 2,23,24
 179 411 179 411 173.5 407 c 128,-1,25
 168 403 168 403 168 392 c 2,26,-1
 168 326 l 1,27,-1
 187 326 l 2,28,29
 209 326 209 326 227 308 c 128,-1,30
 245 290 245 290 245 264 c 2,31,-1
 245 63 l 2,32,33
 245 44 245 44 238 32 c 128,-1,34
 231 20 231 20 222 13 c 128,-1,35
 213 6 213 6 203.5 3 c 128,-1,36
 194 0 194 0 189 0 c 2,0,-1
205 264 m 2,37,38
 205 275 205 275 199 280 c 128,-1,39
 193 285 193 285 185 285 c 2,40,-1
 65 285 l 2,41,42
 44 285 44 285 44 264 c 2,43,-1
 44 63 l 2,44,45
 44 41 44 41 65 41 c 2,46,-1
 185 41 l 2,47,48
 193 41 193 41 199 46.5 c 128,-1,49
 205 52 205 52 205 63 c 2,50,-1
 205 264 l 2,37,38
109 138 m 1,51,-1
 109 179 l 1,52,-1
 142 179 l 1,53,-1
 142 138 l 1,54,-1
 109 138 l 1,51,-1
EndSplineSet
Substitution2: "Single Substitution lookup 21 subtable" uni0C20_uni0C4D.abvs
EndChar

StartChar: uni0C21
Encoding: 3105 3105 140
Width: 353
GlyphClass: 2
Flags: W
LayerCount: 2
Back
Fore
SplineSet
250 0 m 2,0,-1
 192 0 l 1,1,-1
 188 0 l 2,2,3
 177 0 177 0 169.5 5 c 128,-1,4
 162 10 162 10 154 17 c 1,5,6
 146 9 146 9 135.5 4.5 c 128,-1,7
 125 0 125 0 113 0 c 2,8,-1
 55 0 l 2,9,10
 36 0 36 0 20 16 c 128,-1,11
 4 32 4 32 4 55 c 2,12,-1
 4 271 l 2,13,14
 4 292 4 292 21 312 c 1,15,16
 13 319 13 319 8.5 326 c 128,-1,17
 4 333 4 333 4 344 c 2,18,-1
 4 399 l 1,19,-1
 43 399 l 1,20,-1
 43 348 l 2,21,22
 43 331 43 331 61 328 c 2,23,-1
 72 326 l 1,24,-1
 131 326 l 1,25,-1
 131 392 l 2,26,27
 131 417 131 417 147 432 c 128,-1,28
 163 447 163 447 183 447 c 2,29,-1
 297 447 l 1,30,-1
 297 408 l 1,31,-1
 189 408 l 2,32,33
 181 408 181 408 175.5 404 c 128,-1,34
 170 400 170 400 170 389 c 2,35,-1
 170 326 l 1,36,-1
 240 326 l 2,37,38
 260 326 260 326 276 311 c 128,-1,39
 292 296 292 296 292 271 c 2,40,-1
 292 245 l 1,41,-1
 252 245 l 1,42,-1
 252 267 l 2,43,44
 252 285 252 285 236 285 c 2,45,-1
 61 285 l 2,46,47
 44 285 44 285 44 267 c 2,48,-1
 44 60 l 2,49,50
 44 41 44 41 61 41 c 2,51,-1
 114 41 l 2,52,53
 124 41 124 41 129 46.5 c 128,-1,54
 134 52 134 52 134 59 c 2,55,-1
 134 101 l 1,56,-1
 173 101 l 1,57,-1
 173 60 l 2,58,59
 173 52 173 52 177.5 46.5 c 128,-1,60
 182 41 182 41 191 41 c 2,61,-1
 246 41 l 2,62,63
 262 41 262 41 262 61 c 2,64,-1
 262 142 l 2,65,66
 262 162 262 162 246 162 c 2,67,-1
 214 162 l 1,68,-1
 214 203 l 1,69,-1
 250 203 l 2,70,71
 270 203 270 203 286 188 c 128,-1,72
 302 173 302 173 302 148 c 2,73,-1
 302 57 l 2,74,75
 302 32 302 32 286 16 c 128,-1,76
 270 0 270 0 250 0 c 2,0,-1
EndSplineSet
Substitution2: "Single Substitution lookup 21 subtable" uni0C21_uni0C4D.abvs
EndChar

StartChar: uni0C22
Encoding: 3106 3106 141
Width: 353
GlyphClass: 2
Flags: W
LayerCount: 2
Back
Fore
SplineSet
250 1 m 2,0,-1
 192 1 l 1,1,-1
 188 1 l 2,2,3
 177 2 177 2 169.5 6.5 c 128,-1,4
 162 11 162 11 154 18 c 1,5,6
 146 10 146 10 135.5 5.5 c 128,-1,7
 125 1 125 1 113 1 c 2,8,-1
 55 1 l 2,9,10
 36 1 36 1 20 17 c 128,-1,11
 4 33 4 33 4 56 c 2,12,-1
 4 271 l 2,13,14
 4 293 4 293 21 312 c 1,15,16
 13 319 13 319 8.5 326 c 128,-1,17
 4 333 4 333 4 344 c 2,18,-1
 4 399 l 1,19,-1
 43 399 l 1,20,-1
 43 349 l 2,21,22
 43 333 43 333 61 328 c 2,23,-1
 72 326 l 1,24,-1
 131 326 l 1,25,-1
 131 392 l 2,26,27
 131 417 131 417 147 432 c 128,-1,28
 163 447 163 447 183 447 c 2,29,-1
 297 447 l 1,30,-1
 297 408 l 1,31,-1
 189 408 l 2,32,33
 181 408 181 408 175.5 404 c 128,-1,34
 170 400 170 400 170 389 c 2,35,-1
 170 326 l 1,36,-1
 240 326 l 2,37,38
 260 326 260 326 276 311.5 c 128,-1,39
 292 297 292 297 292 271 c 2,40,-1
 292 246 l 1,41,-1
 252 246 l 1,42,-1
 252 267 l 2,43,44
 252 286 252 286 236 286 c 2,45,-1
 61 286 l 2,46,47
 44 286 44 286 44 267 c 2,48,-1
 44 61 l 2,49,50
 44 42 44 42 61 42 c 2,51,-1
 114 42 l 2,52,53
 124 42 124 42 129 47.5 c 128,-1,54
 134 53 134 53 134 60 c 2,55,-1
 134 102 l 1,56,-1
 173 102 l 1,57,-1
 173 61 l 2,58,59
 173 54 173 54 177.5 48 c 128,-1,60
 182 42 182 42 191 42 c 2,61,-1
 246 42 l 2,62,63
 262 42 262 42 262 62 c 2,64,-1
 262 143 l 2,65,66
 262 163 262 163 246 163 c 2,67,-1
 214 163 l 1,68,-1
 214 203 l 1,69,-1
 250 203 l 2,70,71
 270 203 270 203 286 188.5 c 128,-1,72
 302 174 302 174 302 149 c 2,73,-1
 302 58 l 2,74,75
 302 33 302 33 286 17 c 128,-1,76
 270 1 270 1 250 1 c 2,0,-1
134 -95 m 1,77,-1
 134 -32 l 1,78,79
 138 -31 138 -31 142.5 -29 c 128,-1,80
 147 -27 147 -27 152 -20 c 1,81,82
 155 -25 155 -25 159.5 -27.5 c 128,-1,83
 164 -30 164 -30 167 -32 c 2,84,-1
 167 -95 l 1,85,-1
 134 -95 l 1,77,-1
EndSplineSet
Substitution2: "Single Substitution lookup 21 subtable" uni0C22_uni0C4D.abvs
EndChar

StartChar: uni0C23
Encoding: 3107 3107 142
Width: 363
GlyphClass: 2
Flags: W
LayerCount: 2
Back
Fore
SplineSet
244 0 m 2,0,-1
 191 0 l 2,1,2
 169 0 169 0 151 17.5 c 128,-1,3
 133 35 133 35 133 64 c 2,4,-1
 133 120 l 2,5,6
 133 149 133 149 151 166 c 128,-1,7
 169 183 169 183 191 183 c 2,8,-1
 248 183 l 1,9,-1
 250 183 l 2,10,11
 252 183 252 183 254.5 182.5 c 128,-1,12
 257 182 257 182 263 181 c 1,13,-1
 263 265 l 2,14,15
 263 287 263 287 242 287 c 2,16,-1
 193 287 l 2,17,18
 185 287 185 287 178.5 282 c 128,-1,19
 172 277 172 277 172 265 c 2,20,-1
 172 245 l 1,21,-1
 133 245 l 1,22,-1
 133 265 l 2,23,24
 133 277 133 277 126 282 c 128,-1,25
 119 287 119 287 111 287 c 2,26,-1
 65 287 l 2,27,28
 44 287 44 287 44 265 c 2,29,-1
 44 205 l 2,30,31
 44 183 44 183 65 183 c 2,32,-1
 84 183 l 1,33,-1
 84 143 l 1,34,-1
 65 143 l 2,35,36
 44 143 44 143 44 121 c 2,37,-1
 44 64 l 2,38,39
 44 53 44 53 50.5 47 c 128,-1,40
 57 41 57 41 65 41 c 2,41,-1
 84 41 l 1,42,-1
 84 0 l 1,43,-1
 63 0 l 2,44,45
 40 0 40 0 22 17.5 c 128,-1,46
 4 35 4 35 4 64 c 2,47,-1
 4 121 l 2,48,49
 4 138 4 138 8.5 147 c 128,-1,50
 13 156 13 156 21 165 c 1,51,52
 11 172 11 172 7.5 179 c 128,-1,53
 4 186 4 186 4 201 c 2,54,-1
 4 264 l 2,55,56
 4 293 4 293 22 310.5 c 128,-1,57
 40 328 40 328 63 328 c 2,58,-1
 114 328 l 2,59,60
 123 328 123 328 128.5 327 c 128,-1,61
 134 326 134 326 137 324 c 0,62,63
 141 322 141 322 143 320 c 256,64,65
 145 318 145 318 147 316.5 c 128,-1,66
 149 315 149 315 154 311 c 1,67,68
 161 320 161 320 167 324 c 128,-1,69
 173 328 173 328 183 328 c 2,70,-1
 244 328 l 2,71,72
 267 328 267 328 285 310.5 c 128,-1,73
 303 293 303 293 303 264 c 2,74,-1
 303 64 l 2,75,76
 303 35 303 35 285 17.5 c 128,-1,77
 267 0 267 0 244 0 c 2,0,-1
263 126 m 1,78,79
 257 143 257 143 241 143 c 2,80,-1
 193 143 l 2,81,82
 185 143 185 143 178.5 137.5 c 128,-1,83
 172 132 172 132 172 121 c 2,84,-1
 172 64 l 2,85,86
 172 53 172 53 178.5 47 c 128,-1,87
 185 41 185 41 193 41 c 2,88,-1
 242 41 l 2,89,90
 250 41 250 41 256.5 47 c 128,-1,91
 263 53 263 53 263 64 c 2,92,-1
 263 126 l 1,78,79
EndSplineSet
Substitution2: "Single Substitution lookup 21 subtable" uni0C23_uni0C4D.abvs
EndChar

StartChar: uni0C24
Encoding: 3108 3108 143
Width: 365
GlyphClass: 2
Flags: W
LayerCount: 2
Back
Fore
SplineSet
257 264 m 2,0,1
 257 275 257 275 255 280 c 128,-1,2
 253 285 253 285 242 285 c 2,3,-1
 54 285 l 1,4,-1
 54 326 l 1,5,-1
 140 326 l 1,6,-1
 140 396 l 2,7,8
 140 419 140 419 155.5 434 c 128,-1,9
 171 449 171 449 190 449 c 2,10,-1
 313 449 l 1,11,-1
 313 410 l 1,12,-1
 197 410 l 2,13,14
 190 410 190 410 184.5 405.5 c 128,-1,15
 179 401 179 401 179 392 c 2,16,-1
 179 326 l 1,17,-1
 241 326 l 2,18,19
 266 326 266 326 281 313 c 128,-1,20
 296 300 296 300 296 269 c 2,21,-1
 296 237 l 2,22,23
 296 228 296 228 292 219 c 1,24,25
 315 198 315 198 315 169 c 2,26,-1
 315 63 l 2,27,28
 315 35 315 35 296.5 17.5 c 128,-1,29
 278 0 278 0 256 0 c 2,30,-1
 63 0 l 2,31,32
 40 0 40 0 22 17.5 c 128,-1,33
 4 35 4 35 4 63 c 2,34,-1
 4 170 l 2,35,36
 4 197 4 197 17.5 214.5 c 128,-1,37
 31 232 31 232 54 232 c 2,38,-1
 91 232 l 2,39,40
 113 232 113 232 131 215 c 128,-1,41
 149 198 149 198 149 170 c 2,42,-1
 149 152 l 2,43,44
 149 123 149 123 131 106 c 128,-1,45
 113 89 113 89 91 89 c 2,46,-1
 44 89 l 1,47,-1
 44 63 l 2,48,49
 44 52 44 52 50.5 46.5 c 128,-1,50
 57 41 57 41 65 41 c 2,51,-1
 254 41 l 2,52,53
 262 41 262 41 268.5 46.5 c 128,-1,54
 275 52 275 52 275 63 c 2,55,-1
 275 89 l 1,56,-1
 228 89 l 2,57,58
 206 89 206 89 187.5 107 c 128,-1,59
 169 125 169 125 169 153 c 2,60,-1
 169 170 l 2,61,62
 169 198 169 198 187.5 215 c 128,-1,63
 206 232 206 232 228 232 c 2,64,-1
 254 232 l 2,65,66
 256 233 256 233 256.5 237 c 128,-1,67
 257 241 257 241 257 242 c 2,68,-1
 257 264 l 2,0,1
275 169 m 2,69,70
 275 180 275 180 268.5 185.5 c 128,-1,71
 262 191 262 191 254 191 c 2,72,-1
 230 191 l 2,73,74
 222 191 222 191 216 185.5 c 128,-1,75
 210 180 210 180 210 169 c 2,76,-1
 210 152 l 2,77,78
 210 141 210 141 216 135 c 128,-1,79
 222 129 222 129 230 129 c 2,80,-1
 275 129 l 1,81,-1
 275 169 l 2,69,70
109 169 m 2,82,83
 109 180 109 180 102.5 185.5 c 128,-1,84
 96 191 96 191 88 191 c 2,85,-1
 56 191 l 2,86,87
 46 191 46 191 45 183 c 0,88,89
 44 180 44 180 44 176 c 128,-1,90
 44 172 44 172 44 169 c 2,91,-1
 44 129 l 1,92,-1
 88 129 l 2,93,94
 96 129 96 129 102.5 135 c 128,-1,95
 109 141 109 141 109 152 c 2,96,-1
 109 169 l 2,82,83
EndSplineSet
Substitution2: "Single Substitution lookup 21 subtable" uni0C24_uni0C4D.abvs
EndChar

StartChar: uni0C25
Encoding: 3109 3109 144
Width: 367
GlyphClass: 2
Flags: W
LayerCount: 2
Back
Fore
SplineSet
241 412 m 2,0,1
 233 412 233 412 227.5 408 c 128,-1,2
 222 404 222 404 222 393 c 2,3,-1
 221 326 l 1,4,-1
 252 326 l 2,5,6
 272 326 272 326 288 311.5 c 128,-1,7
 304 297 304 297 304 271 c 2,8,-1
 304 56 l 2,9,10
 304 31 304 31 288 16 c 128,-1,11
 272 1 272 1 252 1 c 2,12,-1
 179 1 l 2,13,14
 174 1 174 1 168.5 4.5 c 128,-1,15
 163 8 163 8 154 17 c 1,16,17
 136 1 136 1 114 1 c 2,18,-1
 55 1 l 2,19,20
 35 1 35 1 19.5 16 c 128,-1,21
 4 31 4 31 4 56 c 2,22,-1
 4 271 l 2,23,24
 4 293 4 293 16.5 307 c 128,-1,25
 29 321 29 321 48 326 c 1,26,27
 45 338 45 338 45 343 c 2,28,-1
 45 398 l 1,29,-1
 84 398 l 1,30,-1
 84 347 l 2,31,32
 84 336 84 336 91 332 c 128,-1,33
 98 328 98 328 108 326 c 2,34,-1
 182 326 l 1,35,-1
 183 397 l 2,36,37
 183 422 183 422 199 436.5 c 128,-1,38
 215 451 215 451 235 451 c 2,39,-1
 305 451 l 1,40,-1
 305 412 l 1,41,-1
 241 412 l 2,0,1
134 -96 m 1,42,-1
 134 -33 l 1,43,44
 138 -32 138 -32 142.5 -30 c 128,-1,45
 147 -28 147 -28 152 -21 c 1,46,47
 155 -26 155 -26 159.5 -28.5 c 128,-1,48
 164 -31 164 -31 167 -33 c 2,49,-1
 167 -96 l 1,50,-1
 134 -96 l 1,42,-1
264 266 m 2,51,52
 264 286 264 286 246 286 c 2,53,-1
 60 286 l 2,54,55
 44 286 44 286 44 265 c 2,56,-1
 44 59 l 2,57,58
 44 42 44 42 60 42 c 2,59,-1
 115 42 l 2,60,61
 134 42 134 42 134 59 c 2,62,-1
 134 102 l 1,63,-1
 173 102 l 1,64,-1
 173 59 l 2,65,66
 173 42 173 42 191 42 c 2,67,-1
 246 42 l 2,68,69
 264 42 264 42 264 59 c 2,70,-1
 264 266 l 2,51,52
133 160 m 1,71,-1
 133 211 l 1,72,-1
 175 211 l 1,73,-1
 175 160 l 1,74,-1
 133 160 l 1,71,-1
EndSplineSet
Substitution2: "Single Substitution lookup 21 subtable" uni0C25_uni0C4D.abvs
EndChar

StartChar: uni0C26
Encoding: 3110 3110 145
Width: 367
GlyphClass: 2
Flags: W
LayerCount: 2
Back
Fore
SplineSet
241 412 m 2,0,1
 233 412 233 412 227.5 408 c 128,-1,2
 222 404 222 404 222 393 c 2,3,-1
 221 326 l 1,4,-1
 252 326 l 2,5,6
 272 326 272 326 288 311.5 c 128,-1,7
 304 297 304 297 304 271 c 2,8,-1
 304 56 l 2,9,10
 304 31 304 31 288 16 c 128,-1,11
 272 1 272 1 252 1 c 2,12,-1
 179 1 l 2,13,14
 174 1 174 1 168.5 4.5 c 128,-1,15
 163 8 163 8 154 17 c 1,16,17
 136 1 136 1 114 1 c 2,18,-1
 55 1 l 2,19,20
 35 1 35 1 19.5 16 c 128,-1,21
 4 31 4 31 4 56 c 2,22,-1
 4 271 l 2,23,24
 4 293 4 293 16.5 307 c 128,-1,25
 29 321 29 321 48 326 c 1,26,27
 45 338 45 338 45 343 c 2,28,-1
 45 398 l 1,29,-1
 84 398 l 1,30,-1
 84 347 l 2,31,32
 84 336 84 336 91 332 c 128,-1,33
 98 328 98 328 108 326 c 2,34,-1
 182 326 l 1,35,-1
 183 397 l 2,36,37
 183 422 183 422 199 436.5 c 128,-1,38
 215 451 215 451 235 451 c 2,39,-1
 305 451 l 1,40,-1
 305 412 l 1,41,-1
 241 412 l 2,0,1
264 266 m 2,42,43
 264 286 264 286 246 286 c 2,44,-1
 60 286 l 2,45,46
 44 286 44 286 44 265 c 2,47,-1
 44 59 l 2,48,49
 44 42 44 42 60 42 c 2,50,-1
 115 42 l 2,51,52
 134 42 134 42 134 59 c 2,53,-1
 134 102 l 1,54,-1
 173 102 l 1,55,-1
 173 59 l 2,56,57
 173 42 173 42 191 42 c 2,58,-1
 246 42 l 2,59,60
 264 42 264 42 264 59 c 2,61,-1
 264 266 l 2,42,43
EndSplineSet
Substitution2: "Single Substitution lookup 21 subtable" uni0C26_uni0C4D.abvs
EndChar

StartChar: uni0C27
Encoding: 3111 3111 146
Width: 367
GlyphClass: 2
Flags: W
LayerCount: 2
Back
Fore
SplineSet
241 412 m 2,0,1
 233 412 233 412 227.5 408 c 128,-1,2
 222 404 222 404 222 393 c 2,3,-1
 221 326 l 1,4,-1
 252 326 l 2,5,6
 272 326 272 326 288 311.5 c 128,-1,7
 304 297 304 297 304 271 c 2,8,-1
 304 56 l 2,9,10
 304 31 304 31 288 16 c 128,-1,11
 272 1 272 1 252 1 c 2,12,-1
 179 1 l 2,13,14
 174 1 174 1 168.5 4.5 c 128,-1,15
 163 8 163 8 154 17 c 1,16,17
 136 1 136 1 114 1 c 2,18,-1
 55 1 l 2,19,20
 35 1 35 1 19.5 16 c 128,-1,21
 4 31 4 31 4 56 c 2,22,-1
 4 271 l 2,23,24
 4 293 4 293 16.5 307 c 128,-1,25
 29 321 29 321 48 326 c 1,26,27
 45 338 45 338 45 343 c 2,28,-1
 45 398 l 1,29,-1
 84 398 l 1,30,-1
 84 347 l 2,31,32
 84 336 84 336 91 332 c 128,-1,33
 98 328 98 328 108 326 c 2,34,-1
 182 326 l 1,35,-1
 183 397 l 2,36,37
 183 422 183 422 199 436.5 c 128,-1,38
 215 451 215 451 235 451 c 2,39,-1
 305 451 l 1,40,-1
 305 412 l 1,41,-1
 241 412 l 2,0,1
134 -96 m 1,42,-1
 134 -33 l 1,43,44
 138 -32 138 -32 142.5 -30 c 128,-1,45
 147 -28 147 -28 152 -21 c 1,46,47
 155 -26 155 -26 159.5 -28.5 c 128,-1,48
 164 -31 164 -31 167 -33 c 2,49,-1
 167 -96 l 1,50,-1
 134 -96 l 1,42,-1
264 266 m 2,51,52
 264 286 264 286 246 286 c 2,53,-1
 60 286 l 2,54,55
 44 286 44 286 44 265 c 2,56,-1
 44 59 l 2,57,58
 44 42 44 42 60 42 c 2,59,-1
 115 42 l 2,60,61
 134 42 134 42 134 59 c 2,62,-1
 134 102 l 1,63,-1
 173 102 l 1,64,-1
 173 59 l 2,65,66
 173 42 173 42 191 42 c 2,67,-1
 246 42 l 2,68,69
 264 42 264 42 264 59 c 2,70,-1
 264 266 l 2,51,52
EndSplineSet
Substitution2: "Single Substitution lookup 21 subtable" uni0C27_uni0C4D.abvs
EndChar

StartChar: uni0C28
Encoding: 3112 3112 147
Width: 364
GlyphClass: 2
Flags: W
LayerCount: 2
Back
Fore
SplineSet
244 0 m 2,0,-1
 192 0 l 2,1,2
 170 0 170 0 151.5 17.5 c 128,-1,3
 133 35 133 35 133 63 c 2,4,-1
 133 152 l 2,5,6
 133 163 133 163 126.5 168 c 128,-1,7
 120 173 120 173 112 174 c 2,8,-1
 65 174 l 2,9,10
 44 174 44 174 44 152 c 2,11,-1
 44 0 l 1,12,-1
 4 0 l 1,13,-1
 4 153 l 2,14,15
 4 181 4 181 22 197.5 c 128,-1,16
 40 214 40 214 63 214 c 2,17,-1
 114 214 l 2,18,19
 136 214 136 214 154.5 197.5 c 128,-1,20
 173 181 173 181 173 153 c 2,21,-1
 173 63 l 2,22,23
 173 52 173 52 179.5 46.5 c 128,-1,24
 186 41 186 41 194 41 c 2,25,-1
 242 41 l 2,26,27
 250 41 250 41 256 46.5 c 128,-1,28
 262 52 262 52 262 63 c 2,29,-1
 262 264 l 2,30,31
 262 275 262 275 256 280 c 128,-1,32
 250 285 250 285 242 285 c 2,33,-1
 38 285 l 1,34,-1
 38 326 l 1,35,-1
 120 326 l 1,36,-1
 120 402 l 2,37,38
 120 425 120 425 135.5 440 c 128,-1,39
 151 455 151 455 170 455 c 2,40,-1
 302 455 l 1,41,-1
 302 416 l 1,42,-1
 177 416 l 2,43,44
 170 416 170 416 164.5 411.5 c 128,-1,45
 159 407 159 407 159 398 c 2,46,-1
 159 326 l 1,47,-1
 244 326 l 2,48,49
 266 326 266 326 284 308 c 128,-1,50
 302 290 302 290 302 264 c 2,51,-1
 302 63 l 2,52,53
 302 34 302 34 284 17 c 128,-1,54
 266 0 266 0 244 0 c 2,0,-1
EndSplineSet
Substitution2: "Single Substitution lookup 21 subtable" uni0C28_uni0C4D.abvs
EndChar

StartChar: uni0C2A
Encoding: 3114 3114 148
Width: 360
GlyphClass: 2
Flags: W
LayerCount: 2
Back
Fore
SplineSet
166 411 m 2,0,1
 150 411 150 411 150 393 c 2,2,-1
 150 343 l 2,3,4
 150 314 150 314 135.5 299 c 128,-1,5
 121 284 121 284 98 284 c 2,6,-1
 5 284 l 1,7,-1
 5 325 l 1,8,-1
 91 325 l 2,9,10
 110 325 110 325 110 343 c 2,11,-1
 110 391 l 2,12,13
 110 420 110 420 125.5 436 c 128,-1,14
 141 452 141 452 163 452 c 2,15,-1
 241 452 l 1,16,-1
 241 411 l 1,17,-1
 166 411 l 2,0,1
242 0 m 2,18,-1
 191 0 l 2,19,20
 183 0 183 0 172.5 4 c 128,-1,21
 162 8 162 8 152 18 c 1,22,23
 144 10 144 10 134 5 c 128,-1,24
 124 0 124 0 116 0 c 2,25,-1
 63 0 l 2,26,27
 40 0 40 0 22 17.5 c 128,-1,28
 4 35 4 35 4 63 c 2,29,-1
 4 163 l 2,30,31
 4 191 4 191 22 207.5 c 128,-1,32
 40 224 40 224 63 224 c 2,33,-1
 112 224 l 2,34,35
 135 224 135 224 153 207.5 c 128,-1,36
 171 191 171 191 171 163 c 2,37,-1
 171 63 l 2,38,39
 171 41 171 41 193 41 c 2,40,-1
 240 41 l 2,41,42
 248 41 248 41 254 46.5 c 128,-1,43
 260 52 260 52 260 63 c 2,44,-1
 260 264 l 2,45,46
 260 285 260 285 240 285 c 2,47,-1
 229 285 l 1,48,-1
 229 326 l 1,49,-1
 242 326 l 2,50,51
 264 326 264 326 282 308.5 c 128,-1,52
 300 291 300 291 300 263 c 2,53,-1
 300 63 l 2,54,55
 300 35 300 35 282 17.5 c 128,-1,56
 264 0 264 0 242 0 c 2,18,-1
132 162 m 2,57,58
 132 184 132 184 110 184 c 2,59,-1
 65 184 l 2,60,61
 44 184 44 184 44 162 c 2,62,-1
 44 63 l 2,63,64
 44 52 44 52 50.5 46.5 c 128,-1,65
 57 41 57 41 65 41 c 2,66,-1
 110 41 l 2,67,68
 132 41 132 41 132 63 c 2,69,-1
 132 162 l 2,57,58
EndSplineSet
Substitution2: "Single Substitution lookup 21 subtable" uni0C2A_uni0C4D.abvs
EndChar

StartChar: uni0C2B
Encoding: 3115 3115 149
Width: 360
GlyphClass: 2
Flags: W
LayerCount: 2
Back
Fore
SplineSet
166 411 m 2,0,1
 150 411 150 411 150 393 c 2,2,-1
 150 343 l 2,3,4
 150 315 150 315 135.5 299.5 c 128,-1,5
 121 284 121 284 98 284 c 2,6,-1
 5 284 l 1,7,-1
 5 325 l 1,8,-1
 91 325 l 2,9,10
 110 325 110 325 110 343 c 2,11,-1
 110 391 l 2,12,13
 110 420 110 420 125.5 436 c 128,-1,14
 141 452 141 452 163 452 c 2,15,-1
 241 452 l 1,16,-1
 241 411 l 1,17,-1
 166 411 l 2,0,1
242 1 m 2,18,-1
 191 1 l 2,19,20
 183 1 183 1 172.5 5 c 128,-1,21
 162 9 162 9 152 19 c 1,22,23
 144 11 144 11 134 6 c 128,-1,24
 124 1 124 1 116 1 c 2,25,-1
 63 1 l 2,26,27
 40 1 40 1 22 18.5 c 128,-1,28
 4 36 4 36 4 64 c 2,29,-1
 4 164 l 2,30,31
 4 192 4 192 22 208.5 c 128,-1,32
 40 225 40 225 63 225 c 2,33,-1
 112 225 l 2,34,35
 135 225 135 225 153 208.5 c 128,-1,36
 171 192 171 192 171 164 c 2,37,-1
 171 64 l 2,38,39
 171 42 171 42 193 42 c 2,40,-1
 240 42 l 2,41,42
 248 42 248 42 254 47.5 c 128,-1,43
 260 53 260 53 260 64 c 2,44,-1
 260 264 l 2,45,46
 260 286 260 286 240 286 c 2,47,-1
 229 286 l 1,48,-1
 229 326 l 1,49,-1
 242 326 l 2,50,51
 264 326 264 326 282 309 c 128,-1,52
 300 292 300 292 300 263 c 2,53,-1
 300 64 l 2,54,55
 300 36 300 36 282 18.5 c 128,-1,56
 264 1 264 1 242 1 c 2,18,-1
133 -83 m 1,57,-1
 133 -30 l 1,58,59
 137 -29 137 -29 141.5 -27 c 128,-1,60
 146 -25 146 -25 151 -18 c 1,61,62
 154 -23 154 -23 158.5 -25.5 c 128,-1,63
 163 -28 163 -28 166 -30 c 2,64,-1
 166 -83 l 1,65,-1
 133 -83 l 1,57,-1
132 163 m 2,66,67
 132 185 132 185 110 185 c 2,68,-1
 65 185 l 2,69,70
 44 185 44 185 44 163 c 2,71,-1
 44 64 l 2,72,73
 44 53 44 53 50.5 47.5 c 128,-1,74
 57 42 57 42 65 42 c 2,75,-1
 110 42 l 2,76,77
 132 42 132 42 132 64 c 2,78,-1
 132 163 l 2,66,67
EndSplineSet
Substitution2: "Single Substitution lookup 21 subtable" uni0C2B_uni0C4D.abvs
EndChar

StartChar: uni0C2C
Encoding: 3116 3116 150
Width: 350
GlyphClass: 2
Flags: W
LayerCount: 2
Back
Fore
SplineSet
227 0 m 2,0,-1
 179 0 l 2,1,2
 171 0 171 0 162 4.5 c 128,-1,3
 153 9 153 9 145 15 c 1,4,5
 135 9 135 9 125.5 4.5 c 128,-1,6
 116 0 116 0 105 0 c 2,7,-1
 63 0 l 2,8,9
 40 0 40 0 22 17.5 c 128,-1,10
 4 35 4 35 4 64 c 2,11,-1
 4 141 l 2,12,13
 4 170 4 170 22 187.5 c 128,-1,14
 40 205 40 205 63 205 c 2,15,-1
 102 205 l 2,16,17
 124 205 124 205 124 227 c 2,18,-1
 124 265 l 2,19,20
 124 287 124 287 102 287 c 2,21,-1
 65 287 l 2,22,23
 44 287 44 287 44 265 c 2,24,-1
 44 236 l 1,25,-1
 4 236 l 1,26,-1
 4 264 l 2,27,28
 4 293 4 293 22 310.5 c 128,-1,29
 40 328 40 328 63 328 c 2,30,-1
 104 328 l 2,31,32
 127 328 127 328 145 310.5 c 128,-1,33
 163 293 163 293 163 264 c 2,34,-1
 163 228 l 2,35,36
 163 199 163 199 145 181.5 c 128,-1,37
 127 164 127 164 104 164 c 2,38,-1
 65 164 l 2,39,40
 57 164 57 164 50.5 158 c 128,-1,41
 44 152 44 152 44 141 c 2,42,-1
 44 64 l 2,43,44
 44 53 44 53 50.5 47 c 128,-1,45
 57 41 57 41 65 41 c 2,46,-1
 102 41 l 2,47,48
 124 41 124 41 124 64 c 2,49,-1
 124 102 l 1,50,-1
 163 102 l 1,51,-1
 163 64 l 2,52,53
 163 41 163 41 185 41 c 2,54,-1
 225 41 l 2,55,56
 233 41 233 41 239.5 47 c 128,-1,57
 246 53 246 53 246 64 c 2,58,-1
 246 265 l 2,59,60
 246 287 246 287 225 287 c 2,61,-1
 215 287 l 1,62,-1
 215 328 l 1,63,-1
 227 328 l 2,64,65
 249 328 249 328 267.5 310.5 c 128,-1,66
 286 293 286 293 286 264 c 2,67,-1
 286 64 l 2,68,69
 286 35 286 35 267.5 17.5 c 128,-1,70
 249 0 249 0 227 0 c 2,0,-1
EndSplineSet
Substitution2: "Single Substitution lookup 21 subtable" uni0C2C_uni0C4D.abvs
EndChar

StartChar: uni0C2D
Encoding: 3117 3117 151
Width: 350
GlyphClass: 2
Flags: W
LayerCount: 2
Back
Fore
SplineSet
264 413 m 2,0,1
 246 413 246 413 246 394 c 2,2,-1
 247 322 l 1,3,4
 264 314 264 314 275 299 c 128,-1,5
 286 284 286 284 286 263 c 2,6,-1
 286 64 l 2,7,8
 286 36 286 36 267.5 18.5 c 128,-1,9
 249 1 249 1 227 1 c 2,10,-1
 179 1 l 2,11,12
 171 1 171 1 162 5.5 c 128,-1,13
 153 10 153 10 145 17 c 1,14,15
 135 10 135 10 125.5 5.5 c 128,-1,16
 116 1 116 1 105 1 c 2,17,-1
 63 1 l 2,18,19
 40 1 40 1 22 18.5 c 128,-1,20
 4 36 4 36 4 64 c 2,21,-1
 4 121 l 2,22,23
 4 149 4 149 22 166.5 c 128,-1,24
 40 184 40 184 63 184 c 2,25,-1
 102 184 l 2,26,27
 124 184 124 184 124 205 c 2,28,-1
 124 234 l 2,29,30
 124 255 124 255 102 255 c 2,31,-1
 65 255 l 2,32,33
 44 255 44 255 44 234 c 2,34,-1
 44 211 l 1,35,-1
 4 211 l 1,36,-1
 4 233 l 2,37,38
 4 261 4 261 22 278.5 c 128,-1,39
 40 296 40 296 63 296 c 2,40,-1
 104 296 l 2,41,42
 127 296 127 296 145 278.5 c 128,-1,43
 163 261 163 261 163 233 c 2,44,-1
 163 206 l 2,45,46
 163 178 163 178 145 160.5 c 128,-1,47
 127 143 127 143 104 143 c 2,48,-1
 65 143 l 2,49,50
 57 143 57 143 50.5 137.5 c 128,-1,51
 44 132 44 132 44 121 c 2,52,-1
 44 64 l 2,53,54
 44 53 44 53 50.5 47.5 c 128,-1,55
 57 42 57 42 65 42 c 2,56,-1
 102 42 l 2,57,58
 124 42 124 42 124 64 c 2,59,-1
 124 103 l 1,60,-1
 163 103 l 1,61,-1
 163 64 l 2,62,63
 163 42 163 42 185 42 c 2,64,-1
 225 42 l 2,65,66
 233 42 233 42 239.5 47.5 c 128,-1,67
 246 53 246 53 246 64 c 2,68,-1
 246 264 l 2,69,70
 246 286 246 286 225 286 c 2,71,-1
 211 286 l 1,72,-1
 196 286 l 2,73,74
 194 286 194 286 183.5 287 c 128,-1,75
 173 288 173 288 161 292.5 c 128,-1,76
 149 297 149 297 139 307 c 128,-1,77
 129 317 129 317 129 334 c 2,78,-1
 129 359 l 1,79,-1
 168 359 l 1,80,-1
 168 348 l 2,81,82
 168 337 168 337 172 332 c 0,83,84
 175 329 175 329 179 328 c 128,-1,85
 183 327 183 327 187 326 c 2,86,-1
 206 326 l 1,87,-1
 206 398 l 2,88,89
 206 423 206 423 222 437.5 c 128,-1,90
 238 452 238 452 258 452 c 2,91,-1
 299 452 l 1,92,-1
 299 413 l 1,93,-1
 264 413 l 2,0,1
125 -86 m 1,94,-1
 125 -33 l 1,95,96
 129 -32 129 -32 133.5 -30 c 128,-1,97
 138 -28 138 -28 143 -21 c 1,98,99
 146 -26 146 -26 150.5 -28.5 c 128,-1,100
 155 -31 155 -31 158 -33 c 2,101,-1
 158 -86 l 1,102,-1
 125 -86 l 1,94,-1
EndSplineSet
Substitution2: "Single Substitution lookup 21 subtable" uni0C2D_uni0C4D.abvs
EndChar

StartChar: uni0C2E
Encoding: 3118 3118 152
Width: 484
GlyphClass: 2
Flags: W
LayerCount: 2
Back
Fore
SplineSet
369 0 m 2,0,-1
 309 0 l 2,1,2
 299 0 299 0 287 5 c 128,-1,3
 275 10 275 10 266 21 c 1,4,5
 246 0 246 0 224 0 c 2,6,-1
 182 0 l 2,7,8
 159 0 159 0 141 18 c 1,9,10
 133 10 133 10 123.5 5 c 128,-1,11
 114 0 114 0 106 0 c 2,12,-1
 61 0 l 2,13,14
 39 0 39 0 21 18 c 128,-1,15
 3 36 3 36 3 64 c 2,16,-1
 3 163 l 2,17,18
 3 189 3 189 21 207.5 c 128,-1,19
 39 226 39 226 61 226 c 2,20,-1
 102 226 l 2,21,22
 124 226 124 226 142 207.5 c 128,-1,23
 160 189 160 189 160 163 c 2,24,-1
 160 64 l 2,25,26
 160 41 160 41 184 41 c 2,27,-1
 222 41 l 2,28,29
 230 41 230 41 236 47 c 128,-1,30
 242 53 242 53 242 64 c 2,31,-1
 242 265 l 2,32,33
 242 287 242 287 222 287 c 2,34,-1
 4 287 l 1,35,-1
 4 328 l 1,36,-1
 81 328 l 1,37,-1
 81 388 l 2,38,39
 81 416 81 416 99 434 c 128,-1,40
 117 452 117 452 140 452 c 2,41,-1
 252 452 l 1,42,-1
 252 411 l 1,43,-1
 142 411 l 2,44,45
 121 411 121 411 121 388 c 2,46,-1
 121 328 l 1,47,-1
 224 328 l 2,48,49
 246 328 246 328 264 310 c 128,-1,50
 282 292 282 292 282 264 c 2,51,-1
 282 80 l 2,52,53
 282 57 282 57 290.5 49 c 128,-1,54
 299 41 299 41 311 41 c 2,55,-1
 367 41 l 2,56,57
 388 41 388 41 388 63 c 2,58,-1
 388 264 l 2,59,60
 388 285 388 285 367 285 c 2,61,-1
 356 285 l 1,62,-1
 356 326 l 1,63,-1
 369 326 l 2,64,65
 392 326 392 326 409.5 308.5 c 128,-1,66
 427 291 427 291 427 263 c 2,67,-1
 427 63 l 2,68,69
 427 35 427 35 409.5 17.5 c 128,-1,70
 392 0 392 0 369 0 c 2,0,-1
121 164 m 2,71,72
 121 175 121 175 114.5 180 c 128,-1,73
 108 185 108 185 100 185 c 2,74,-1
 63 185 l 2,75,76
 43 185 43 185 43 164 c 2,77,-1
 43 64 l 2,78,79
 43 53 43 53 49 47 c 128,-1,80
 55 41 55 41 63 41 c 2,81,-1
 100 41 l 2,82,83
 108 41 108 41 114.5 47 c 128,-1,84
 121 53 121 53 121 64 c 2,85,-1
 121 164 l 2,71,72
EndSplineSet
Substitution2: "Single Substitution lookup 21 subtable" uni0C2E_uni0C4D.abvs
EndChar

StartChar: uni0C2F
Encoding: 3119 3119 153
Width: 623
GlyphClass: 2
Flags: W
LayerCount: 2
Back
Fore
SplineSet
504 0 m 2,0,-1
 444 0 l 2,1,2
 433 0 433 0 421.5 5 c 128,-1,3
 410 10 410 10 401 21 c 1,4,5
 388 9 388 9 376.5 4.5 c 128,-1,6
 365 0 365 0 359 0 c 2,7,-1
 254 0 l 2,8,9
 240 0 240 0 229 8.5 c 128,-1,10
 218 17 218 17 213 31 c 1,11,12
 205 17 205 17 196 8.5 c 128,-1,13
 187 0 187 0 173 0 c 2,14,-1
 63 0 l 2,15,16
 40 0 40 0 22 17.5 c 128,-1,17
 4 35 4 35 4 63 c 2,18,-1
 4 264 l 2,19,20
 4 290 4 290 22 308 c 128,-1,21
 40 326 40 326 63 326 c 2,22,-1
 174 326 l 2,23,24
 196 326 196 326 214.5 308 c 128,-1,25
 233 290 233 290 233 264 c 2,26,-1
 233 63 l 2,27,28
 233 52 233 52 239 46.5 c 128,-1,29
 245 41 245 41 253 41 c 2,30,-1
 355 41 l 2,31,32
 376 41 376 41 376 63 c 2,33,-1
 376 264 l 2,34,35
 376 285 376 285 355 285 c 2,36,-1
 275 285 l 1,37,-1
 275 326 l 1,38,-1
 292 326 l 1,39,-1
 292 399 l 2,40,41
 292 422 292 422 307.5 437 c 128,-1,42
 323 452 323 452 342 452 c 2,43,-1
 415 452 l 1,44,-1
 415 412 l 1,45,-1
 349 412 l 2,46,47
 342 412 342 412 336.5 407.5 c 128,-1,48
 331 403 331 403 331 394 c 2,49,-1
 331 326 l 1,50,-1
 357 326 l 2,51,52
 380 326 380 326 398 308 c 128,-1,53
 416 290 416 290 416 264 c 2,54,-1
 416 72 l 2,55,56
 416 52 416 52 425.5 46.5 c 128,-1,57
 435 41 435 41 446 41 c 2,58,-1
 502 41 l 2,59,60
 510 41 510 41 516.5 46.5 c 128,-1,61
 523 52 523 52 523 63 c 2,62,-1
 523 264 l 2,63,64
 523 285 523 285 502 285 c 2,65,-1
 491 285 l 1,66,-1
 491 326 l 1,67,-1
 504 326 l 2,68,69
 526 326 526 326 544 308.5 c 128,-1,70
 562 291 562 291 562 263 c 2,71,-1
 562 63 l 2,72,73
 562 35 562 35 544 17.5 c 128,-1,74
 526 0 526 0 504 0 c 2,0,-1
192 264 m 2,75,76
 192 285 192 285 172 285 c 2,77,-1
 66 285 l 2,78,79
 44 285 44 285 44 264 c 2,80,-1
 44 63 l 2,81,82
 44 41 44 41 66 41 c 2,83,-1
 172 41 l 2,84,85
 180 41 180 41 186 46.5 c 128,-1,86
 192 52 192 52 192 63 c 2,87,-1
 192 264 l 2,75,76
EndSplineSet
Substitution2: "Single Substitution lookup 21 subtable" uni0C2F_uni0C4D.abvs
EndChar

StartChar: uni0C30
Encoding: 3120 3120 154
Width: 312
GlyphClass: 2
Flags: W
LayerCount: 2
Back
Fore
SplineSet
189 0 m 2,0,-1
 62 0 l 2,1,2
 40 0 40 0 22 17.5 c 128,-1,3
 4 35 4 35 4 63 c 2,4,-1
 4 264 l 2,5,6
 4 295 4 295 32 317 c 1,7,8
 22 330 22 330 22 344 c 2,9,-1
 22 379 l 1,10,-1
 61 379 l 1,11,-1
 61 348 l 2,12,13
 61 331 61 331 79 328 c 2,14,-1
 90 326 l 1,15,-1
 129 326 l 1,16,-1
 129 397 l 2,17,18
 129 422 129 422 145 437 c 128,-1,19
 161 452 161 452 181 452 c 2,20,-1
 245 452 l 1,21,-1
 245 411 l 1,22,-1
 187 411 l 2,23,24
 179 411 179 411 173.5 407 c 128,-1,25
 168 403 168 403 168 392 c 2,26,-1
 168 326 l 1,27,-1
 187 326 l 2,28,29
 209 326 209 326 227 308 c 128,-1,30
 245 290 245 290 245 264 c 2,31,-1
 245 63 l 2,32,33
 245 44 245 44 238 32 c 128,-1,34
 231 20 231 20 222 13 c 128,-1,35
 213 6 213 6 203.5 3 c 128,-1,36
 194 0 194 0 189 0 c 2,0,-1
205 264 m 2,37,38
 205 275 205 275 199 280 c 128,-1,39
 193 285 193 285 185 285 c 2,40,-1
 65 285 l 2,41,42
 44 285 44 285 44 264 c 2,43,-1
 44 63 l 2,44,45
 44 41 44 41 65 41 c 2,46,-1
 185 41 l 2,47,48
 193 41 193 41 199 46.5 c 128,-1,49
 205 52 205 52 205 63 c 2,50,-1
 205 264 l 2,37,38
EndSplineSet
Substitution2: "Single Substitution lookup 21 subtable" uni0C30_uni0C4D.abvs
EndChar

StartChar: uni0C31
Encoding: 3121 3121 155
Width: 370
GlyphClass: 2
Flags: W
LayerCount: 2
Back
Fore
SplineSet
257 0 m 2,0,-1
 187 0 l 2,1,2
 168 0 168 0 155 13 c 1,3,4
 148 6 148 6 140 3 c 128,-1,5
 132 0 132 0 127 0 c 2,6,-1
 63 0 l 2,7,8
 40 0 40 0 22 17.5 c 128,-1,9
 4 35 4 35 4 64 c 2,10,-1
 4 264 l 2,11,12
 4 293 4 293 22 310.5 c 128,-1,13
 40 328 40 328 63 328 c 2,14,-1
 89 328 l 2,15,16
 112 328 112 328 130 310.5 c 128,-1,17
 148 293 148 293 148 264 c 2,18,-1
 148 228 l 2,19,20
 148 199 148 199 130 181.5 c 128,-1,21
 112 164 112 164 89 164 c 2,22,-1
 44 164 l 1,23,-1
 44 64 l 2,24,25
 44 53 44 53 50.5 47 c 128,-1,26
 57 41 57 41 65 41 c 2,27,-1
 112 41 l 2,28,29
 134 41 134 41 134 64 c 2,30,-1
 134 78 l 1,31,-1
 174 78 l 1,32,-1
 174 64 l 2,33,34
 174 53 174 53 180.5 47 c 128,-1,35
 187 41 187 41 195 41 c 2,36,-1
 255 41 l 2,37,38
 263 41 263 41 269.5 47 c 128,-1,39
 276 53 276 53 276 64 c 2,40,-1
 276 265 l 2,41,42
 276 287 276 287 255 287 c 2,43,-1
 234 287 l 2,44,45
 214 287 214 287 214 265 c 2,46,-1
 214 151 l 1,47,-1
 230 151 l 1,48,-1
 230 109 l 1,49,-1
 68 109 l 1,50,-1
 68 150 l 1,51,-1
 174 150 l 1,52,-1
 174 264 l 2,53,54
 174 293 174 293 192 310.5 c 128,-1,55
 210 328 210 328 232 328 c 2,56,-1
 257 328 l 2,57,58
 280 328 280 328 298 310.5 c 128,-1,59
 316 293 316 293 316 264 c 2,60,-1
 316 64 l 2,61,62
 316 35 316 35 298 17.5 c 128,-1,63
 280 0 280 0 257 0 c 2,0,-1
108 265 m 2,64,65
 108 287 108 287 87 287 c 2,66,-1
 65 287 l 2,67,68
 44 287 44 287 44 265 c 2,69,-1
 44 205 l 1,70,-1
 87 205 l 2,71,72
 108 205 108 205 108 228 c 2,73,-1
 108 265 l 2,64,65
EndSplineSet
Substitution2: "Single Substitution lookup 21 subtable" uni0C31_uni0C4D.abvs
EndChar

StartChar: uni0C32
Encoding: 3122 3122 156
Width: 349
GlyphClass: 2
Flags: W
LayerCount: 2
Back
Fore
SplineSet
228 0 m 2,0,-1
 63 0 l 2,1,2
 40 0 40 0 22 17.5 c 128,-1,3
 4 35 4 35 4 64 c 2,4,-1
 4 264 l 2,5,6
 4 293 4 293 22 310.5 c 128,-1,7
 40 328 40 328 63 328 c 2,8,-1
 106 328 l 2,9,10
 128 328 128 328 146.5 310.5 c 128,-1,11
 165 293 165 293 165 264 c 2,12,-1
 165 205 l 2,13,14
 165 176 165 176 146.5 158.5 c 128,-1,15
 128 141 128 141 106 141 c 2,16,-1
 44 141 l 1,17,-1
 44 64 l 2,18,19
 44 53 44 53 50.5 47 c 128,-1,20
 57 41 57 41 65 41 c 2,21,-1
 226 41 l 2,22,23
 234 41 234 41 240 47 c 128,-1,24
 246 53 246 53 246 64 c 2,25,-1
 246 265 l 2,26,27
 246 287 246 287 226 287 c 2,28,-1
 220 287 l 1,29,-1
 220 328 l 1,30,-1
 228 328 l 2,31,32
 250 328 250 328 268 310.5 c 128,-1,33
 286 293 286 293 286 264 c 2,34,-1
 286 64 l 2,35,36
 286 35 286 35 268 17.5 c 128,-1,37
 250 0 250 0 228 0 c 2,0,-1
125 265 m 2,38,39
 125 277 125 277 118.5 282 c 128,-1,40
 112 287 112 287 104 287 c 2,41,-1
 65 287 l 2,42,43
 44 287 44 287 44 265 c 2,44,-1
 44 181 l 1,45,-1
 104 181 l 2,46,47
 112 181 112 181 118.5 187.5 c 128,-1,48
 125 194 125 194 125 205 c 2,49,-1
 125 265 l 2,38,39
EndSplineSet
Substitution2: "Single Substitution lookup 21 subtable" uni0C32_uni0C4D.abvs
EndChar

StartChar: uni0C33
Encoding: 3123 3123 157
Width: 358
GlyphClass: 2
Flags: W
LayerCount: 2
Back
Fore
SplineSet
243 401 m 2,0,1
 236 401 236 401 230.5 396.5 c 128,-1,2
 225 392 225 392 225 383 c 2,3,-1
 225 326 l 1,4,-1
 235 326 l 2,5,6
 258 326 258 326 276 309 c 128,-1,7
 294 292 294 292 294 264 c 2,8,-1
 294 184 l 2,9,10
 294 161 294 161 278.5 146 c 128,-1,11
 263 131 263 131 249 126 c 1,12,13
 254 116 254 116 254 109 c 2,14,-1
 254 62 l 2,15,16
 254 34 254 34 236.5 17 c 128,-1,17
 219 0 219 0 185 0 c 2,18,-1
 111 0 l 2,19,20
 86 0 86 0 70 16.5 c 128,-1,21
 54 33 54 33 54 62 c 2,22,-1
 54 100 l 2,23,24
 54 105 54 105 54.5 109.5 c 128,-1,25
 55 114 55 114 57 121 c 1,26,27
 50 122 50 122 41 127.5 c 128,-1,28
 32 133 32 133 23.5 143 c 128,-1,29
 15 153 15 153 9.5 167 c 128,-1,30
 4 181 4 181 4 200 c 2,31,-1
 4 263 l 2,32,33
 4 291 4 291 21.5 308.5 c 128,-1,34
 39 326 39 326 61 326 c 2,35,-1
 88 326 l 2,36,37
 103 326 103 326 114 320.5 c 128,-1,38
 125 315 125 315 132 306.5 c 128,-1,39
 139 298 139 298 142 288.5 c 128,-1,40
 145 279 145 279 145 272 c 2,41,-1
 145 244 l 2,42,43
 145 230 145 230 139 220.5 c 128,-1,44
 133 211 133 211 124.5 205 c 128,-1,45
 116 199 116 199 107 196.5 c 128,-1,46
 98 194 98 194 91 194 c 2,47,-1
 46 194 l 1,48,49
 46 174 46 174 52.5 168.5 c 128,-1,50
 59 163 59 163 67 163 c 2,51,-1
 230 163 l 2,52,53
 238 163 238 163 246 167.5 c 128,-1,54
 254 172 254 172 254 189 c 2,55,-1
 254 264 l 2,56,57
 254 285 254 285 233 285 c 2,58,-1
 171 285 l 1,59,-1
 171 326 l 1,60,-1
 186 326 l 1,61,-1
 186 387 l 2,62,63
 186 410 186 410 201.5 425 c 128,-1,64
 217 440 217 440 236 440 c 2,65,-1
 295 440 l 1,66,-1
 295 401 l 1,67,-1
 243 401 l 2,0,1
106 273 m 2,68,69
 106 279 106 279 101.5 282 c 128,-1,70
 97 285 97 285 91 285 c 2,71,-1
 60 285 l 2,72,73
 50 285 50 285 47 281.5 c 128,-1,74
 44 278 44 278 44 270 c 2,75,-1
 44 253 l 2,76,77
 44 248 44 248 47 242.5 c 128,-1,78
 50 237 50 237 61 237 c 2,79,-1
 89 237 l 2,80,81
 106 237 106 237 106 251 c 2,82,-1
 106 273 l 2,68,69
214 97 m 2,83,84
 214 111 214 111 207.5 117 c 128,-1,85
 201 123 201 123 191 123 c 2,86,-1
 116 123 l 2,87,88
 106 123 106 123 99.5 119 c 128,-1,89
 93 115 93 115 93 100 c 2,90,-1
 93 63 l 2,91,92
 93 49 93 49 99 45 c 128,-1,93
 105 41 105 41 115 41 c 2,94,-1
 192 41 l 2,95,96
 214 41 214 41 214 66 c 2,97,-1
 214 97 l 2,83,84
EndSplineSet
Substitution2: "Single Substitution lookup 21 subtable" uni0C33_uni0C4D.abvs
EndChar

StartChar: uni0C34
Encoding: 3124 3124 158
Width: 382
GlyphClass: 2
Flags: W
LayerCount: 2
Back
Fore
SplineSet
267 0 m 2,0,-1
 197 0 l 2,1,2
 178 0 178 0 165 13 c 1,3,4
 158 6 158 6 150 3 c 128,-1,5
 142 0 142 0 137 0 c 2,6,-1
 63 0 l 2,7,8
 40 0 40 0 22 17.5 c 128,-1,9
 4 35 4 35 4 64 c 2,10,-1
 4 264 l 2,11,12
 4 293 4 293 22 310.5 c 128,-1,13
 40 328 40 328 63 328 c 2,14,-1
 89 328 l 2,15,16
 112 328 112 328 130 310.5 c 128,-1,17
 148 293 148 293 148 264 c 2,18,-1
 148 228 l 2,19,20
 148 199 148 199 130 181.5 c 128,-1,21
 112 164 112 164 89 164 c 2,22,-1
 44 164 l 1,23,-1
 44 64 l 2,24,25
 44 53 44 53 50.5 47 c 128,-1,26
 57 41 57 41 65 41 c 2,27,-1
 122 41 l 2,28,29
 144 41 144 41 144 64 c 2,30,-1
 144 98 l 1,31,-1
 184 98 l 1,32,-1
 184 64 l 2,33,34
 184 53 184 53 190.5 47 c 128,-1,35
 197 41 197 41 205 41 c 2,36,-1
 265 41 l 2,37,38
 274 41 274 41 280 49 c 128,-1,39
 286 57 286 57 286 64 c 2,40,-1
 286 165 l 1,41,-1
 241 165 l 2,42,43
 218 165 218 165 200 182.5 c 128,-1,44
 182 200 182 200 182 229 c 2,45,-1
 182 264 l 2,46,47
 182 293 182 293 200 311 c 128,-1,48
 218 329 218 329 241 329 c 2,49,-1
 266 329 l 2,50,51
 289 329 289 329 307.5 311 c 128,-1,52
 326 293 326 293 326 264 c 2,53,-1
 326 65 l 2,54,55
 326 39 326 39 310 19.5 c 128,-1,56
 294 0 294 0 267 0 c 2,0,-1
286 265 m 2,57,58
 286 288 286 288 264 288 c 2,59,-1
 243 288 l 2,60,61
 221 288 221 288 221 265 c 2,62,-1
 221 228 l 2,63,64
 221 206 221 206 243 206 c 2,65,-1
 286 206 l 1,66,-1
 286 265 l 2,57,58
108 265 m 2,67,68
 108 287 108 287 87 287 c 2,69,-1
 65 287 l 2,70,71
 44 287 44 287 44 265 c 2,72,-1
 44 205 l 1,73,-1
 87 205 l 2,74,75
 108 205 108 205 108 228 c 2,76,-1
 108 265 l 2,67,68
EndSplineSet
EndChar

StartChar: uni0C35
Encoding: 3125 3125 159
Width: 346
GlyphClass: 2
Flags: W
LayerCount: 2
Back
Fore
SplineSet
224 0 m 2,0,-1
 182 0 l 2,1,2
 159 0 159 0 141 18 c 1,3,4
 133 10 133 10 123.5 5 c 128,-1,5
 114 0 114 0 106 0 c 2,6,-1
 61 0 l 2,7,8
 39 0 39 0 21 18 c 128,-1,9
 3 36 3 36 3 64 c 2,10,-1
 3 163 l 2,11,12
 3 189 3 189 21 207.5 c 128,-1,13
 39 226 39 226 61 226 c 2,14,-1
 102 226 l 2,15,16
 124 226 124 226 142 207.5 c 128,-1,17
 160 189 160 189 160 163 c 2,18,-1
 160 64 l 2,19,20
 160 41 160 41 184 41 c 2,21,-1
 222 41 l 2,22,23
 230 41 230 41 236 47 c 128,-1,24
 242 53 242 53 242 64 c 2,25,-1
 242 265 l 2,26,27
 242 287 242 287 222 287 c 2,28,-1
 4 287 l 1,29,-1
 4 328 l 1,30,-1
 81 328 l 1,31,-1
 81 388 l 2,32,33
 81 416 81 416 99 434 c 128,-1,34
 117 452 117 452 140 452 c 2,35,-1
 252 452 l 1,36,-1
 252 411 l 1,37,-1
 142 411 l 2,38,39
 121 411 121 411 121 388 c 2,40,-1
 121 328 l 1,41,-1
 224 328 l 2,42,43
 246 328 246 328 264 310 c 128,-1,44
 282 292 282 292 282 264 c 2,45,-1
 282 64 l 2,46,47
 282 36 282 36 264 18 c 128,-1,48
 246 0 246 0 224 0 c 2,0,-1
121 164 m 2,49,50
 121 175 121 175 114.5 180 c 128,-1,51
 108 185 108 185 100 185 c 2,52,-1
 63 185 l 2,53,54
 43 185 43 185 43 164 c 2,55,-1
 43 64 l 2,56,57
 43 53 43 53 49 47 c 128,-1,58
 55 41 55 41 63 41 c 2,59,-1
 100 41 l 2,60,61
 108 41 108 41 114.5 47 c 128,-1,62
 121 53 121 53 121 64 c 2,63,-1
 121 164 l 2,49,50
EndSplineSet
Substitution2: "Single Substitution lookup 21 subtable" uni0C35_uni0C4D.abvs
EndChar

StartChar: uni0C36
Encoding: 3126 3126 160
Width: 348
GlyphClass: 2
Flags: W
LayerCount: 2
Back
Fore
SplineSet
178 400 m 2,0,1
 171 400 171 400 165.5 395.5 c 128,-1,2
 160 391 160 391 160 382 c 2,3,-1
 160 326 l 1,4,-1
 233 326 l 2,5,6
 253 326 253 326 269 310.5 c 128,-1,7
 285 295 285 295 285 270 c 2,8,-1
 285 236 l 2,9,10
 285 228 285 228 281.5 220.5 c 128,-1,11
 278 213 278 213 271 204 c 1,12,13
 285 190 285 190 285 168 c 2,14,-1
 285 57 l 2,15,16
 285 32 285 32 269 16 c 128,-1,17
 253 0 253 0 233 0 c 2,18,-1
 156 0 l 2,19,20
 136 0 136 0 120 16 c 128,-1,21
 104 32 104 32 104 57 c 2,22,-1
 104 160 l 2,23,24
 104 171 104 171 109 182 c 1,25,-1
 61 182 l 2,26,27
 44 182 44 182 44 163 c 2,28,-1
 44 39 l 1,29,-1
 4 39 l 1,30,-1
 4 168 l 2,31,32
 4 191 4 191 20 206.5 c 128,-1,33
 36 222 36 222 55 222 c 2,34,-1
 227 222 l 2,35,36
 238 222 238 222 241.5 229.5 c 128,-1,37
 245 237 245 237 245 243 c 2,38,-1
 245 267 l 2,39,40
 245 285 245 285 228 285 c 2,41,-1
 84 285 l 1,42,-1
 84 326 l 1,43,-1
 121 326 l 1,44,-1
 121 386 l 2,45,46
 121 409 121 409 136.5 424 c 128,-1,47
 152 439 152 439 171 439 c 2,48,-1
 288 439 l 1,49,-1
 288 400 l 1,50,-1
 178 400 l 2,0,1
245 163 m 2,51,52
 245 182 245 182 228 182 c 2,53,-1
 163 182 l 2,54,55
 143 182 143 182 143 163 c 2,56,-1
 143 59 l 2,57,58
 143 41 143 41 163 41 c 2,59,-1
 228 41 l 2,60,61
 245 41 245 41 245 59 c 2,62,-1
 245 163 l 2,51,52
EndSplineSet
Substitution2: "Single Substitution lookup 21 subtable" uni0C36_uni0C4D.abvs
EndChar

StartChar: uni0C37
Encoding: 3127 3127 161
Width: 353
GlyphClass: 2
Flags: W
LayerCount: 2
Back
Fore
SplineSet
166 411 m 2,0,1
 150 411 150 411 150 393 c 2,2,-1
 150 343 l 2,3,4
 150 315 150 315 135.5 299.5 c 128,-1,5
 121 284 121 284 98 284 c 2,6,-1
 5 284 l 1,7,-1
 5 325 l 1,8,-1
 91 325 l 2,9,10
 110 325 110 325 110 343 c 2,11,-1
 110 391 l 2,12,13
 110 420 110 420 125.5 436 c 128,-1,14
 141 452 141 452 163 452 c 2,15,-1
 241 452 l 1,16,-1
 241 411 l 1,17,-1
 166 411 l 2,0,1
298 -55 m 2,18,19
 282 -55 282 -55 271 -45.5 c 128,-1,20
 260 -36 260 -36 260 -24 c 2,21,-1
 260 -2 l 1,22,-1
 181 -2 l 2,23,24
 173 -2 173 -2 162.5 2 c 128,-1,25
 152 6 152 6 142 16 c 1,26,27
 134 8 134 8 124 3 c 128,-1,28
 114 -2 114 -2 106 -2 c 2,29,-1
 62 -2 l 2,30,31
 40 -2 40 -2 22 15.5 c 128,-1,32
 4 33 4 33 4 62 c 2,33,-1
 4 161 l 2,34,35
 4 190 4 190 22 206 c 128,-1,36
 40 222 40 222 62 222 c 2,37,-1
 102 222 l 2,38,39
 125 222 125 222 143 206 c 128,-1,40
 161 190 161 190 161 161 c 2,41,-1
 161 62 l 2,42,43
 161 50 161 50 167.5 44 c 128,-1,44
 174 38 174 38 182 38 c 2,45,-1
 239 38 l 2,46,47
 260 38 260 38 260 62 c 2,48,-1
 260 263 l 2,49,50
 260 284 260 284 239 284 c 2,51,-1
 221 284 l 1,52,-1
 221 325 l 1,53,-1
 241 325 l 2,54,55
 264 325 264 325 282 307 c 128,-1,56
 300 289 300 289 300 263 c 0,57,58
 300 232 300 232 300 190 c 128,-1,59
 300 148 300 148 299.5 108.5 c 128,-1,60
 299 69 299 69 299 40 c 128,-1,61
 299 11 299 11 299 7 c 0,62,63
 299 -4 299 -4 302.5 -12 c 128,-1,64
 306 -20 306 -20 318 -21 c 1,65,-1
 318 -55 l 1,66,-1
 298 -55 l 2,18,19
121 161 m 2,67,68
 121 183 121 183 101 183 c 2,69,-1
 66 183 l 2,70,71
 44 183 44 183 44 161 c 2,72,-1
 44 62 l 2,73,74
 44 38 44 38 66 38 c 2,75,-1
 101 38 l 2,76,77
 109 38 109 38 115 44.5 c 128,-1,78
 121 51 121 51 121 62 c 2,79,-1
 121 161 l 2,67,68
EndSplineSet
Substitution2: "Single Substitution lookup 21 subtable" uni0C37_uni0C4D.abvs
EndChar

StartChar: uni0C38
Encoding: 3128 3128 162
Width: 359
GlyphClass: 2
Flags: W
LayerCount: 2
Back
Fore
SplineSet
166 411 m 2,0,1
 150 411 150 411 150 393 c 2,2,-1
 150 343 l 2,3,4
 150 314 150 314 135.5 299 c 128,-1,5
 121 284 121 284 98 284 c 2,6,-1
 5 284 l 1,7,-1
 5 325 l 1,8,-1
 91 325 l 2,9,10
 110 325 110 325 110 343 c 2,11,-1
 110 391 l 2,12,13
 110 420 110 420 125.5 436 c 128,-1,14
 141 452 141 452 163 452 c 2,15,-1
 241 452 l 1,16,-1
 241 411 l 1,17,-1
 166 411 l 2,0,1
241 -3 m 2,18,-1
 179 -3 l 2,19,20
 156 -3 156 -3 138 15 c 128,-1,21
 120 33 120 33 120 61 c 2,22,-1
 120 150 l 2,23,24
 120 160 120 160 114 165 c 128,-1,25
 108 170 108 170 101 170 c 2,26,-1
 66 170 l 2,27,28
 44 170 44 170 44 150 c 2,29,-1
 44 -3 l 1,30,-1
 4 -3 l 1,31,-1
 4 151 l 2,32,33
 4 179 4 179 21.5 195.5 c 128,-1,34
 39 212 39 212 62 212 c 2,35,-1
 101 212 l 2,36,37
 123 212 123 212 141.5 195.5 c 128,-1,38
 160 179 160 179 160 151 c 2,39,-1
 160 61 l 2,40,41
 160 50 160 50 166.5 44 c 128,-1,42
 173 38 173 38 181 38 c 2,43,-1
 239 38 l 2,44,45
 247 38 247 38 253.5 44 c 128,-1,46
 260 50 260 50 260 61 c 2,47,-1
 260 263 l 2,48,49
 260 274 260 274 253.5 279 c 128,-1,50
 247 284 247 284 239 284 c 2,51,-1
 231 284 l 1,52,-1
 231 325 l 1,53,-1
 241 325 l 2,54,55
 266 325 266 325 282.5 307 c 128,-1,56
 299 289 299 289 299 263 c 2,57,-1
 299 61 l 2,58,59
 299 33 299 33 281 15 c 128,-1,60
 263 -3 263 -3 241 -3 c 2,18,-1
EndSplineSet
Substitution2: "Single Substitution lookup 21 subtable" uni0C38_uni0C4D.abvs
EndChar

StartChar: uni0C39
Encoding: 3129 3129 163
Width: 549
GlyphClass: 2
Flags: W
LayerCount: 2
Back
Fore
SplineSet
166 411 m 2,0,1
 150 411 150 411 150 393 c 2,2,-1
 150 343 l 2,3,4
 150 314 150 314 135.5 299 c 128,-1,5
 121 284 121 284 98 284 c 2,6,-1
 5 284 l 1,7,-1
 5 325 l 1,8,-1
 91 325 l 2,9,10
 110 325 110 325 110 343 c 2,11,-1
 110 391 l 2,12,13
 110 420 110 420 125.5 436 c 128,-1,14
 141 452 141 452 163 452 c 2,15,-1
 241 452 l 1,16,-1
 241 411 l 1,17,-1
 166 411 l 2,0,1
231 329 m 1,18,-1
 245 329 l 1,19,-1
 432 329 l 2,20,21
 455 329 455 329 473.5 311 c 128,-1,22
 492 293 492 293 492 265 c 2,23,-1
 492 63 l 2,24,25
 492 35 492 35 473.5 17 c 128,-1,26
 455 -1 455 -1 432 -1 c 2,27,-1
 407 -1 l 2,28,29
 385 -1 385 -1 366 17 c 128,-1,30
 347 35 347 35 347 63 c 2,31,-1
 347 161 l 2,32,33
 347 187 347 187 365.5 205.5 c 128,-1,34
 384 224 384 224 407 224 c 2,35,-1
 452 224 l 1,36,-1
 452 266 l 2,37,38
 452 277 452 277 445 282.5 c 128,-1,39
 438 288 438 288 430 288 c 2,40,-1
 301 288 l 1,41,42
 305 273 305 273 305 265 c 2,43,-1
 305 64 l 2,44,45
 305 36 305 36 286.5 18 c 128,-1,46
 268 0 268 0 245 0 c 2,47,-1
 184 0 l 2,48,49
 176 0 176 0 165.5 4 c 128,-1,50
 155 8 155 8 145 18 c 1,51,52
 137 10 137 10 126.5 5 c 128,-1,53
 116 0 116 0 108 0 c 2,54,-1
 64 0 l 2,55,56
 41 0 41 0 22.5 18 c 128,-1,57
 4 36 4 36 4 64 c 2,58,-1
 4 164 l 2,59,60
 4 192 4 192 22.5 209 c 128,-1,61
 41 226 41 226 64 226 c 2,62,-1
 104 226 l 2,63,64
 127 226 127 226 145.5 209 c 128,-1,65
 164 192 164 192 164 164 c 2,66,-1
 164 64 l 2,67,68
 164 41 164 41 186 41 c 2,69,-1
 243 41 l 2,70,71
 251 41 251 41 257.5 47 c 128,-1,72
 264 53 264 53 264 64 c 2,73,-1
 264 266 l 2,74,75
 264 277 264 277 257.5 282.5 c 128,-1,76
 251 288 251 288 243 288 c 2,77,-1
 231 288 l 1,78,-1
 231 329 l 1,18,-1
452 183 m 1,79,-1
 409 183 l 2,80,81
 401 183 401 183 394.5 178 c 128,-1,82
 388 173 388 173 388 161 c 2,83,-1
 388 64 l 2,84,85
 388 53 388 53 394.5 47 c 128,-1,86
 401 41 401 41 409 41 c 2,87,-1
 430 41 l 2,88,89
 438 41 438 41 445 47 c 128,-1,90
 452 53 452 53 452 64 c 2,91,-1
 452 183 l 1,79,-1
124 163 m 2,92,93
 124 185 124 185 102 185 c 2,94,-1
 66 185 l 2,95,96
 44 185 44 185 44 163 c 2,97,-1
 44 64 l 2,98,99
 44 41 44 41 66 41 c 2,100,-1
 102 41 l 2,101,102
 124 41 124 41 124 64 c 2,103,-1
 124 163 l 2,92,93
EndSplineSet
Substitution2: "Single Substitution lookup 21 subtable" uni0C39_uni0C4D.abvs
EndChar

StartChar: uni0C3D
Encoding: 3133 3133 164
Width: 514
GlyphClass: 2
Flags: W
LayerCount: 2
Back
Fore
SplineSet
67 0 m 2,0,1
 44 0 44 0 25 17 c 128,-1,2
 6 34 6 34 6 62 c 2,3,-1
 6 96 l 1,4,-1
 6 105 l 2,5,6
 7 110 7 110 8 114 c 128,-1,7
 9 118 9 118 12 123 c 0,8,9
 17 134 17 134 29 143 c 128,-1,10
 41 152 41 152 62 155 c 2,11,-1
 198 173 l 2,12,13
 211 175 211 175 216.5 181 c 128,-1,14
 222 187 222 187 222 204 c 2,15,-1
 222 280 l 2,16,17
 222 302 222 302 198 302 c 2,18,-1
 179 302 l 1,19,-1
 179 262 l 2,20,21
 179 234 179 234 161 217 c 128,-1,22
 143 200 143 200 118 200 c 2,23,-1
 93 200 l 2,24,25
 70 200 70 200 51 217 c 128,-1,26
 32 234 32 234 32 262 c 2,27,-1
 32 280 l 2,28,29
 32 308 32 308 51 324.5 c 128,-1,30
 70 341 70 341 93 341 c 2,31,-1
 201 341 l 2,32,33
 224 341 224 341 243 324 c 128,-1,34
 262 307 262 307 262 279 c 2,35,-1
 262 199 l 2,36,37
 262 170 262 170 244 154.5 c 128,-1,38
 226 139 226 139 200 135 c 2,39,-1
 70 117 l 2,40,41
 45 113 45 113 45 96 c 2,42,-1
 45 62 l 2,43,44
 45 39 45 39 69 39 c 2,45,-1
 474 40 l 1,46,-1
 474 0 l 1,47,-1
 67 0 l 2,0,1
141 302 m 1,48,-1
 95 302 l 2,49,50
 71 302 71 302 71 280 c 2,51,-1
 71 262 l 2,52,53
 71 240 71 240 95 240 c 2,54,-1
 117 240 l 2,55,56
 126 240 126 240 133.5 245.5 c 128,-1,57
 141 251 141 251 141 262 c 2,58,-1
 141 302 l 1,48,-1
EndSplineSet
EndChar

StartChar: uni0C3E
Encoding: 3134 3134 165
Width: 207
GlyphClass: 2
Flags: W
LayerCount: 2
Back
Fore
SplineSet
83 -1 m 2,0,-1
 58 -1 l 2,1,2
 36 -1 36 -1 18 16.5 c 128,-1,3
 0 34 0 34 0 63 c 2,4,-1
 0 160 l 2,5,6
 0 189 0 189 18 206 c 128,-1,7
 36 223 36 223 58 223 c 2,8,-1
 103 223 l 1,9,-1
 103 272 l 2,10,11
 103 293 103 293 81 293 c 2,12,-1
 -330 293 l 1,13,-1
 -330 334 l 1,14,-1
 83 334 l 2,15,16
 106 334 106 334 124.5 316.5 c 128,-1,17
 143 299 143 299 143 270 c 2,18,-1
 143 63 l 2,19,20
 143 34 143 34 124.5 16.5 c 128,-1,21
 106 -1 106 -1 83 -1 c 2,0,-1
103 183 m 1,22,-1
 61 183 l 2,23,24
 40 183 40 183 40 161 c 2,25,-1
 40 64 l 2,26,27
 40 53 40 53 46.5 47 c 128,-1,28
 53 41 53 41 61 41 c 2,29,-1
 81 41 l 2,30,31
 103 41 103 41 103 64 c 2,32,-1
 103 183 l 1,22,-1
EndSplineSet
EndChar

StartChar: uni0C3F
Encoding: 3135 3135 166
Width: 12
GlyphClass: 2
Flags: W
LayerCount: 2
Back
Fore
SplineSet
-122 283 m 2,0,-1
 -193 283 l 1,1,-1
 -193 323 l 1,2,-1
 -120 323 l 2,3,4
 -107 323 -107 323 -103.5 327 c 128,-1,5
 -100 331 -100 331 -100 339 c 2,6,-1
 -100 409 l 2,7,8
 -100 425 -100 425 -108 432.5 c 128,-1,9
 -116 440 -116 440 -139 437 c 1,10,-1
 -137 397 l 2,11,12
 -136 379 -136 379 -149 364 c 0,13,14
 -161 350 -161 350 -195 350 c 0,15,16
 -220 350 -220 350 -237 364.5 c 128,-1,17
 -254 379 -254 379 -254 411 c 0,18,19
 -254 440 -254 440 -238 456.5 c 128,-1,20
 -222 473 -222 473 -193 473 c 2,21,-1
 -115 473 l 2,22,23
 -90 473 -90 473 -76.5 456.5 c 128,-1,24
 -63 440 -63 440 -63 420 c 2,25,-1
 -63 340 l 2,26,27
 -63 316 -63 316 -78 299.5 c 128,-1,28
 -93 283 -93 283 -122 283 c 2,0,-1
-173 435 m 1,29,-1
 -197 435 l 2,30,31
 -207 435 -207 435 -212 430 c 128,-1,32
 -217 425 -217 425 -217 411 c 0,33,34
 -217 398 -217 398 -213 393 c 128,-1,35
 -209 388 -209 388 -197 388 c 0,36,37
 -179 388 -179 388 -176 391 c 128,-1,38
 -173 394 -173 394 -173 401 c 2,39,-1
 -173 435 l 1,29,-1
EndSplineSet
EndChar

StartChar: uni0C40
Encoding: 3136 3136 167
Width: 12
GlyphClass: 2
Flags: W
LayerCount: 2
Back
Fore
SplineSet
-84 490 m 1,0,1
 -86 510 -86 510 -92.5 516 c 128,-1,2
 -99 522 -99 522 -110 522 c 0,3,4
 -126 522 -126 522 -131.5 515.5 c 128,-1,5
 -137 509 -137 509 -137 495 c 2,6,-1
 -137 470 l 1,7,-1
 -115 470 l 2,8,9
 -90 470 -90 470 -76.5 454 c 128,-1,10
 -63 438 -63 438 -63 418 c 2,11,-1
 -63 340 l 2,12,13
 -63 314 -63 314 -78 298 c 128,-1,14
 -93 282 -93 282 -122 282 c 2,15,-1
 -193 282 l 1,16,-1
 -193 322 l 1,17,-1
 -121 322 l 2,18,19
 -108 322 -108 322 -104 325 c 128,-1,20
 -100 328 -100 328 -100 339 c 2,21,-1
 -100 408 l 2,22,23
 -100 422 -100 422 -107 429.5 c 128,-1,24
 -114 437 -114 437 -139 435 c 1,25,-1
 -136 395 l 2,26,27
 -134 375 -134 375 -147.5 361 c 128,-1,28
 -161 347 -161 347 -195 347 c 0,29,30
 -220 347 -220 347 -237 362.5 c 128,-1,31
 -254 378 -254 378 -254 410 c 0,32,33
 -254 439 -254 439 -239 454.5 c 128,-1,34
 -224 470 -224 470 -193 470 c 2,35,-1
 -175 470 l 1,36,-1
 -175 509 l 2,37,38
 -175 531 -175 531 -160.5 545 c 128,-1,39
 -146 559 -146 559 -114 559 c 2,40,-1
 -89 559 l 2,41,42
 -65 559 -65 559 -56.5 547 c 128,-1,43
 -48 535 -48 535 -48 512 c 2,44,-1
 -48 490 l 1,45,-1
 -84 490 l 1,0,1
-173 432 m 1,46,-1
 -197 432 l 2,47,48
 -208 432 -208 432 -212 427.5 c 128,-1,49
 -216 423 -216 423 -216 410 c 256,50,51
 -216 397 -216 397 -212.5 392 c 128,-1,52
 -209 387 -209 387 -197 387 c 0,53,54
 -179 387 -179 387 -176 389.5 c 128,-1,55
 -173 392 -173 392 -173 399 c 2,56,-1
 -173 432 l 1,46,-1
EndSplineSet
EndChar

StartChar: uni0C41
Encoding: 3137 3137 168
Width: 132
GlyphClass: 2
Flags: W
LayerCount: 2
Back
Fore
SplineSet
12 0 m 2,0,-1
 -29 0 l 2,1,2
 -53 0 -53 0 -74 24 c 1,3,-1
 -56 62 l 1,4,5
 -45 46 -45 46 -39.5 42.5 c 128,-1,6
 -34 39 -34 39 -27 39 c 2,7,-1
 9 39 l 2,8,9
 33 39 33 39 33 64 c 2,10,-1
 33 265 l 2,11,12
 33 289 33 289 9 289 c 2,13,-1
 -10 289 l 1,14,-1
 -10 328 l 1,15,-1
 12 328 l 2,16,17
 34 328 34 328 51.5 310.5 c 128,-1,18
 69 293 69 293 69 264 c 2,19,-1
 69 64 l 2,20,21
 69 35 69 35 51.5 17.5 c 128,-1,22
 34 0 34 0 12 0 c 2,0,-1
EndSplineSet
EndChar

StartChar: uni0C42
Encoding: 3138 3138 169
Width: 331
GlyphClass: 2
Flags: W
LayerCount: 2
Back
Fore
SplineSet
208 0 m 2,0,-1
 184 0 l 2,1,2
 162 0 162 0 144.5 17.5 c 128,-1,3
 127 35 127 35 127 64 c 2,4,-1
 127 164 l 2,5,6
 127 193 127 193 145.5 209 c 128,-1,7
 164 225 164 225 184 225 c 2,8,-1
 229 225 l 1,9,-1
 229 265 l 2,10,11
 229 289 229 289 207 289 c 2,12,-1
 68 289 l 1,13,14
 71 277 71 277 71.5 270.5 c 128,-1,15
 72 264 72 264 72 256 c 2,16,-1
 72 64 l 2,17,18
 72 35 72 35 54 17.5 c 128,-1,19
 36 0 36 0 13 0 c 2,20,-1
 -28 0 l 2,21,22
 -42 0 -42 0 -52.5 6.5 c 128,-1,23
 -63 13 -63 13 -74 24 c 1,24,-1
 -55 63 l 1,25,26
 -44 46 -44 46 -38.5 42.5 c 128,-1,27
 -33 39 -33 39 -26 39 c 2,28,-1
 11 39 l 2,29,30
 34 39 34 39 34 64 c 2,31,-1
 34 254 l 2,32,33
 34 268 34 268 31.5 275 c 128,-1,34
 29 282 29 282 17 289 c 1,35,-1
 -5 289 l 1,36,-1
 -5 328 l 1,37,-1
 208 328 l 2,38,39
 233 328 233 328 250 310.5 c 128,-1,40
 267 293 267 293 267 264 c 2,41,-1
 267 64 l 2,42,43
 267 35 267 35 250 17.5 c 128,-1,44
 233 0 233 0 208 0 c 2,0,-1
229 187 m 1,45,-1
 187 187 l 2,46,47
 166 187 166 187 166 163 c 2,48,-1
 166 64 l 2,49,50
 166 39 166 39 187 39 c 2,51,-1
 207 39 l 2,52,53
 229 39 229 39 229 64 c 2,54,-1
 229 187 l 1,45,-1
EndSplineSet
EndChar

StartChar: uni0C43
Encoding: 3139 3139 170
Width: 146
GlyphClass: 2
Flags: W
LayerCount: 2
Back
Fore
SplineSet
25 -279 m 2,0,-1
 -82 -279 l 2,1,2
 -111 -279 -111 -279 -127 -263 c 128,-1,3
 -143 -247 -143 -247 -143 -224 c 2,4,-1
 -143 -97 l 2,5,6
 -143 -77 -143 -77 -128 -60.5 c 128,-1,7
 -113 -44 -113 -44 -88 -44 c 2,8,-1
 -56 -44 l 2,9,10
 -31 -44 -31 -44 -15.5 -60.5 c 128,-1,11
 0 -77 0 -77 0 -97 c 2,12,-1
 0 -134 l 2,13,14
 0 -156 0 -156 -15.5 -172.5 c 128,-1,15
 -31 -189 -31 -189 -56 -189 c 2,16,-1
 -101 -189 l 1,17,-1
 -101 -214 l 2,18,19
 -101 -238 -101 -238 -69 -238 c 2,20,-1
 22 -238 l 2,21,22
 30 -238 30 -238 36.5 -232 c 128,-1,23
 43 -226 43 -226 43 -216 c 2,24,-1
 43 201 l 2,25,26
 43 209 43 209 39 215 c 128,-1,27
 35 221 35 221 24 221 c 2,28,-1
 -3 221 l 1,29,-1
 -3 262 l 1,30,-1
 27 262 l 2,31,32
 52 262 52 262 67.5 244.5 c 128,-1,33
 83 227 83 227 83 207 c 2,34,-1
 83 -216 l 2,35,36
 83 -244 83 -244 65 -261.5 c 128,-1,37
 47 -279 47 -279 25 -279 c 2,0,-1
-41 -103 m 2,38,39
 -41 -96 -41 -96 -45 -90 c 128,-1,40
 -49 -84 -49 -84 -60 -84 c 2,41,-1
 -84 -84 l 2,42,43
 -94 -84 -94 -84 -99 -89.5 c 128,-1,44
 -104 -95 -104 -95 -104 -103 c 2,45,-1
 -104 -148 l 1,46,-1
 -60 -148 l 2,47,48
 -49 -148 -49 -148 -45 -141.5 c 128,-1,49
 -41 -135 -41 -135 -41 -128 c 2,50,-1
 -41 -103 l 2,38,39
EndSplineSet
Substitution2: "Single Substitution lookup 20 subtable" glyph1236
EndChar

